<svg width="303" height="14" viewBox="0 0 303 14" fill="none" xmlns="http://www.w3.org/2000/svg">
<rect width="126" height="2" transform="translate(0 6)" fill="#D3D3D3"/>
<path d="M140.809 9.074C140.809 9.158 140.804 9.27933 140.795 9.438C140.795 9.58733 140.79 9.75067 140.781 9.928C140.772 10.096 140.762 10.2593 140.753 10.418C140.744 10.5673 140.734 10.6887 140.725 10.782L144.743 4.496H146.255V12H145.107V7.576C145.107 7.42667 145.107 7.23067 145.107 6.988C145.116 6.74533 145.126 6.50733 145.135 6.274C145.144 6.03133 145.154 5.84933 145.163 5.728L141.173 12H139.647V4.496H140.809V9.074ZM154.355 12H153.109V5.518H150.897C150.804 6.70333 150.687 7.716 150.547 8.556C150.407 9.38667 150.23 10.0633 150.015 10.586C149.8 11.1087 149.544 11.4913 149.245 11.734C148.946 11.9767 148.596 12.098 148.195 12.098C148.074 12.098 147.952 12.0887 147.831 12.07C147.719 12.0607 147.626 12.0373 147.551 12V11.076C147.607 11.0947 147.668 11.1087 147.733 11.118C147.798 11.1273 147.864 11.132 147.929 11.132C148.134 11.132 148.321 11.048 148.489 10.88C148.657 10.712 148.806 10.4553 148.937 10.11C149.077 9.76467 149.203 9.33067 149.315 8.808C149.427 8.276 149.525 7.65067 149.609 6.932C149.693 6.21333 149.768 5.40133 149.833 4.496H154.355V12ZM157.899 9.074C157.899 9.158 157.894 9.27933 157.885 9.438C157.885 9.58733 157.88 9.75067 157.871 9.928C157.862 10.096 157.852 10.2593 157.843 10.418C157.834 10.5673 157.824 10.6887 157.815 10.782L161.833 4.496H163.345V12H162.197V7.576C162.197 7.42667 162.197 7.23067 162.197 6.988C162.206 6.74533 162.216 6.50733 162.225 6.274C162.234 6.03133 162.244 5.84933 162.253 5.728L158.263 12H156.737V4.496H157.899V9.074Z" fill="#002F56"/>
<rect width="126" height="2" transform="translate(177 6)" fill="#D3D3D3"/>
</svg>
