<svg width="750" height="750" viewBox="0 0 750 750" fill="none" xmlns="http://www.w3.org/2000/svg">
<rect x="0.5" y="0.5" width="749" height="749" rx="29.5" fill="url(#paint0_linear_69_52)"/>
<rect x="0.5" y="0.5" width="749" height="749" rx="29.5" stroke="black"/>
<path d="M286.998 141.491C242.483 158.512 205.945 172.98 205.945 173.619C205.945 174.895 371.56 237.661 375.071 237.661C378.74 237.661 542.6 174.895 542.6 173.619C542.6 171.278 379.059 109.577 373.475 110.002C370.444 110.002 331.513 124.257 286.998 141.491ZM384.484 163.832C386.877 165.534 389.749 168.512 391.026 170.427C392.781 173.406 398.684 173.619 444.316 172.342C472.397 171.491 495.213 171.491 494.735 172.129C494.256 172.768 471.281 174.47 443.678 175.959C400.12 178.087 392.94 178.938 390.228 182.129C381.612 192.129 372.199 193.406 366.295 185.321C364.061 182.555 362.306 178.087 362.306 175.746C362.306 173.193 364.061 168.938 366.295 166.172C370.763 160.002 377.623 159.151 384.484 163.832Z" fill="#020264"/>
<path d="M369.007 169.789C361.189 180.215 376.187 189.789 384.803 180.002L388.632 175.747L384.803 171.491C380.655 166.81 372.039 165.747 369.007 169.789Z" fill="#020264"/>
<path d="M193.819 145.534C181.533 158.513 172.439 176.81 172.439 188.512C172.439 192.768 172.918 192.555 179.619 186.385C188.713 178.087 197.01 163.406 200.361 150.002C201.956 144.045 202.754 138.938 202.275 138.3C201.956 137.662 198.127 141.066 193.819 145.534Z" fill="#020264"/>
<path d="M547.387 139.364C547.387 144.895 553.929 163.619 558.556 171.491C561.428 176.172 566.852 182.98 570.682 186.597C576.745 192.129 577.702 192.342 577.702 189.151C577.542 181.704 573.394 169.789 567.65 160.427C561.428 150.427 547.387 135.747 547.387 139.364Z" fill="#020264"/>
<path d="M164.461 148.3C157.92 164.47 154.728 190.853 157.441 204.895C158.877 212.129 160.313 210.853 164.142 199.576C169.407 184.257 171.322 170.64 170.045 157.662C168.929 144.47 167.014 141.492 164.461 148.3Z" fill="#020264"/>
<path d="M582.169 146.172C578.021 160.853 580.095 184.683 587.115 202.98L590.147 210.853L592.062 204.47C595.093 194.044 593.178 171.704 587.754 156.385C584.563 147.023 582.808 143.832 582.169 146.172Z" fill="#020264"/>
<path d="M143.56 187.874C139.412 206.597 141.805 243.831 146.911 243.831C149.144 243.831 151.857 230.64 152.814 215.959C153.452 205.534 152.974 198.725 150.899 189.789C149.304 183.193 147.549 177.874 146.911 177.874C146.272 177.874 144.677 182.342 143.56 187.874Z" fill="#020264"/>
<path d="M600.677 185.321C595.891 199.363 597.805 243.831 603.23 243.831C604.028 243.831 605.943 238.512 607.379 231.916C610.251 218.725 609.612 202.768 605.783 185.959L603.709 176.81L600.677 185.321Z" fill="#020264"/>
<path d="M183.608 189.789C173.396 197.448 163.025 211.491 159.356 222.129C157.6 227.236 156.643 231.916 157.122 232.555C158.877 234.895 176.428 218.725 182.331 209.363C188.235 200.214 194.298 184.257 192.064 184.257C191.266 184.257 187.596 186.81 183.608 189.789Z" fill="#020264"/>
<path d="M558.715 190.002C561.747 201.278 571.479 216.384 581.212 224.895C586.637 229.363 591.264 232.767 591.743 232.342C593.498 229.789 589.668 217.874 584.403 209.789C579.138 201.491 561.587 184.257 558.396 184.257C557.758 184.257 557.758 186.81 558.715 190.002Z" fill="#020264"/>
<path d="M517.391 197.236C517.232 204.895 516.274 210.214 514.679 211.916C511.807 215.108 511.647 220.852 514.2 224.257C515.796 226.384 515.796 227.235 514.2 228.725C513.083 229.576 510.371 244.682 507.818 263.831C503.67 296.809 503.67 297.448 506.701 300.426C510.69 304.256 525.209 304.256 529.198 300.426C532.23 297.448 532.23 296.809 527.922 263.831C525.369 244.257 522.816 229.789 521.54 228.725C519.944 227.235 519.944 226.384 521.54 224.257C524.092 220.852 523.933 215.108 521.061 211.916C519.784 210.427 518.508 204.47 518.189 197.448L517.71 185.321L517.391 197.236Z" fill="#020264"/>
<path d="M123.616 224.895C124.095 232.129 126.488 243.406 128.722 250.214C132.71 262.129 141.167 275.746 142.922 273.193C144.677 270.852 140.688 245.533 136.859 234.682C133.189 224.47 125.85 211.916 123.456 211.916C122.978 211.916 122.978 217.874 123.616 224.895Z" fill="#020264"/>
<path d="M621.26 218.725C614.878 227.661 610.251 241.491 608.176 257.661C606.581 271.703 606.74 272.554 610.41 270.852C616.952 267.448 628.44 229.576 626.844 216.172C626.365 211.916 626.046 211.916 621.26 218.725Z" fill="#020264"/>
<path d="M300.081 275.958V331.703L307.101 340.852C314.76 350.639 326.088 357.235 343.958 362.341C358.158 366.383 401.875 364.894 414.959 360C427.723 355.107 442.88 344.681 447.507 337.235L451.656 330.639V275.32C451.656 223.618 451.496 220.001 448.943 221.065C447.348 221.491 430.116 228.512 410.491 236.597L375.071 251.065L340.288 236.384C321.301 228.512 304.389 221.491 302.953 220.852C300.24 220.001 300.081 223.618 300.081 275.958Z" fill="#020264"/>
<path d="M160.632 241.703C153.611 252.767 148.027 271.065 147.229 284.682C146.432 299.575 148.027 300.214 154.728 288.086C161.908 275.108 166.376 258.086 165.737 245.108L165.259 234.469L160.632 241.703Z" fill="#020264"/>
<path d="M584.084 245.32C584.084 258.512 587.913 273.405 595.093 287.022C602.113 300.639 603.868 300.001 602.752 284.043C601.794 270.214 596.21 252.98 588.711 241.278L584.243 234.256L584.084 245.32Z" fill="#020264"/>
<path d="M122.02 266.384C123.297 275.958 131.115 298.299 135.263 304.682C136.859 307.022 140.209 310.852 142.762 312.979L147.389 317.022L146.272 307.66C144.198 290.426 133.189 267.235 123.935 260.427C121.223 258.512 121.063 258.937 122.02 266.384Z" fill="#020264"/>
<path d="M620.302 267.022C612.963 276.171 605.305 295.32 603.709 308.937C602.752 316.171 602.911 316.596 605.943 314.469C611.048 310.852 619.186 297.235 622.536 287.235C626.206 275.746 629.237 260.852 628.121 259.363C627.801 258.724 624.291 262.341 620.302 267.022Z" fill="#020264"/>
<path d="M156.962 292.128C156.165 295.533 155.686 307.235 155.846 318.299C155.846 336.171 156.484 340.001 160.313 350C164.461 360.639 164.94 361.277 166.695 357.447C167.652 355.107 168.45 344.256 168.45 332.128C168.45 313.405 167.971 309.362 164.142 298.511C161.749 291.916 159.515 286.384 159.037 286.384C158.558 286.384 157.601 288.937 156.962 292.128Z" fill="#020264"/>
<path d="M586.158 298.086C582.169 309.576 581.691 313.193 581.691 332.129C581.691 343.831 582.488 355.107 583.446 357.448C585.041 360.852 585.839 360.001 589.828 348.937C593.976 337.661 594.455 334.469 594.136 316.171C594.136 305.108 593.338 293.618 592.381 290.64C590.785 285.533 590.626 285.746 586.158 298.086Z" fill="#020264"/>
<path d="M115 305.107C115 308.724 124.094 323.831 131.753 332.767C138.933 341.277 150.58 348.086 152.654 345.32C154.09 343.405 147.868 331.065 141.007 322.129C132.87 311.703 115 300.001 115 305.107Z" fill="#020264"/>
<path d="M623.174 309.362C614.239 315.107 605.304 325.745 599.082 338.298C595.412 346.171 597.167 347.235 605.783 342.766C614.558 338.298 621.898 330.213 629.556 316.171C637.853 301.065 637.374 300.426 623.174 309.362Z" fill="#020264"/>
<path d="M173.236 350.426C175.151 362.554 181.533 381.49 186.958 391.702C192.064 401.064 201.956 411.49 203.711 409.149C204.19 408.511 203.392 402.128 201.796 394.894C197.488 373.83 186.958 355.107 174.194 345.107C172.598 343.618 172.279 344.681 173.236 350.426Z" fill="#020264"/>
<path d="M569.246 351.49C565.257 355.745 559.673 363.618 557.12 369.149C552.812 377.873 545.791 402.128 545.791 407.66C545.791 415.958 562.066 395.958 568.129 380C572.437 368.511 578.181 345.958 577.223 344.469C576.904 344.043 573.234 347.235 569.246 351.49Z" fill="#020264"/>
<path d="M132.391 351.703C135.582 359.788 154.09 380.639 162.387 385.745C167.333 388.724 172.917 390.639 175.949 390.213L181.214 389.575L171.801 376.171C161.908 362.128 148.346 351.703 136.699 348.937C130.955 347.66 130.796 347.873 132.391 351.703Z" fill="#020264"/>
<path d="M606.9 351.277C596.21 355.532 587.116 363.617 577.702 377.234L568.927 389.575L574.192 390.213C584.244 391.49 606.262 372.554 616.154 354.256C619.186 348.511 619.186 348.086 616.473 348.298C614.878 348.298 610.57 349.575 606.9 351.277Z" fill="#020264"/>
<path d="M279.02 394.256C271.361 400.639 266.734 405.958 266.575 408.086C266.575 411.703 272.478 411.915 369.646 411.915C437.615 411.915 473.674 412.767 475.748 414.043C479.577 416.809 479.737 425.107 475.908 429.575C473.195 432.766 463.462 433.192 369.805 433.192H266.575V440.639V448.085H375.07C467.611 448.085 483.566 447.66 483.566 445.107C483.566 443.405 482.768 441.703 481.811 441.277C480.694 440.851 481.332 437.234 483.407 431.703C488.193 419.575 486.757 414.681 473.993 398.299L463.143 384.256H377.145H291.305L279.02 394.256Z" fill="#020264"/>
<path d="M209.136 394.468C214.561 407.234 223.017 417.447 236.419 426.809L248.226 435.106L232.909 435.319C216.635 435.319 207.7 438.298 199.243 446.17C194.936 450.426 194.776 451.064 197.169 452.979C201.956 456.596 229.878 455.319 237.855 451.064C252.374 443.617 255.565 434.255 248.226 420C241.844 407.447 223.017 390.851 210.891 387.447L205.626 385.958L209.136 394.468Z" fill="#020264"/>
<path d="M532.868 390.426C523.294 395.532 507.499 410.213 502.872 418.511C497.447 428.298 496.809 437.447 501.436 442.979C508.297 451.277 517.87 454.681 534.463 454.681C558.396 454.681 560.311 451.915 543.558 441.489C534.942 435.957 532.07 435.319 517.87 435.319L501.914 435.106L513.721 426.809C526.964 417.447 535.58 407.234 540.845 394.681C544.994 385.107 544.036 384.681 532.868 390.426Z" fill="#020264"/>
<path d="M143.72 392.128C136.221 394.043 137.178 396.383 148.027 402.979C162.547 411.702 176.428 415.319 186.16 412.766C190.309 411.702 193.978 409.787 194.298 408.511C194.936 405.745 179.459 395.958 169.248 392.979C162.068 390.638 151.059 390.426 143.72 392.128Z" fill="#020264"/>
<path d="M581.212 392.766C573.075 395.107 555.365 405.32 555.365 407.873C555.365 412.128 568.926 414.681 579.457 412.341C592.062 409.362 612.484 397.873 610.091 394.681C607.857 391.703 589.349 390.426 581.212 392.766Z" fill="#020264"/>
<path d="M181.214 421.277C177.704 422.766 172.758 425.532 170.046 427.234L165.419 430.638L171.641 433.192C175.151 434.468 184.565 436.17 192.383 436.596C204.828 437.447 208.019 437.021 215.518 432.766C220.305 430 224.134 427.021 223.974 425.745C223.177 419.362 193.181 416.17 181.214 421.277Z" fill="#020264"/>
<path d="M534.144 421.277C529.996 422.766 526.167 424.681 525.528 425.319C523.773 427.872 539.729 435.745 548.823 436.808C558.715 438.085 580.255 434.042 581.85 430.851C582.329 429.787 579.298 426.808 575.149 424.468C565.576 418.723 544.994 417.021 534.144 421.277Z" fill="#020264"/>
<path d="M241.684 459.788C229.718 471.702 226.687 477.234 230.675 479.362C235.941 481.915 255.566 457.447 253.491 450.639C253.332 449.575 247.907 453.617 241.684 459.788Z" fill="#020264"/>
<path d="M497.128 452.553C497.766 455.319 499.521 460 500.957 462.766C503.829 468.723 514.998 480 518.189 480C522.497 480 520.104 471.702 514.36 465.958C511.009 462.766 505.584 457.234 502.074 453.83C496.171 447.66 496.011 447.66 497.128 452.553Z" fill="#020264"/>
<path d="M266.575 460.851C266.575 465.106 267.692 465.106 375.07 465.106C482.449 465.106 483.566 465.106 483.566 460.851C483.566 456.596 482.449 456.596 375.07 456.596C267.692 456.596 266.575 456.596 266.575 460.851Z" fill="#020264"/>
<g filter="url(#filter0_dd_69_52)">
<mask id="path-38-outside-1_69_52" maskUnits="userSpaceOnUse" x="38" y="508" width="680" height="99" fill="black">
<rect fill="white" x="38" y="508" width="680" height="99"/>
<path d="M97.0909 510.909H116.773V571.364C116.773 578.152 115.152 584.091 111.909 589.182C108.697 594.273 104.197 598.242 98.4091 601.091C92.6212 603.909 85.8788 605.318 78.1818 605.318C70.4545 605.318 63.697 603.909 57.9091 601.091C52.1212 598.242 47.6212 594.273 44.4091 589.182C41.197 584.091 39.5909 578.152 39.5909 571.364V510.909H59.2727V569.682C59.2727 573.227 60.0455 576.379 61.5909 579.136C63.1667 581.894 65.3788 584.061 68.2273 585.636C71.0758 587.212 74.3939 588 78.1818 588C82 588 85.3182 587.212 88.1364 585.636C90.9848 584.061 93.1818 581.894 94.7273 579.136C96.303 576.379 97.0909 573.227 97.0909 569.682V510.909ZM210.83 510.909V604H193.83L153.33 545.409H152.648V604H132.966V510.909H150.239L190.42 569.455H191.239V510.909H210.83Z"/>
<path d="M277.591 537.682C277.227 534.015 275.667 531.167 272.909 529.136C270.152 527.106 266.409 526.091 261.682 526.091C258.47 526.091 255.758 526.545 253.545 527.455C251.333 528.333 249.636 529.561 248.455 531.136C247.303 532.712 246.727 534.5 246.727 536.5C246.667 538.167 247.015 539.621 247.773 540.864C248.561 542.106 249.636 543.182 251 544.091C252.364 544.97 253.939 545.742 255.727 546.409C257.515 547.045 259.424 547.591 261.455 548.045L269.818 550.045C273.879 550.955 277.606 552.167 281 553.682C284.394 555.197 287.333 557.061 289.818 559.273C292.303 561.485 294.227 564.091 295.591 567.091C296.985 570.091 297.697 573.53 297.727 577.409C297.697 583.106 296.242 588.045 293.364 592.227C290.515 596.379 286.394 599.606 281 601.909C275.636 604.182 269.167 605.318 261.591 605.318C254.076 605.318 247.53 604.167 241.955 601.864C236.409 599.561 232.076 596.152 228.955 591.636C225.864 587.091 224.242 581.47 224.091 574.773H243.136C243.348 577.894 244.242 580.5 245.818 582.591C247.424 584.652 249.561 586.212 252.227 587.273C254.924 588.303 257.97 588.818 261.364 588.818C264.697 588.818 267.591 588.333 270.045 587.364C272.53 586.394 274.455 585.045 275.818 583.318C277.182 581.591 277.864 579.606 277.864 577.364C277.864 575.273 277.242 573.515 276 572.091C274.788 570.667 273 569.455 270.636 568.455C268.303 567.455 265.439 566.545 262.045 565.727L251.909 563.182C244.061 561.273 237.864 558.288 233.318 554.227C228.773 550.167 226.515 544.697 226.545 537.818C226.515 532.182 228.015 527.258 231.045 523.045C234.106 518.833 238.303 515.545 243.636 513.182C248.97 510.818 255.03 509.636 261.818 509.636C268.727 509.636 274.758 510.818 279.909 513.182C285.091 515.545 289.121 518.833 292 523.045C294.879 527.258 296.364 532.136 296.455 537.682H277.591ZM347.739 534.182V548.727H305.693V534.182H347.739ZM315.239 517.455H334.602V582.545C334.602 584.333 334.875 585.727 335.42 586.727C335.966 587.697 336.723 588.379 337.693 588.773C338.693 589.167 339.845 589.364 341.148 589.364C342.057 589.364 342.966 589.288 343.875 589.136C344.784 588.955 345.481 588.818 345.966 588.727L349.011 603.136C348.042 603.439 346.678 603.788 344.92 604.182C343.163 604.606 341.027 604.864 338.511 604.955C333.845 605.136 329.754 604.515 326.239 603.091C322.754 601.667 320.042 599.455 318.102 596.455C316.163 593.455 315.208 589.667 315.239 585.091V517.455ZM405.125 574.273V534.182H424.489V604H405.898V591.318H405.17C403.595 595.409 400.973 598.697 397.307 601.182C393.67 603.667 389.231 604.909 383.989 604.909C379.322 604.909 375.216 603.848 371.67 601.727C368.125 599.606 365.352 596.591 363.352 592.682C361.383 588.773 360.383 584.091 360.352 578.636V534.182H379.716V575.182C379.746 579.303 380.852 582.561 383.034 584.955C385.216 587.348 388.14 588.545 391.807 588.545C394.14 588.545 396.322 588.015 398.352 586.955C400.383 585.864 402.019 584.258 403.261 582.136C404.534 580.015 405.155 577.394 405.125 574.273ZM465.705 605.136C460.402 605.136 455.598 603.773 451.295 601.045C447.023 598.288 443.629 594.242 441.114 588.909C438.629 583.545 437.386 576.97 437.386 569.182C437.386 561.182 438.674 554.53 441.25 549.227C443.826 543.894 447.25 539.909 451.523 537.273C455.826 534.606 460.538 533.273 465.659 533.273C469.568 533.273 472.826 533.939 475.432 535.273C478.068 536.576 480.189 538.212 481.795 540.182C483.432 542.121 484.674 544.03 485.523 545.909H486.114V510.909H505.432V604H486.341V592.818H485.523C484.614 594.758 483.326 596.682 481.659 598.591C480.023 600.47 477.886 602.03 475.25 603.273C472.644 604.515 469.462 605.136 465.705 605.136ZM471.841 589.727C474.962 589.727 477.598 588.879 479.75 587.182C481.932 585.455 483.598 583.045 484.75 579.955C485.932 576.864 486.523 573.242 486.523 569.091C486.523 564.939 485.947 561.333 484.795 558.273C483.644 555.212 481.977 552.848 479.795 551.182C477.614 549.515 474.962 548.682 471.841 548.682C468.659 548.682 465.977 549.545 463.795 551.273C461.614 553 459.962 555.394 458.841 558.455C457.72 561.515 457.159 565.061 457.159 569.091C457.159 573.152 457.72 576.742 458.841 579.864C459.992 582.955 461.644 585.379 463.795 587.136C465.977 588.864 468.659 589.727 471.841 589.727ZM553.17 605.364C545.989 605.364 539.807 603.909 534.625 601C529.473 598.061 525.504 593.909 522.716 588.545C519.928 583.152 518.534 576.773 518.534 569.409C518.534 562.227 519.928 555.924 522.716 550.5C525.504 545.076 529.428 540.848 534.489 537.818C539.58 534.788 545.549 533.273 552.398 533.273C557.004 533.273 561.292 534.015 565.261 535.5C569.261 536.955 572.746 539.152 575.716 542.091C578.716 545.03 581.049 548.727 582.716 553.182C584.383 557.606 585.216 562.788 585.216 568.727V574.045H526.261V562.045H566.989C566.989 559.258 566.383 556.788 565.17 554.636C563.958 552.485 562.277 550.803 560.125 549.591C558.004 548.348 555.534 547.727 552.716 547.727C549.777 547.727 547.17 548.409 544.898 549.773C542.655 551.106 540.898 552.909 539.625 555.182C538.352 557.424 537.701 559.924 537.67 562.682V574.091C537.67 577.545 538.307 580.53 539.58 583.045C540.883 585.561 542.716 587.5 545.08 588.864C547.443 590.227 550.246 590.909 553.489 590.909C555.64 590.909 557.61 590.606 559.398 590C561.186 589.394 562.716 588.485 563.989 587.273C565.261 586.061 566.231 584.576 566.898 582.818L584.807 584C583.898 588.303 582.034 592.061 579.216 595.273C576.428 598.455 572.822 600.939 568.398 602.727C564.004 604.485 558.928 605.364 553.17 605.364ZM617.216 563.636V604H597.852V534.182H616.307V546.5H617.125C618.67 542.439 621.261 539.227 624.898 536.864C628.534 534.47 632.943 533.273 638.125 533.273C642.973 533.273 647.201 534.333 650.807 536.455C654.413 538.576 657.216 541.606 659.216 545.545C661.216 549.455 662.216 554.121 662.216 559.545V604H642.852V563C642.883 558.727 641.792 555.394 639.58 553C637.367 550.576 634.322 549.364 630.443 549.364C627.837 549.364 625.534 549.924 623.534 551.045C621.564 552.167 620.019 553.803 618.898 555.955C617.807 558.076 617.246 560.636 617.216 563.636ZM714.614 534.182V548.727H672.568V534.182H714.614ZM682.114 517.455H701.477V582.545C701.477 584.333 701.75 585.727 702.295 586.727C702.841 587.697 703.598 588.379 704.568 588.773C705.568 589.167 706.72 589.364 708.023 589.364C708.932 589.364 709.841 589.288 710.75 589.136C711.659 588.955 712.356 588.818 712.841 588.727L715.886 603.136C714.917 603.439 713.553 603.788 711.795 604.182C710.038 604.606 707.902 604.864 705.386 604.955C700.72 605.136 696.629 604.515 693.114 603.091C689.629 601.667 686.917 599.455 684.977 596.455C683.038 593.455 682.083 589.667 682.114 585.091V517.455Z"/>
</mask>
<path d="M97.0909 510.909H116.773V571.364C116.773 578.152 115.152 584.091 111.909 589.182C108.697 594.273 104.197 598.242 98.4091 601.091C92.6212 603.909 85.8788 605.318 78.1818 605.318C70.4545 605.318 63.697 603.909 57.9091 601.091C52.1212 598.242 47.6212 594.273 44.4091 589.182C41.197 584.091 39.5909 578.152 39.5909 571.364V510.909H59.2727V569.682C59.2727 573.227 60.0455 576.379 61.5909 579.136C63.1667 581.894 65.3788 584.061 68.2273 585.636C71.0758 587.212 74.3939 588 78.1818 588C82 588 85.3182 587.212 88.1364 585.636C90.9848 584.061 93.1818 581.894 94.7273 579.136C96.303 576.379 97.0909 573.227 97.0909 569.682V510.909ZM210.83 510.909V604H193.83L153.33 545.409H152.648V604H132.966V510.909H150.239L190.42 569.455H191.239V510.909H210.83Z" fill="#020256"/>
<path d="M277.591 537.682C277.227 534.015 275.667 531.167 272.909 529.136C270.152 527.106 266.409 526.091 261.682 526.091C258.47 526.091 255.758 526.545 253.545 527.455C251.333 528.333 249.636 529.561 248.455 531.136C247.303 532.712 246.727 534.5 246.727 536.5C246.667 538.167 247.015 539.621 247.773 540.864C248.561 542.106 249.636 543.182 251 544.091C252.364 544.97 253.939 545.742 255.727 546.409C257.515 547.045 259.424 547.591 261.455 548.045L269.818 550.045C273.879 550.955 277.606 552.167 281 553.682C284.394 555.197 287.333 557.061 289.818 559.273C292.303 561.485 294.227 564.091 295.591 567.091C296.985 570.091 297.697 573.53 297.727 577.409C297.697 583.106 296.242 588.045 293.364 592.227C290.515 596.379 286.394 599.606 281 601.909C275.636 604.182 269.167 605.318 261.591 605.318C254.076 605.318 247.53 604.167 241.955 601.864C236.409 599.561 232.076 596.152 228.955 591.636C225.864 587.091 224.242 581.47 224.091 574.773H243.136C243.348 577.894 244.242 580.5 245.818 582.591C247.424 584.652 249.561 586.212 252.227 587.273C254.924 588.303 257.97 588.818 261.364 588.818C264.697 588.818 267.591 588.333 270.045 587.364C272.53 586.394 274.455 585.045 275.818 583.318C277.182 581.591 277.864 579.606 277.864 577.364C277.864 575.273 277.242 573.515 276 572.091C274.788 570.667 273 569.455 270.636 568.455C268.303 567.455 265.439 566.545 262.045 565.727L251.909 563.182C244.061 561.273 237.864 558.288 233.318 554.227C228.773 550.167 226.515 544.697 226.545 537.818C226.515 532.182 228.015 527.258 231.045 523.045C234.106 518.833 238.303 515.545 243.636 513.182C248.97 510.818 255.03 509.636 261.818 509.636C268.727 509.636 274.758 510.818 279.909 513.182C285.091 515.545 289.121 518.833 292 523.045C294.879 527.258 296.364 532.136 296.455 537.682H277.591ZM347.739 534.182V548.727H305.693V534.182H347.739ZM315.239 517.455H334.602V582.545C334.602 584.333 334.875 585.727 335.42 586.727C335.966 587.697 336.723 588.379 337.693 588.773C338.693 589.167 339.845 589.364 341.148 589.364C342.057 589.364 342.966 589.288 343.875 589.136C344.784 588.955 345.481 588.818 345.966 588.727L349.011 603.136C348.042 603.439 346.678 603.788 344.92 604.182C343.163 604.606 341.027 604.864 338.511 604.955C333.845 605.136 329.754 604.515 326.239 603.091C322.754 601.667 320.042 599.455 318.102 596.455C316.163 593.455 315.208 589.667 315.239 585.091V517.455ZM405.125 574.273V534.182H424.489V604H405.898V591.318H405.17C403.595 595.409 400.973 598.697 397.307 601.182C393.67 603.667 389.231 604.909 383.989 604.909C379.322 604.909 375.216 603.848 371.67 601.727C368.125 599.606 365.352 596.591 363.352 592.682C361.383 588.773 360.383 584.091 360.352 578.636V534.182H379.716V575.182C379.746 579.303 380.852 582.561 383.034 584.955C385.216 587.348 388.14 588.545 391.807 588.545C394.14 588.545 396.322 588.015 398.352 586.955C400.383 585.864 402.019 584.258 403.261 582.136C404.534 580.015 405.155 577.394 405.125 574.273ZM465.705 605.136C460.402 605.136 455.598 603.773 451.295 601.045C447.023 598.288 443.629 594.242 441.114 588.909C438.629 583.545 437.386 576.97 437.386 569.182C437.386 561.182 438.674 554.53 441.25 549.227C443.826 543.894 447.25 539.909 451.523 537.273C455.826 534.606 460.538 533.273 465.659 533.273C469.568 533.273 472.826 533.939 475.432 535.273C478.068 536.576 480.189 538.212 481.795 540.182C483.432 542.121 484.674 544.03 485.523 545.909H486.114V510.909H505.432V604H486.341V592.818H485.523C484.614 594.758 483.326 596.682 481.659 598.591C480.023 600.47 477.886 602.03 475.25 603.273C472.644 604.515 469.462 605.136 465.705 605.136ZM471.841 589.727C474.962 589.727 477.598 588.879 479.75 587.182C481.932 585.455 483.598 583.045 484.75 579.955C485.932 576.864 486.523 573.242 486.523 569.091C486.523 564.939 485.947 561.333 484.795 558.273C483.644 555.212 481.977 552.848 479.795 551.182C477.614 549.515 474.962 548.682 471.841 548.682C468.659 548.682 465.977 549.545 463.795 551.273C461.614 553 459.962 555.394 458.841 558.455C457.72 561.515 457.159 565.061 457.159 569.091C457.159 573.152 457.72 576.742 458.841 579.864C459.992 582.955 461.644 585.379 463.795 587.136C465.977 588.864 468.659 589.727 471.841 589.727ZM553.17 605.364C545.989 605.364 539.807 603.909 534.625 601C529.473 598.061 525.504 593.909 522.716 588.545C519.928 583.152 518.534 576.773 518.534 569.409C518.534 562.227 519.928 555.924 522.716 550.5C525.504 545.076 529.428 540.848 534.489 537.818C539.58 534.788 545.549 533.273 552.398 533.273C557.004 533.273 561.292 534.015 565.261 535.5C569.261 536.955 572.746 539.152 575.716 542.091C578.716 545.03 581.049 548.727 582.716 553.182C584.383 557.606 585.216 562.788 585.216 568.727V574.045H526.261V562.045H566.989C566.989 559.258 566.383 556.788 565.17 554.636C563.958 552.485 562.277 550.803 560.125 549.591C558.004 548.348 555.534 547.727 552.716 547.727C549.777 547.727 547.17 548.409 544.898 549.773C542.655 551.106 540.898 552.909 539.625 555.182C538.352 557.424 537.701 559.924 537.67 562.682V574.091C537.67 577.545 538.307 580.53 539.58 583.045C540.883 585.561 542.716 587.5 545.08 588.864C547.443 590.227 550.246 590.909 553.489 590.909C555.64 590.909 557.61 590.606 559.398 590C561.186 589.394 562.716 588.485 563.989 587.273C565.261 586.061 566.231 584.576 566.898 582.818L584.807 584C583.898 588.303 582.034 592.061 579.216 595.273C576.428 598.455 572.822 600.939 568.398 602.727C564.004 604.485 558.928 605.364 553.17 605.364ZM617.216 563.636V604H597.852V534.182H616.307V546.5H617.125C618.67 542.439 621.261 539.227 624.898 536.864C628.534 534.47 632.943 533.273 638.125 533.273C642.973 533.273 647.201 534.333 650.807 536.455C654.413 538.576 657.216 541.606 659.216 545.545C661.216 549.455 662.216 554.121 662.216 559.545V604H642.852V563C642.883 558.727 641.792 555.394 639.58 553C637.367 550.576 634.322 549.364 630.443 549.364C627.837 549.364 625.534 549.924 623.534 551.045C621.564 552.167 620.019 553.803 618.898 555.955C617.807 558.076 617.246 560.636 617.216 563.636ZM714.614 534.182V548.727H672.568V534.182H714.614ZM682.114 517.455H701.477V582.545C701.477 584.333 701.75 585.727 702.295 586.727C702.841 587.697 703.598 588.379 704.568 588.773C705.568 589.167 706.72 589.364 708.023 589.364C708.932 589.364 709.841 589.288 710.75 589.136C711.659 588.955 712.356 588.818 712.841 588.727L715.886 603.136C714.917 603.439 713.553 603.788 711.795 604.182C710.038 604.606 707.902 604.864 705.386 604.955C700.72 605.136 696.629 604.515 693.114 603.091C689.629 601.667 686.917 599.455 684.977 596.455C683.038 593.455 682.083 589.667 682.114 585.091V517.455Z" fill="url(#paint1_linear_69_52)"/>
<path d="M97.0909 510.909V509.909H96.0909V510.909H97.0909ZM116.773 510.909H117.773V509.909H116.773V510.909ZM111.909 589.182L111.066 588.645L111.063 588.648L111.909 589.182ZM98.4091 601.091L98.8469 601.99L98.8507 601.988L98.4091 601.091ZM57.9091 601.091L57.4675 601.988L57.4713 601.99L57.9091 601.091ZM44.4091 589.182L43.5634 589.715L43.5634 589.715L44.4091 589.182ZM39.5909 510.909V509.909H38.5909V510.909H39.5909ZM59.2727 510.909H60.2727V509.909H59.2727V510.909ZM61.5909 579.136L60.7185 579.625L60.7227 579.633L61.5909 579.136ZM68.2273 585.636L67.7432 586.511L67.7432 586.511L68.2273 585.636ZM88.1364 585.636L87.6523 584.761L87.6483 584.764L88.1364 585.636ZM94.7273 579.136L93.859 578.64L93.8549 578.647L94.7273 579.136ZM97.0909 511.909H116.773V509.909H97.0909V511.909ZM115.773 510.909V571.364H117.773V510.909H115.773ZM115.773 571.364C115.773 577.986 114.193 583.734 111.066 588.645L112.753 589.719C116.11 584.448 117.773 578.317 117.773 571.364H115.773ZM111.063 588.648C107.957 593.572 103.602 597.421 97.9675 600.194L98.8507 601.988C104.792 599.064 109.437 594.974 112.755 589.715L111.063 588.648ZM97.9713 600.192C92.344 602.932 85.7565 604.318 78.1818 604.318V606.318C86.0011 606.318 92.8985 604.886 98.8469 601.99L97.9713 600.192ZM78.1818 604.318C70.5762 604.318 63.9737 602.932 58.3469 600.192L57.4713 601.99C63.4202 604.887 70.3329 606.318 78.1818 606.318V604.318ZM58.3507 600.194C52.7161 597.421 48.3613 593.572 45.2548 588.648L43.5634 589.715C46.8811 594.974 51.5263 599.064 57.4675 601.988L58.3507 600.194ZM45.2548 588.648C42.1559 583.737 40.5909 577.987 40.5909 571.364H38.5909C38.5909 578.316 40.238 584.445 43.5634 589.715L45.2548 588.648ZM40.5909 571.364V510.909H38.5909V571.364H40.5909ZM39.5909 511.909H59.2727V509.909H39.5909V511.909ZM58.2727 510.909V569.682H60.2727V510.909H58.2727ZM58.2727 569.682C58.2727 573.377 59.0796 576.701 60.7186 579.625L62.4633 578.647C61.0113 576.057 60.2727 573.077 60.2727 569.682H58.2727ZM60.7227 579.633C62.3917 582.553 64.7386 584.849 67.7432 586.511L68.7113 584.761C66.019 583.272 63.9416 581.235 62.4592 578.64L60.7227 579.633ZM67.7432 586.511C70.7625 588.182 74.2525 589 78.1818 589V587C74.5354 587 71.389 586.243 68.7113 584.761L67.7432 586.511ZM78.1818 589C82.1396 589 85.632 588.182 88.6244 586.509L87.6483 584.764C85.0044 586.242 81.8604 587 78.1818 587V589ZM88.6204 586.511C91.6266 584.848 93.9604 582.55 95.5996 579.625L93.8549 578.647C92.4033 581.238 90.3431 583.273 87.6523 584.761L88.6204 586.511ZM95.5955 579.633C97.2673 576.707 98.0909 573.381 98.0909 569.682H96.0909C96.0909 573.074 95.3387 576.051 93.859 578.64L95.5955 579.633ZM98.0909 569.682V510.909H96.0909V569.682H98.0909ZM210.83 510.909H211.83V509.909H210.83V510.909ZM210.83 604V605H211.83V604H210.83ZM193.83 604L193.007 604.569L193.305 605H193.83V604ZM153.33 545.409L154.152 544.84L153.854 544.409H153.33V545.409ZM152.648 545.409V544.409H151.648V545.409H152.648ZM152.648 604V605H153.648V604H152.648ZM132.966 604H131.966V605H132.966V604ZM132.966 510.909V509.909H131.966V510.909H132.966ZM150.239 510.909L151.063 510.343L150.765 509.909H150.239V510.909ZM190.42 569.455L189.596 570.02L189.894 570.455H190.42V569.455ZM191.239 569.455V570.455H192.239V569.455H191.239ZM191.239 510.909V509.909H190.239V510.909H191.239ZM209.83 510.909V604H211.83V510.909H209.83ZM210.83 603H193.83V605H210.83V603ZM194.652 603.431L154.152 544.84L152.507 545.978L193.007 604.569L194.652 603.431ZM153.33 544.409H152.648V546.409H153.33V544.409ZM151.648 545.409V604H153.648V545.409H151.648ZM152.648 603H132.966V605H152.648V603ZM133.966 604V510.909H131.966V604H133.966ZM132.966 511.909H150.239V509.909H132.966V511.909ZM149.414 511.475L189.596 570.02L191.245 568.889L151.063 510.343L149.414 511.475ZM190.42 570.455H191.239V568.455H190.42V570.455ZM192.239 569.455V510.909H190.239V569.455H192.239ZM191.239 511.909H210.83V509.909H191.239V511.909ZM277.591 537.682L276.596 537.781L276.685 538.682H277.591V537.682ZM253.545 527.455L253.915 528.384L253.926 528.379L253.545 527.455ZM248.455 531.136L247.654 530.536L247.647 530.546L248.455 531.136ZM246.727 536.5L247.727 536.536L247.727 536.518V536.5H246.727ZM247.773 540.864L246.919 541.384L246.924 541.392L246.928 541.399L247.773 540.864ZM251 544.091L250.445 544.923L250.452 544.927L250.458 544.931L251 544.091ZM255.727 546.409L255.378 547.346L255.385 547.349L255.392 547.351L255.727 546.409ZM261.455 548.045L261.687 547.073L261.68 547.071L261.673 547.07L261.455 548.045ZM269.818 550.045L269.586 551.018L269.593 551.02L269.6 551.021L269.818 550.045ZM281 553.682L280.592 554.595L280.592 554.595L281 553.682ZM289.818 559.273L290.483 558.526L290.483 558.526L289.818 559.273ZM295.591 567.091L294.681 567.505L294.684 567.512L295.591 567.091ZM297.727 577.409L298.727 577.414L298.727 577.401L297.727 577.409ZM293.364 592.227L292.54 591.66L292.539 591.662L293.364 592.227ZM281 601.909L281.39 602.83L281.393 602.829L281 601.909ZM241.955 601.864L241.571 602.787L241.573 602.788L241.955 601.864ZM228.955 591.636L228.128 592.199L228.132 592.205L228.955 591.636ZM224.091 574.773V573.773H223.068L223.091 574.795L224.091 574.773ZM243.136 574.773L244.134 574.705L244.071 573.773H243.136V574.773ZM245.818 582.591L245.02 583.193L245.024 583.199L245.029 583.206L245.818 582.591ZM252.227 587.273L251.858 588.202L251.87 588.207L252.227 587.273ZM270.045 587.364L269.682 586.432L269.678 586.434L270.045 587.364ZM275.818 583.318L276.603 583.938L276.603 583.938L275.818 583.318ZM276 572.091L275.238 572.739L275.246 572.748L276 572.091ZM270.636 568.455L270.242 569.374L270.247 569.376L270.636 568.455ZM262.045 565.727L261.802 566.697L261.811 566.699L262.045 565.727ZM251.909 563.182L252.153 562.212L252.145 562.21L251.909 563.182ZM233.318 554.227L232.652 554.973L232.652 554.973L233.318 554.227ZM226.545 537.818L227.545 537.823L227.545 537.813L226.545 537.818ZM231.045 523.045L230.236 522.458L230.234 522.461L231.045 523.045ZM279.909 513.182L279.492 514.091L279.494 514.092L279.909 513.182ZM292 523.045L291.174 523.61L291.174 523.61L292 523.045ZM296.455 537.682V538.682H297.471L297.454 537.665L296.455 537.682ZM278.586 537.583C278.197 533.659 276.506 530.543 273.502 528.331L272.316 529.942C274.827 531.79 276.258 534.372 276.596 537.781L278.586 537.583ZM273.502 528.331C270.518 526.134 266.543 525.091 261.682 525.091V527.091C266.275 527.091 269.785 528.078 272.316 529.942L273.502 528.331ZM261.682 525.091C258.381 525.091 255.532 525.557 253.165 526.53L253.926 528.379C255.983 527.534 258.558 527.091 261.682 527.091V525.091ZM253.176 526.525C250.829 527.458 248.968 528.785 247.655 530.536L249.255 531.736C250.305 530.336 251.838 529.209 253.915 528.384L253.176 526.525ZM247.647 530.546C246.367 532.298 245.727 534.294 245.727 536.5H247.727C247.727 534.706 248.239 533.126 249.262 531.726L247.647 530.546ZM245.728 536.464C245.661 538.297 246.045 539.951 246.919 541.384L248.627 540.343C247.985 539.291 247.672 538.037 247.727 536.536L245.728 536.464ZM246.928 541.399C247.799 542.772 248.979 543.945 250.445 544.923L251.555 543.259C250.294 542.418 249.322 541.44 248.617 540.328L246.928 541.399ZM250.458 544.931C251.892 545.855 253.534 546.659 255.378 547.346L256.077 545.472C254.345 544.826 252.835 544.084 251.542 543.25L250.458 544.931ZM255.392 547.351C257.221 548.002 259.17 548.559 261.236 549.021L261.673 547.07C259.679 546.623 257.809 546.089 256.063 545.467L255.392 547.351ZM261.222 549.018L269.586 551.018L270.051 549.073L261.687 547.073L261.222 549.018ZM269.6 551.021C273.603 551.918 277.266 553.11 280.592 554.595L281.408 552.769C277.946 551.223 274.155 549.992 270.037 549.07L269.6 551.021ZM280.592 554.595C283.903 556.073 286.754 557.883 289.153 560.02L290.483 558.526C287.913 556.238 284.885 554.321 281.408 552.769L280.592 554.595ZM289.153 560.02C291.535 562.14 293.375 564.633 294.681 567.505L296.501 566.677C295.079 563.549 293.071 560.83 290.483 558.526L289.153 560.02ZM294.684 567.512C296.008 570.362 296.698 573.657 296.727 577.417L298.727 577.401C298.696 573.404 297.961 569.82 296.498 566.67L294.684 567.512ZM296.727 577.404C296.698 582.925 295.291 587.664 292.54 591.66L294.187 592.794C297.194 588.427 298.696 583.287 298.727 577.414L296.727 577.404ZM292.539 591.662C289.815 595.632 285.856 598.748 280.607 600.989L281.393 602.829C286.932 600.464 291.216 597.126 294.188 592.793L292.539 591.662ZM280.61 600.988C275.401 603.196 269.071 604.318 261.591 604.318V606.318C269.262 606.318 275.872 605.168 281.39 602.83L280.61 600.988ZM261.591 604.318C254.176 604.318 247.765 603.182 242.336 600.939L241.573 602.788C247.295 605.152 253.976 606.318 261.591 606.318V604.318ZM242.338 600.94C236.953 598.704 232.779 595.41 229.777 591.068L228.132 592.205C231.373 596.893 235.865 600.418 241.571 602.787L242.338 600.94ZM229.781 591.074C226.821 586.72 225.239 581.297 225.091 574.75L223.091 574.795C223.246 581.643 224.907 587.462 228.128 592.199L229.781 591.074ZM224.091 575.773H243.136V573.773H224.091V575.773ZM242.139 574.841C242.361 578.117 243.306 580.919 245.02 583.193L246.617 581.989C245.179 580.081 244.336 577.671 244.134 574.705L242.139 574.841ZM245.029 583.206C246.755 585.42 249.043 587.082 251.858 588.202L252.597 586.344C250.079 585.342 248.093 583.883 246.607 581.976L245.029 583.206ZM251.87 588.207C254.699 589.288 257.869 589.818 261.364 589.818V587.818C258.071 587.818 255.149 587.318 252.584 586.339L251.87 588.207ZM261.364 589.818C264.791 589.818 267.815 589.32 270.413 588.294L269.678 586.434C267.367 587.347 264.603 587.818 261.364 587.818V589.818ZM270.409 588.295C273.024 587.275 275.108 585.832 276.603 583.938L275.033 582.699C273.801 584.259 272.036 585.513 269.682 586.432L270.409 588.295ZM276.603 583.938C278.109 582.03 278.864 579.826 278.864 577.364H276.864C276.864 579.386 276.255 581.151 275.033 582.699L276.603 583.938ZM278.864 577.364C278.864 575.059 278.172 573.06 276.754 571.434L275.246 572.748C276.313 573.971 276.864 575.487 276.864 577.364H278.864ZM276.762 571.443C275.418 569.864 273.483 568.573 271.026 567.534L270.247 569.376C272.517 570.336 274.158 571.469 275.238 572.739L276.762 571.443ZM271.03 567.535C268.63 566.507 265.71 565.582 262.28 564.755L261.811 566.699C265.169 567.509 267.976 568.402 270.242 569.374L271.03 567.535ZM262.289 564.757L252.153 562.212L251.666 564.152L261.802 566.697L262.289 564.757ZM252.145 562.21C244.407 560.328 238.374 557.403 233.984 553.482L232.652 554.973C237.353 559.173 243.715 562.218 251.673 564.153L252.145 562.21ZM233.984 553.482C229.681 549.637 227.516 544.456 227.545 537.823L225.545 537.814C225.514 544.938 227.864 550.696 232.652 554.973L233.984 553.482ZM227.545 537.813C227.516 532.369 228.961 527.655 231.857 523.629L230.234 522.461C227.069 526.86 225.514 531.995 225.545 537.824L227.545 537.813ZM231.854 523.633C234.799 519.58 238.849 516.397 244.042 514.096L243.231 512.268C237.757 514.694 233.413 518.086 230.236 522.458L231.854 523.633ZM244.042 514.096C249.228 511.797 255.147 510.636 261.818 510.636V508.636C254.913 508.636 248.711 509.839 243.231 512.268L244.042 514.096ZM261.818 510.636C268.614 510.636 274.497 511.799 279.492 514.091L280.326 512.273C275.018 509.838 268.84 508.636 261.818 508.636V510.636ZM279.494 514.092C284.53 516.389 288.41 519.565 291.174 523.61L292.826 522.481C289.832 518.102 285.652 514.702 280.324 512.272L279.494 514.092ZM291.174 523.61C293.933 527.646 295.367 532.331 295.455 537.698L297.454 537.665C297.361 531.942 295.824 526.869 292.826 522.481L291.174 523.61ZM296.455 536.682H277.591V538.682H296.455V536.682ZM347.739 534.182H348.739V533.182H347.739V534.182ZM347.739 548.727V549.727H348.739V548.727H347.739ZM305.693 548.727H304.693V549.727H305.693V548.727ZM305.693 534.182V533.182H304.693V534.182H305.693ZM315.239 517.455V516.455H314.239V517.455H315.239ZM334.602 517.455H335.602V516.455H334.602V517.455ZM335.42 586.727L334.542 587.206L334.549 587.218L335.42 586.727ZM337.693 588.773L337.317 589.699L337.327 589.703L337.693 588.773ZM343.875 589.136L344.039 590.123L344.055 590.12L344.071 590.117L343.875 589.136ZM345.966 588.727L346.944 588.52L346.742 587.564L345.782 587.744L345.966 588.727ZM349.011 603.136L349.31 604.091L350.178 603.82L349.99 602.93L349.011 603.136ZM344.92 604.182L344.702 603.206L344.694 603.208L344.686 603.21L344.92 604.182ZM338.511 604.955L338.475 603.955L338.472 603.955L338.511 604.955ZM326.239 603.091L325.86 604.017L325.863 604.018L326.239 603.091ZM318.102 596.455L318.942 595.912L318.942 595.912L318.102 596.455ZM315.239 585.091L316.239 585.098V585.091H315.239ZM346.739 534.182V548.727H348.739V534.182H346.739ZM347.739 547.727H305.693V549.727H347.739V547.727ZM306.693 548.727V534.182H304.693V548.727H306.693ZM305.693 535.182H347.739V533.182H305.693V535.182ZM315.239 518.455H334.602V516.455H315.239V518.455ZM333.602 517.455V582.545H335.602V517.455H333.602ZM333.602 582.545C333.602 584.414 333.884 585.999 334.543 587.206L336.298 586.248C335.866 585.456 335.602 584.252 335.602 582.545H333.602ZM334.549 587.218C335.198 588.371 336.124 589.214 337.317 589.699L338.07 587.846C337.323 587.543 336.734 587.023 336.292 586.237L334.549 587.218ZM337.327 589.703C338.465 590.152 339.745 590.364 341.148 590.364V588.364C339.944 588.364 338.921 588.182 338.06 587.842L337.327 589.703ZM341.148 590.364C342.113 590.364 343.077 590.283 344.039 590.123L343.711 588.15C342.855 588.293 342.001 588.364 341.148 588.364V590.364ZM344.071 590.117C344.979 589.935 345.671 589.8 346.15 589.71L345.782 587.744C345.291 587.836 344.589 587.974 343.679 588.156L344.071 590.117ZM344.988 588.934L348.033 603.343L349.99 602.93L346.944 588.52L344.988 588.934ZM348.713 602.182C347.782 602.473 346.45 602.814 344.702 603.206L345.139 605.158C346.907 604.761 348.301 604.406 349.31 604.091L348.713 602.182ZM344.686 603.21C343.013 603.614 340.947 603.866 338.475 603.955L338.547 605.954C341.106 605.861 343.313 605.599 345.155 605.154L344.686 603.21ZM338.472 603.955C333.916 604.133 329.971 603.524 326.614 602.164L325.863 604.018C329.536 605.506 333.774 606.14 338.55 605.954L338.472 603.955ZM326.617 602.165C323.311 600.814 320.764 598.73 318.942 595.912L317.262 596.997C319.319 600.179 322.197 602.519 325.86 604.017L326.617 602.165ZM318.942 595.912C317.135 593.116 316.209 589.533 316.239 585.098L314.239 585.084C314.207 589.801 315.191 593.793 317.262 596.997L318.942 595.912ZM316.239 585.091V517.455H314.239V585.091H316.239ZM405.125 574.273H404.125L404.125 574.282L405.125 574.273ZM405.125 534.182V533.182H404.125V534.182H405.125ZM424.489 534.182H425.489V533.182H424.489V534.182ZM424.489 604V605H425.489V604H424.489ZM405.898 604H404.898V605H405.898V604ZM405.898 591.318H406.898V590.318H405.898V591.318ZM405.17 591.318V590.318H404.484L404.237 590.959L405.17 591.318ZM397.307 601.182L396.746 600.354L396.743 600.356L397.307 601.182ZM371.67 601.727L372.184 600.869L372.184 600.869L371.67 601.727ZM363.352 592.682L362.459 593.132L362.462 593.137L363.352 592.682ZM360.352 578.636H359.352L359.352 578.642L360.352 578.636ZM360.352 534.182V533.182H359.352V534.182H360.352ZM379.716 534.182H380.716V533.182H379.716V534.182ZM379.716 575.182H378.716L378.716 575.189L379.716 575.182ZM383.034 584.955L383.773 584.281L383.773 584.281L383.034 584.955ZM398.352 586.955L398.815 587.841L398.826 587.835L398.352 586.955ZM403.261 582.136L402.404 581.622L402.398 581.631L403.261 582.136ZM406.125 574.273V534.182H404.125V574.273H406.125ZM405.125 535.182H424.489V533.182H405.125V535.182ZM423.489 534.182V604H425.489V534.182H423.489ZM424.489 603H405.898V605H424.489V603ZM406.898 604V591.318H404.898V604H406.898ZM405.898 590.318H405.17V592.318H405.898V590.318ZM404.237 590.959C402.736 594.857 400.245 597.982 396.746 600.354L397.868 602.01C401.702 599.412 404.454 595.961 406.104 591.678L404.237 590.959ZM396.743 600.356C393.302 602.707 389.069 603.909 383.989 603.909V605.909C389.393 605.909 394.039 604.626 397.871 602.007L396.743 600.356ZM383.989 603.909C379.479 603.909 375.555 602.886 372.184 600.869L371.157 602.585C374.877 604.811 379.165 605.909 383.989 605.909V603.909ZM372.184 600.869C368.81 598.85 366.163 595.979 364.243 592.226L362.462 593.137C364.542 597.202 367.44 600.362 371.157 602.585L372.184 600.869ZM364.245 592.232C362.36 588.49 361.382 583.968 361.352 578.631L359.352 578.642C359.383 584.214 360.405 589.055 362.459 593.132L364.245 592.232ZM361.352 578.636V534.182H359.352V578.636H361.352ZM360.352 535.182H379.716V533.182H360.352V535.182ZM378.716 534.182V575.182H380.716V534.182H378.716ZM378.716 575.189C378.748 579.488 379.906 583.006 382.295 585.628L383.773 584.281C381.799 582.115 380.745 579.118 380.716 575.174L378.716 575.189ZM382.295 585.628C384.692 588.259 387.9 589.545 391.807 589.545V587.545C388.38 587.545 385.74 586.438 383.773 584.281L382.295 585.628ZM391.807 589.545C394.298 589.545 396.639 588.978 398.815 587.841L397.889 586.068C396.005 587.053 393.982 587.545 391.807 587.545V589.545ZM398.826 587.835C401.029 586.652 402.795 584.911 404.124 582.642L402.398 581.631C401.243 583.605 399.737 585.076 397.879 586.074L398.826 587.835ZM404.119 582.651C405.508 580.335 406.157 577.521 406.125 574.263L404.125 574.282C404.154 577.267 403.56 579.695 402.404 581.622L404.119 582.651ZM451.295 601.045L450.753 601.886L450.76 601.89L451.295 601.045ZM441.114 588.909L440.206 589.329L440.209 589.336L441.114 588.909ZM441.25 549.227L442.15 549.664L442.15 549.662L441.25 549.227ZM451.523 537.273L452.048 538.124L452.049 538.123L451.523 537.273ZM475.432 535.273L474.976 536.163L474.989 536.169L475.432 535.273ZM481.795 540.182L481.02 540.814L481.026 540.82L481.031 540.827L481.795 540.182ZM485.523 545.909L484.611 546.321L484.877 546.909H485.523V545.909ZM486.114 545.909V546.909H487.114V545.909H486.114ZM486.114 510.909V509.909H485.114V510.909H486.114ZM505.432 510.909H506.432V509.909H505.432V510.909ZM505.432 604V605H506.432V604H505.432ZM486.341 604H485.341V605H486.341V604ZM486.341 592.818H487.341V591.818H486.341V592.818ZM485.523 592.818V591.818H484.887L484.617 592.394L485.523 592.818ZM481.659 598.591L480.906 597.933L480.905 597.934L481.659 598.591ZM475.25 603.273L474.824 602.368L474.82 602.37L475.25 603.273ZM479.75 587.182L480.369 587.967L480.371 587.966L479.75 587.182ZM484.75 579.955L483.816 579.597L483.813 579.605L484.75 579.955ZM484.795 558.273L485.731 557.921L485.731 557.921L484.795 558.273ZM463.795 551.273L463.175 550.489L463.175 550.489L463.795 551.273ZM458.841 579.864L457.9 580.202L457.904 580.213L458.841 579.864ZM463.795 587.136L463.163 587.911L463.169 587.916L463.175 587.92L463.795 587.136ZM465.705 604.136C460.583 604.136 455.967 602.822 451.831 600.201L450.76 601.89C455.23 604.723 460.22 606.136 465.705 606.136V604.136ZM451.838 600.205C447.746 597.564 444.467 593.674 442.018 588.483L440.209 589.336C442.791 594.811 446.3 599.011 450.753 601.886L451.838 600.205ZM442.021 588.489C439.613 583.292 438.386 576.869 438.386 569.182H436.386C436.386 577.071 437.644 583.799 440.206 589.329L442.021 588.489ZM438.386 569.182C438.386 561.282 439.659 554.791 442.15 549.664L440.35 548.79C437.689 554.269 436.386 561.082 436.386 569.182H438.386ZM442.15 549.662C444.658 544.469 447.965 540.643 452.048 538.124L450.998 536.422C446.535 539.175 442.993 543.319 440.35 548.792L442.15 549.662ZM452.049 538.123C456.192 535.555 460.722 534.273 465.659 534.273V532.273C460.354 532.273 455.459 533.657 450.996 536.423L452.049 538.123ZM465.659 534.273C469.461 534.273 472.55 534.922 474.976 536.163L475.887 534.382C473.101 532.957 469.676 532.273 465.659 532.273V534.273ZM474.989 536.169C477.517 537.419 479.518 538.971 481.02 540.814L482.57 539.55C480.861 537.453 478.62 535.733 475.875 534.376L474.989 536.169ZM481.031 540.827C482.621 542.711 483.808 544.543 484.611 546.321L486.434 545.498C485.54 543.518 484.243 541.531 482.56 539.537L481.031 540.827ZM485.523 546.909H486.114V544.909H485.523V546.909ZM487.114 545.909V510.909H485.114V545.909H487.114ZM486.114 511.909H505.432V509.909H486.114V511.909ZM504.432 510.909V604H506.432V510.909H504.432ZM505.432 603H486.341V605H505.432V603ZM487.341 604V592.818H485.341V604H487.341ZM486.341 591.818H485.523V593.818H486.341V591.818ZM484.617 592.394C483.754 594.235 482.522 596.082 480.906 597.933L482.412 599.249C484.13 597.282 485.473 595.28 486.428 593.243L484.617 592.394ZM480.905 597.934C479.374 599.692 477.356 601.175 474.824 602.368L475.676 604.177C478.417 602.886 480.672 601.247 482.413 599.248L480.905 597.934ZM474.82 602.37C472.382 603.532 469.356 604.136 465.705 604.136V606.136C469.568 606.136 472.906 605.498 475.68 604.175L474.82 602.37ZM471.841 590.727C475.154 590.727 478.017 589.822 480.369 587.967L479.131 586.397C477.18 587.935 474.77 588.727 471.841 588.727V590.727ZM480.371 587.966C482.72 586.106 484.484 583.534 485.687 580.304L483.813 579.605C482.713 582.557 481.143 584.803 479.129 586.398L480.371 587.966ZM485.684 580.312C486.919 577.082 487.523 573.335 487.523 569.091H485.523C485.523 573.15 484.945 576.645 483.816 579.597L485.684 580.312ZM487.523 569.091C487.523 564.85 486.935 561.12 485.731 557.921L483.86 558.625C484.959 561.547 485.523 565.029 485.523 569.091H487.523ZM485.731 557.921C484.527 554.718 482.76 552.188 480.402 550.387L479.188 551.976C481.195 553.509 482.761 555.706 483.86 558.625L485.731 557.921ZM480.402 550.387C478.023 548.569 475.15 547.682 471.841 547.682V549.682C474.774 549.682 477.204 550.461 479.188 551.976L480.402 550.387ZM471.841 547.682C468.468 547.682 465.558 548.602 463.175 550.489L464.416 552.057C466.396 550.489 468.85 549.682 471.841 549.682V547.682ZM463.175 550.489C460.825 552.349 459.076 554.907 457.902 558.111L459.78 558.799C460.849 555.881 462.402 553.651 464.416 552.057L463.175 550.489ZM457.902 558.111C456.732 561.304 456.159 564.97 456.159 569.091H458.159C458.159 565.151 458.707 561.726 459.78 558.799L457.902 558.111ZM456.159 569.091C456.159 573.242 456.732 576.951 457.9 580.202L459.782 579.526C458.707 576.534 458.159 573.061 458.159 569.091H456.159ZM457.904 580.213C459.106 583.439 460.85 586.022 463.163 587.911L464.428 586.362C462.438 584.736 460.879 582.47 459.778 579.515L457.904 580.213ZM463.175 587.92C465.558 589.807 468.468 590.727 471.841 590.727V588.727C468.85 588.727 466.396 587.92 464.416 586.352L463.175 587.92ZM534.625 601L534.129 601.869L534.135 601.872L534.625 601ZM522.716 588.545L521.828 589.005L521.829 589.007L522.716 588.545ZM522.716 550.5L521.827 550.043L521.827 550.043L522.716 550.5ZM534.489 537.818L533.977 536.959L533.975 536.96L534.489 537.818ZM565.261 535.5L564.911 536.437L564.92 536.44L565.261 535.5ZM575.716 542.091L575.012 542.802L575.016 542.805L575.716 542.091ZM582.716 553.182L581.779 553.532L581.78 553.534L582.716 553.182ZM585.216 574.045V575.045H586.216V574.045H585.216ZM526.261 574.045H525.261V575.045H526.261V574.045ZM526.261 562.045V561.045H525.261V562.045H526.261ZM566.989 562.045V563.045H567.989V562.045H566.989ZM565.17 554.636L564.299 555.127L564.299 555.127L565.17 554.636ZM560.125 549.591L559.62 550.454L559.627 550.458L559.634 550.462L560.125 549.591ZM544.898 549.773L545.409 550.632L545.412 550.63L544.898 549.773ZM539.625 555.182L540.495 555.675L540.498 555.67L539.625 555.182ZM537.67 562.682L536.67 562.671V562.682H537.67ZM539.58 583.045L538.687 583.497L538.692 583.505L539.58 583.045ZM559.398 590L559.077 589.053L559.077 589.053L559.398 590ZM563.989 587.273L563.299 586.549L563.299 586.549L563.989 587.273ZM566.898 582.818L566.964 581.82L566.225 581.772L565.963 582.464L566.898 582.818ZM584.807 584L585.785 584.207L586.024 583.078L584.873 583.002L584.807 584ZM579.216 595.273L578.464 594.613L578.464 594.614L579.216 595.273ZM568.398 602.727L568.769 603.656L568.772 603.654L568.398 602.727ZM553.17 604.364C546.124 604.364 540.119 602.937 535.115 600.128L534.135 601.872C539.495 604.881 545.853 606.364 553.17 606.364V604.364ZM535.121 600.131C530.139 597.289 526.304 593.281 523.603 588.084L521.829 589.007C524.703 594.537 528.808 598.832 534.129 601.869L535.121 600.131ZM523.604 588.086C520.904 582.861 519.534 576.647 519.534 569.409H517.534C517.534 576.899 518.952 583.442 521.828 589.005L523.604 588.086ZM519.534 569.409C519.534 562.358 520.902 556.217 523.605 550.957L521.827 550.043C518.954 555.632 517.534 562.096 517.534 569.409H519.534ZM523.605 550.957C526.311 545.693 530.108 541.607 535.002 538.676L533.975 536.96C528.748 540.09 524.697 544.459 521.827 550.043L523.605 550.957ZM535 538.677C539.914 535.753 545.701 534.273 552.398 534.273V532.273C545.398 532.273 539.246 533.823 533.977 536.959L535 538.677ZM552.398 534.273C556.895 534.273 561.063 534.997 564.911 536.437L565.612 534.563C561.521 533.033 557.113 532.273 552.398 532.273V534.273ZM564.92 536.44C568.787 537.846 572.147 539.966 575.012 542.802L576.419 541.38C573.345 538.337 569.736 536.063 565.603 534.56L564.92 536.44ZM575.016 542.805C577.898 545.629 580.157 549.197 581.779 553.532L583.653 552.831C581.941 548.258 579.533 544.431 576.416 541.377L575.016 542.805ZM581.78 553.534C583.395 557.821 584.216 562.879 584.216 568.727H586.216C586.216 562.697 585.37 557.391 583.652 552.829L581.78 553.534ZM584.216 568.727V574.045H586.216V568.727H584.216ZM585.216 573.045H526.261V575.045H585.216V573.045ZM527.261 574.045V562.045H525.261V574.045H527.261ZM526.261 563.045H566.989V561.045H526.261V563.045ZM567.989 562.045C567.989 559.108 567.349 556.465 566.042 554.146L564.299 555.127C565.417 557.11 565.989 559.407 565.989 562.045H567.989ZM566.042 554.146C564.74 551.835 562.927 550.021 560.616 548.72L559.634 550.462C561.627 551.585 563.177 553.135 564.299 555.127L566.042 554.146ZM560.63 548.728C558.335 547.383 555.685 546.727 552.716 546.727V548.727C555.383 548.727 557.673 549.314 559.62 550.454L560.63 548.728ZM552.716 546.727C549.616 546.727 546.828 547.448 544.383 548.915L545.412 550.63C547.513 549.37 549.937 548.727 552.716 548.727V546.727ZM544.387 548.913C541.994 550.336 540.111 552.267 538.752 554.693L540.498 555.67C541.684 553.551 543.317 551.876 545.409 550.632L544.387 548.913ZM538.755 554.688C537.393 557.088 536.703 559.756 536.671 562.671L538.67 562.693C538.699 560.092 539.311 557.76 540.495 555.675L538.755 554.688ZM536.67 562.682V574.091H538.67V562.682H536.67ZM536.67 574.091C536.67 577.668 537.33 580.814 538.687 583.497L540.472 582.594C539.284 580.247 538.67 577.423 538.67 574.091H536.67ZM538.692 583.505C540.079 586.184 542.044 588.267 544.58 589.73L545.579 587.997C543.388 586.733 541.686 584.938 540.467 582.585L538.692 583.505ZM544.58 589.73C547.122 591.196 550.104 591.909 553.489 591.909V589.909C550.388 589.909 547.765 589.258 545.579 587.997L544.58 589.73ZM553.489 591.909C555.734 591.909 557.814 591.593 559.719 590.947L559.077 589.053C557.406 589.619 555.546 589.909 553.489 589.909V591.909ZM559.719 590.947C561.634 590.298 563.293 589.316 564.678 587.997L563.299 586.549C562.139 587.653 560.737 588.49 559.077 589.053L559.719 590.947ZM564.678 587.997C566.067 586.674 567.117 585.06 567.833 583.173L565.963 582.464C565.345 584.091 564.456 585.447 563.299 586.549L564.678 587.997ZM566.832 583.816L584.741 584.998L584.873 583.002L566.964 581.82L566.832 583.816ZM583.828 583.793C582.954 587.934 581.166 591.534 578.464 594.613L579.968 595.932C582.902 592.587 584.842 588.673 585.785 584.207L583.828 583.793ZM578.464 594.614C575.792 597.664 572.321 600.063 568.023 601.8L568.772 603.654C573.323 601.815 577.065 599.246 579.968 595.932L578.464 594.614ZM568.026 601.799C563.773 603.5 558.828 604.364 553.17 604.364V606.364C559.028 606.364 564.234 605.47 568.769 603.656L568.026 601.799ZM617.216 563.636L616.216 563.626V563.636H617.216ZM617.216 604V605H618.216V604H617.216ZM597.852 604H596.852V605H597.852V604ZM597.852 534.182V533.182H596.852V534.182H597.852ZM616.307 534.182H617.307V533.182H616.307V534.182ZM616.307 546.5H615.307V547.5H616.307V546.5ZM617.125 546.5V547.5H617.814L618.06 546.856L617.125 546.5ZM624.898 536.864L625.443 537.702L625.448 537.699L624.898 536.864ZM650.807 536.455L651.314 535.593L650.807 536.455ZM659.216 545.545L658.324 545.998L658.326 546.001L659.216 545.545ZM662.216 604V605H663.216V604H662.216ZM642.852 604H641.852V605H642.852V604ZM642.852 563L641.852 562.993V563H642.852ZM639.58 553L638.841 553.674L638.845 553.679L639.58 553ZM623.534 551.045L623.045 550.173L623.039 550.176L623.534 551.045ZM618.898 555.955L618.011 555.492L618.008 555.497L618.898 555.955ZM616.216 563.636V604H618.216V563.636H616.216ZM617.216 603H597.852V605H617.216V603ZM598.852 604V534.182H596.852V604H598.852ZM597.852 535.182H616.307V533.182H597.852V535.182ZM615.307 534.182V546.5H617.307V534.182H615.307ZM616.307 547.5H617.125V545.5H616.307V547.5ZM618.06 546.856C619.53 542.993 621.984 539.95 625.443 537.702L624.353 536.025C620.538 538.505 617.811 541.886 616.19 546.144L618.06 546.856ZM625.448 537.699C628.892 535.431 633.101 534.273 638.125 534.273V532.273C632.786 532.273 628.176 533.508 624.348 536.028L625.448 537.699ZM638.125 534.273C642.824 534.273 646.87 535.299 650.3 537.316L651.314 535.593C647.531 533.367 643.123 532.273 638.125 532.273V534.273ZM650.3 537.316C653.732 539.335 656.406 542.219 658.324 545.998L660.108 545.093C658.026 540.993 655.094 537.816 651.314 535.593L650.3 537.316ZM658.326 546.001C660.239 549.74 661.216 554.243 661.216 559.545H663.216C663.216 553.999 662.193 549.169 660.106 545.09L658.326 546.001ZM661.216 559.545V604H663.216V559.545H661.216ZM662.216 603H642.852V605H662.216V603ZM643.852 604V563H641.852V604H643.852ZM643.852 563.007C643.884 558.562 642.747 554.954 640.314 552.321L638.845 553.679C640.837 555.834 641.881 558.893 641.852 562.993L643.852 563.007ZM640.318 552.326C637.882 549.656 634.547 548.364 630.443 548.364V550.364C634.097 550.364 636.853 551.495 638.841 553.674L640.318 552.326ZM630.443 548.364C627.69 548.364 625.214 548.957 623.045 550.173L624.023 551.918C625.854 550.891 627.985 550.364 630.443 550.364V548.364ZM623.039 550.176C620.891 551.399 619.214 553.183 618.011 555.492L619.785 556.417C620.823 554.423 622.238 552.934 624.029 551.915L623.039 550.176ZM618.008 555.497C616.83 557.788 616.247 560.51 616.216 563.626L618.216 563.646C618.245 560.763 618.783 558.364 619.787 556.412L618.008 555.497ZM714.614 534.182H715.614V533.182H714.614V534.182ZM714.614 548.727V549.727H715.614V548.727H714.614ZM672.568 548.727H671.568V549.727H672.568V548.727ZM672.568 534.182V533.182H671.568V534.182H672.568ZM682.114 517.455V516.455H681.114V517.455H682.114ZM701.477 517.455H702.477V516.455H701.477V517.455ZM702.295 586.727L701.417 587.206L701.424 587.218L702.295 586.727ZM704.568 588.773L704.192 589.699L704.202 589.703L704.568 588.773ZM710.75 589.136L710.914 590.123L710.93 590.12L710.946 590.117L710.75 589.136ZM712.841 588.727L713.819 588.52L713.617 587.564L712.657 587.744L712.841 588.727ZM715.886 603.136L716.185 604.091L717.053 603.82L716.865 602.93L715.886 603.136ZM711.795 604.182L711.577 603.206L711.569 603.208L711.561 603.21L711.795 604.182ZM705.386 604.955L705.35 603.955L705.347 603.955L705.386 604.955ZM693.114 603.091L692.735 604.017L692.738 604.018L693.114 603.091ZM684.977 596.455L685.817 595.912L685.817 595.912L684.977 596.455ZM682.114 585.091L683.114 585.098V585.091H682.114ZM713.614 534.182V548.727H715.614V534.182H713.614ZM714.614 547.727H672.568V549.727H714.614V547.727ZM673.568 548.727V534.182H671.568V548.727H673.568ZM672.568 535.182H714.614V533.182H672.568V535.182ZM682.114 518.455H701.477V516.455H682.114V518.455ZM700.477 517.455V582.545H702.477V517.455H700.477ZM700.477 582.545C700.477 584.414 700.759 585.999 701.418 587.206L703.173 586.248C702.741 585.456 702.477 584.252 702.477 582.545H700.477ZM701.424 587.218C702.073 588.371 702.999 589.214 704.192 589.699L704.945 587.846C704.198 587.543 703.609 587.023 703.167 586.237L701.424 587.218ZM704.202 589.703C705.34 590.152 706.62 590.364 708.023 590.364V588.364C706.819 588.364 705.796 588.182 704.935 587.842L704.202 589.703ZM708.023 590.364C708.988 590.364 709.952 590.283 710.914 590.123L710.586 588.15C709.73 588.293 708.876 588.364 708.023 588.364V590.364ZM710.946 590.117C711.854 589.935 712.546 589.8 713.025 589.71L712.657 587.744C712.166 587.836 711.464 587.974 710.554 588.156L710.946 590.117ZM711.863 588.934L714.908 603.343L716.865 602.93L713.819 588.52L711.863 588.934ZM715.588 602.182C714.657 602.473 713.325 602.814 711.577 603.206L712.014 605.158C713.782 604.761 715.176 604.406 716.185 604.091L715.588 602.182ZM711.561 603.21C709.888 603.614 707.822 603.866 705.35 603.955L705.422 605.954C707.981 605.861 710.188 605.599 712.03 605.154L711.561 603.21ZM705.347 603.955C700.791 604.133 696.846 603.524 693.489 602.164L692.738 604.018C696.411 605.506 700.649 606.14 705.425 605.954L705.347 603.955ZM693.492 602.165C690.186 600.814 687.639 598.73 685.817 595.912L684.137 596.997C686.194 600.179 689.072 602.519 692.735 604.017L693.492 602.165ZM685.817 595.912C684.01 593.116 683.084 589.533 683.114 585.098L681.114 585.084C681.082 589.801 682.066 593.793 684.137 596.997L685.817 595.912ZM683.114 585.091V517.455H681.114V585.091H683.114Z" fill="black" mask="url(#path-38-outside-1_69_52)"/>
</g>
<defs>
<filter id="filter0_dd_69_52" x="11.5909" y="497.636" width="732.295" height="151.727" filterUnits="userSpaceOnUse" color-interpolation-filters="sRGB">
<feFlood flood-opacity="0" result="BackgroundImageFix"/>
<feColorMatrix in="SourceAlpha" type="matrix" values="0 0 0 0 0 0 0 0 0 0 0 0 0 0 0 0 0 0 127 0" result="hardAlpha"/>
<feMorphology radius="4" operator="erode" in="SourceAlpha" result="effect1_dropShadow_69_52"/>
<feOffset dy="4"/>
<feGaussianBlur stdDeviation="2"/>
<feComposite in2="hardAlpha" operator="out"/>
<feColorMatrix type="matrix" values="0 0 0 0 0.0470588 0 0 0 0 0.0470588 0 0 0 0 0.0509804 0 0 0 0.05 0"/>
<feBlend mode="normal" in2="BackgroundImageFix" result="effect1_dropShadow_69_52"/>
<feColorMatrix in="SourceAlpha" type="matrix" values="0 0 0 0 0 0 0 0 0 0 0 0 0 0 0 0 0 0 127 0" result="hardAlpha"/>
<feMorphology radius="4" operator="erode" in="SourceAlpha" result="effect2_dropShadow_69_52"/>
<feOffset dy="16"/>
<feGaussianBlur stdDeviation="16"/>
<feComposite in2="hardAlpha" operator="out"/>
<feColorMatrix type="matrix" values="0 0 0 0 0.0470588 0 0 0 0 0.0470588 0 0 0 0 0.0509804 0 0 0 0.1 0"/>
<feBlend mode="normal" in2="effect1_dropShadow_69_52" result="effect2_dropShadow_69_52"/>
<feBlend mode="normal" in="SourceGraphic" in2="effect2_dropShadow_69_52" result="shape"/>
</filter>
<linearGradient id="paint0_linear_69_52" x1="0" y1="375" x2="750" y2="375" gradientUnits="userSpaceOnUse">
<stop stop-color="#A6A6A6"/>
<stop offset="1" stop-color="white"/>
</linearGradient>
<linearGradient id="paint1_linear_69_52" x1="8" y1="548.5" x2="743" y2="548.5" gradientUnits="userSpaceOnUse">
<stop stop-color="#020264"/>
<stop offset="1" stop-color="#5271FF"/>
</linearGradient>
</defs>
</svg>
