<svg width="750" height="750" viewBox="0 0 750 750" fill="none" xmlns="http://www.w3.org/2000/svg">
<rect x="0.5" y="0.5" width="749" height="749" rx="29.5" fill="url(#paint0_linear_69_52)"/>
<rect x="0.5" y="0.5" width="749" height="749" rx="29.5" stroke="black"/>
<path d="M301.89 212.764C264.908 225.609 234.554 236.527 234.554 237.009C234.554 237.972 372.142 285.337 375.058 285.337C378.107 285.337 514.237 237.972 514.237 237.009C514.237 235.243 378.372 188.681 373.733 189.002C371.214 189.002 338.872 199.759 301.89 212.764ZM382.879 229.623C384.867 230.907 387.253 233.155 388.314 234.6C389.772 236.848 394.676 237.009 432.586 236.045C455.915 235.403 474.869 235.403 474.472 235.885C474.074 236.366 454.987 237.651 432.055 238.775C395.869 240.38 389.904 241.023 387.651 243.431C380.493 250.977 372.673 251.941 367.768 245.839C365.912 243.752 364.454 240.38 364.454 238.614C364.454 236.688 365.912 233.476 367.768 231.389C371.48 226.733 377.179 226.091 382.879 229.623Z" fill="#020264"/>
<path d="M370.021 234.119C363.526 241.986 375.986 249.211 383.144 241.825L386.325 238.614L383.144 235.403C379.698 231.871 372.54 231.068 370.021 234.119Z" fill="#020264"/>
<path d="M224.48 215.815C214.274 225.609 206.718 239.417 206.718 248.248C206.718 251.459 207.116 251.298 212.683 246.642C220.239 240.38 227.131 229.302 229.915 219.187C231.24 214.691 231.903 210.838 231.505 210.356C231.24 209.874 228.059 212.443 224.48 215.815Z" fill="#020264"/>
<path d="M518.214 211.159C518.214 215.333 523.648 229.462 527.492 235.403C529.878 238.935 534.385 244.073 537.566 246.803C542.603 250.977 543.398 251.138 543.398 248.729C543.266 243.11 539.82 234.119 535.048 227.054C529.878 219.508 518.214 208.429 518.214 211.159Z" fill="#020264"/>
<path d="M200.091 217.902C194.656 230.105 192.005 250.014 194.259 260.611C195.452 266.07 196.644 265.106 199.826 256.597C204.2 245.037 205.791 234.761 204.73 224.967C203.802 215.012 202.212 212.764 200.091 217.902Z" fill="#020264"/>
<path d="M547.11 216.297C543.663 227.375 545.387 245.358 551.219 259.166L553.737 265.106L555.328 260.29C557.846 252.422 556.256 235.564 551.749 224.003C549.098 216.939 547.64 214.53 547.11 216.297Z" fill="#020264"/>
<path d="M182.727 247.766C179.28 261.895 181.269 289.993 185.51 289.993C187.366 289.993 189.619 280.038 190.415 268.96C190.945 261.092 190.547 255.955 188.824 249.211C187.498 244.234 186.04 240.22 185.51 240.22C184.98 240.22 183.654 243.592 182.727 247.766Z" fill="#020264"/>
<path d="M562.486 245.839C558.509 256.436 560.1 289.993 564.607 289.993C565.269 289.993 566.86 285.979 568.053 281.002C570.439 271.047 569.909 259.005 566.727 246.321L565.004 239.417L562.486 245.839Z" fill="#020264"/>
<path d="M215.997 249.211C207.514 254.991 198.898 265.588 195.849 273.616C194.391 277.469 193.596 281.002 193.993 281.483C195.452 283.249 210.032 271.047 214.937 263.982C219.841 257.078 224.878 245.037 223.022 245.037C222.359 245.037 219.311 246.963 215.997 249.211Z" fill="#020264"/>
<path d="M527.625 249.372C530.143 257.881 538.229 269.281 546.315 275.703C550.821 279.075 554.665 281.644 555.063 281.323C556.521 279.396 553.34 270.405 548.966 264.304C544.591 258.042 530.011 245.037 527.36 245.037C526.829 245.037 526.829 246.963 527.625 249.372Z" fill="#020264"/>
<path d="M493.294 254.831C493.162 260.611 492.366 264.625 491.041 265.909C488.655 268.318 488.522 272.653 490.643 275.222C491.969 276.827 491.969 277.469 490.643 278.593C489.715 279.236 487.462 290.635 485.341 305.085C481.895 329.972 481.895 330.454 484.413 332.701C487.727 335.592 499.789 335.592 503.103 332.701C505.621 330.454 505.621 329.972 502.042 305.085C499.922 290.314 497.801 279.396 496.74 278.593C495.415 277.469 495.415 276.827 496.74 275.222C498.861 272.653 498.729 268.318 496.343 265.909C495.282 264.785 494.222 260.29 493.957 254.991L493.559 245.839L493.294 254.831Z" fill="#020264"/>
<path d="M166.158 275.703C166.555 281.162 168.544 289.672 170.399 294.81C173.713 303.801 180.738 314.077 182.196 312.15C183.654 310.384 180.341 291.277 177.159 283.089C174.111 275.382 168.013 265.909 166.025 265.909C165.627 265.909 165.627 270.405 166.158 275.703Z" fill="#020264"/>
<path d="M579.585 271.047C574.283 277.79 570.439 288.227 568.716 300.429C567.39 311.026 567.523 311.668 570.571 310.384C576.006 307.815 585.55 279.235 584.224 269.12C583.827 265.909 583.561 265.909 579.585 271.047Z" fill="#020264"/>
<path d="M312.759 314.237V356.303L318.592 363.207C324.954 370.593 334.365 375.57 349.211 379.424C361.008 382.475 397.327 381.351 408.196 377.658C418.8 373.965 431.393 366.098 435.237 360.478L438.683 355.501V313.755C438.683 274.74 438.55 272.01 436.43 272.813C435.104 273.134 420.789 278.433 404.485 284.534L375.058 295.452L346.162 284.373C330.389 278.433 316.338 273.134 315.145 272.653C312.892 272.01 312.759 274.74 312.759 314.237Z" fill="#020264"/>
<path d="M196.91 288.387C191.077 296.737 186.438 310.545 185.775 320.82C185.113 332.059 186.438 332.541 192.005 323.389C197.97 313.595 201.681 300.75 201.151 290.956L200.754 282.928L196.91 288.387Z" fill="#020264"/>
<path d="M548.7 291.117C548.7 301.071 551.882 312.31 557.846 322.586C563.679 332.862 565.137 332.38 564.209 320.338C563.414 309.902 558.774 296.897 552.544 288.066L548.833 282.768L548.7 291.117Z" fill="#020264"/>
<path d="M164.832 307.012C165.893 314.237 172.388 331.096 175.834 335.912C177.159 337.679 179.943 340.569 182.064 342.174L185.908 345.225L184.98 338.16C183.257 325.155 174.111 307.654 166.423 302.516C164.169 301.071 164.037 301.392 164.832 307.012Z" fill="#020264"/>
<path d="M578.79 307.494C572.692 314.398 566.33 328.848 565.004 339.124C564.209 344.583 564.342 344.904 566.86 343.298C571.102 340.569 577.862 330.293 580.645 322.747C583.694 314.077 586.212 302.837 585.285 301.714C585.02 301.232 582.103 303.961 578.79 307.494Z" fill="#020264"/>
<path d="M193.861 326.44C193.198 329.009 192.801 337.839 192.933 346.188C192.933 359.675 193.463 362.565 196.645 370.111C200.091 378.139 200.489 378.621 201.947 375.731C202.742 373.965 203.405 365.776 203.405 356.625C203.405 342.495 203.007 339.445 199.826 331.256C197.838 326.279 195.982 322.104 195.584 322.104C195.186 322.104 194.391 324.031 193.861 326.44Z" fill="#020264"/>
<path d="M550.424 330.935C547.11 339.606 546.712 342.335 546.712 356.625C546.712 365.455 547.375 373.965 548.17 375.731C549.496 378.3 550.158 377.658 553.472 369.309C556.919 360.799 557.316 358.391 557.051 344.583C557.051 336.234 556.388 327.564 555.593 325.316C554.268 321.462 554.135 321.623 550.424 330.935Z" fill="#020264"/>
<path d="M159 336.234C159 338.963 166.555 350.363 172.918 357.106C178.883 363.529 188.559 368.667 190.282 366.579C191.475 365.134 186.306 355.822 180.606 349.079C173.846 341.211 159 332.38 159 336.234Z" fill="#020264"/>
<path d="M581.175 339.445C573.753 343.78 566.33 351.808 561.16 361.281C558.112 367.221 559.57 368.024 566.727 364.653C574.018 361.281 580.115 355.18 586.477 344.583C593.37 333.183 592.972 332.701 581.175 339.445Z" fill="#020264"/>
<path d="M207.381 370.433C208.972 379.585 214.274 393.874 218.781 401.581C223.022 408.646 231.24 416.513 232.698 414.747C233.096 414.265 232.433 409.448 231.108 403.989C227.529 388.094 218.781 373.965 208.177 366.419C206.851 365.295 206.586 366.098 207.381 370.433Z" fill="#020264"/>
<path d="M536.373 371.235C533.059 374.447 528.42 380.387 526.299 384.562C522.72 391.145 516.888 409.448 516.888 413.623C516.888 419.885 530.408 404.792 535.445 392.75C539.024 384.08 543.796 367.061 543.001 365.937C542.736 365.616 539.687 368.024 536.373 371.235Z" fill="#020264"/>
<path d="M173.448 371.396C176.099 377.497 191.475 393.232 198.368 397.085C202.477 399.333 207.116 400.778 209.634 400.457L214.009 399.975L206.188 389.86C197.97 379.263 186.703 371.396 177.027 369.309C172.255 368.345 172.122 368.506 173.448 371.396Z" fill="#020264"/>
<path d="M567.655 371.075C558.774 374.286 551.219 380.387 543.398 390.663L536.108 399.975L540.482 400.457C548.833 401.42 567.125 387.131 575.343 373.323C577.862 368.988 577.862 368.666 575.608 368.827C574.283 368.827 570.704 369.79 567.655 371.075Z" fill="#020264"/>
<path d="M295.263 403.508C288.9 408.325 285.056 412.339 284.924 413.944C284.924 416.674 289.828 416.834 370.552 416.834C427.018 416.834 456.975 417.476 458.698 418.44C461.879 420.527 462.012 426.789 458.831 430.161C456.577 432.569 448.492 432.89 370.684 432.89H284.924V438.51V444.129H375.058C451.938 444.129 465.193 443.808 465.193 441.881C465.193 440.597 464.53 439.312 463.735 438.991C462.807 438.67 463.337 435.941 465.061 431.766C469.037 422.614 467.844 418.921 457.24 406.558L448.227 395.962H376.782H305.469L295.263 403.508Z" fill="#020264"/>
<path d="M237.205 403.668C241.712 413.302 248.737 421.009 259.871 428.073L269.68 434.335L256.955 434.495C243.435 434.495 236.012 436.743 228.987 442.684C225.408 445.895 225.276 446.377 227.264 447.822C231.24 450.551 254.437 449.588 261.064 446.377C273.127 440.757 275.778 433.693 269.68 422.935C264.378 413.462 248.737 400.939 238.663 398.37L234.289 397.246L237.205 403.668Z" fill="#020264"/>
<path d="M506.151 400.618C498.198 404.471 485.076 415.55 481.232 421.812C476.725 429.197 476.195 436.101 480.039 440.276C485.739 446.538 493.692 449.106 507.477 449.106C527.36 449.106 528.95 447.019 515.032 439.152C507.875 434.977 505.489 434.496 493.692 434.496L480.437 434.335L490.245 428.073C501.247 421.009 508.405 413.302 512.779 403.829C516.225 396.604 515.43 396.283 506.151 400.618Z" fill="#020264"/>
<path d="M182.859 401.902C176.629 403.347 177.425 405.113 186.438 410.091C198.5 416.674 210.032 419.403 218.118 417.476C221.564 416.674 224.613 415.228 224.878 414.265C225.408 412.178 212.551 404.792 204.067 402.544C198.103 400.778 188.957 400.618 182.859 401.902Z" fill="#020264"/>
<path d="M546.314 402.384C539.554 404.15 524.841 411.857 524.841 413.784C524.841 416.995 536.108 418.921 544.856 417.155C555.328 414.907 572.295 406.237 570.306 403.829C568.451 401.581 553.075 400.618 546.314 402.384Z" fill="#020264"/>
<path d="M214.009 423.899C211.093 425.023 206.983 427.11 204.73 428.394L200.886 430.963L206.056 432.89C208.972 433.853 216.792 435.138 223.287 435.459C233.626 436.101 236.277 435.78 242.507 432.569C246.484 430.482 249.665 428.234 249.532 427.27C248.87 422.454 223.95 420.045 214.009 423.899Z" fill="#020264"/>
<path d="M507.212 423.899C503.766 425.022 500.584 426.467 500.054 426.949C498.596 428.876 511.851 434.817 519.407 435.619C527.625 436.583 545.519 433.532 546.845 431.124C547.242 430.321 544.724 428.073 541.278 426.307C533.325 421.972 516.225 420.687 507.212 423.899Z" fill="#020264"/>
<path d="M264.246 452.96C254.304 461.951 251.786 466.126 255.1 467.731C259.474 469.658 275.778 451.194 274.054 446.056C273.922 445.253 269.415 448.304 264.246 452.96Z" fill="#020264"/>
<path d="M476.46 447.501C476.99 449.588 478.448 453.12 479.641 455.208C482.027 459.703 491.306 468.213 493.957 468.213C497.536 468.213 495.547 461.951 490.776 457.616C487.992 455.208 483.485 451.033 480.569 448.464C475.665 443.808 475.532 443.808 476.46 447.501Z" fill="#020264"/>
<path d="M284.924 453.762C284.924 456.974 285.851 456.974 375.058 456.974C464.265 456.974 465.193 456.974 465.193 453.762C465.193 450.551 464.265 450.551 375.058 450.551C285.851 450.551 284.924 450.551 284.924 453.762Z" fill="#020264"/>
<g filter="url(#filter0_dd_69_52)">
<mask id="path-38-outside-1_69_52" maskUnits="userSpaceOnUse" x="122" y="480" width="510" height="75" fill="black">
<rect fill="white" x="122" y="480" width="510" height="75"/>
<path d="M166.193 482.182H180.955V527.523C180.955 532.614 179.739 537.068 177.307 540.886C174.898 544.705 171.523 547.682 167.182 549.818C162.841 551.932 157.784 552.989 152.011 552.989C146.216 552.989 141.148 551.932 136.807 549.818C132.466 547.682 129.091 544.705 126.682 540.886C124.273 537.068 123.068 532.614 123.068 527.523V482.182H137.83V526.261C137.83 528.92 138.409 531.284 139.568 533.352C140.75 535.42 142.409 537.045 144.545 538.227C146.682 539.409 149.17 540 152.011 540C154.875 540 157.364 539.409 159.477 538.227C161.614 537.045 163.261 535.42 164.42 533.352C165.602 531.284 166.193 528.92 166.193 526.261V482.182ZM251.497 482.182V552H238.747L208.372 508.057H207.861V552H193.099V482.182H206.054L236.19 526.091H236.804V482.182H251.497Z"/>
<path d="M301.568 502.261C301.295 499.511 300.125 497.375 298.057 495.852C295.989 494.33 293.182 493.568 289.636 493.568C287.227 493.568 285.193 493.909 283.534 494.591C281.875 495.25 280.602 496.17 279.716 497.352C278.852 498.534 278.42 499.875 278.42 501.375C278.375 502.625 278.636 503.716 279.205 504.648C279.795 505.58 280.602 506.386 281.625 507.068C282.648 507.727 283.83 508.307 285.17 508.807C286.511 509.284 287.943 509.693 289.466 510.034L295.739 511.534C298.784 512.216 301.58 513.125 304.125 514.261C306.67 515.398 308.875 516.795 310.739 518.455C312.602 520.114 314.045 522.068 315.068 524.318C316.114 526.568 316.648 529.148 316.67 532.057C316.648 536.33 315.557 540.034 313.398 543.17C311.261 546.284 308.17 548.705 304.125 550.432C300.102 552.136 295.25 552.989 289.568 552.989C283.932 552.989 279.023 552.125 274.841 550.398C270.682 548.67 267.432 546.114 265.091 542.727C262.773 539.318 261.557 535.102 261.443 530.08H275.727C275.886 532.42 276.557 534.375 277.739 535.943C278.943 537.489 280.545 538.659 282.545 539.455C284.568 540.227 286.852 540.614 289.398 540.614C291.898 540.614 294.068 540.25 295.909 539.523C297.773 538.795 299.216 537.784 300.239 536.489C301.261 535.193 301.773 533.705 301.773 532.023C301.773 530.455 301.307 529.136 300.375 528.068C299.466 527 298.125 526.091 296.352 525.341C294.602 524.591 292.455 523.909 289.909 523.295L282.307 521.386C276.42 519.955 271.773 517.716 268.364 514.67C264.955 511.625 263.261 507.523 263.284 502.364C263.261 498.136 264.386 494.443 266.659 491.284C268.955 488.125 272.102 485.659 276.102 483.886C280.102 482.114 284.648 481.227 289.739 481.227C294.92 481.227 299.443 482.114 303.307 483.886C307.193 485.659 310.216 488.125 312.375 491.284C314.534 494.443 315.648 498.102 315.716 502.261H301.568ZM354.179 499.636V510.545H322.645V499.636H354.179ZM329.804 487.091H344.327V535.909C344.327 537.25 344.531 538.295 344.94 539.045C345.349 539.773 345.918 540.284 346.645 540.58C347.395 540.875 348.259 541.023 349.236 541.023C349.918 541.023 350.599 540.966 351.281 540.852C351.963 540.716 352.486 540.614 352.849 540.545L355.134 551.352C354.406 551.58 353.384 551.841 352.065 552.136C350.747 552.455 349.145 552.648 347.259 552.716C343.759 552.852 340.69 552.386 338.054 551.318C335.44 550.25 333.406 548.591 331.952 546.341C330.497 544.091 329.781 541.25 329.804 537.818V487.091ZM397.219 529.705V499.636H411.741V552H397.798V542.489H397.253C396.071 545.557 394.105 548.023 391.355 549.886C388.628 551.75 385.298 552.682 381.366 552.682C377.866 552.682 374.787 551.886 372.128 550.295C369.469 548.705 367.389 546.443 365.889 543.511C364.412 540.58 363.662 537.068 363.639 532.977V499.636H378.162V530.386C378.185 533.477 379.014 535.92 380.651 537.716C382.287 539.511 384.48 540.409 387.23 540.409C388.98 540.409 390.616 540.011 392.139 539.216C393.662 538.398 394.889 537.193 395.821 535.602C396.776 534.011 397.241 532.045 397.219 529.705ZM442.653 552.852C438.676 552.852 435.074 551.83 431.847 549.784C428.642 547.716 426.097 544.682 424.21 540.682C422.347 536.659 421.415 531.727 421.415 525.886C421.415 519.886 422.381 514.898 424.312 510.92C426.244 506.92 428.813 503.932 432.017 501.955C435.244 499.955 438.778 498.955 442.619 498.955C445.551 498.955 447.994 499.455 449.949 500.455C451.926 501.432 453.517 502.659 454.722 504.136C455.949 505.591 456.881 507.023 457.517 508.432H457.96V482.182H472.449V552H458.131V543.614H457.517C456.835 545.068 455.869 546.511 454.619 547.943C453.392 549.352 451.79 550.523 449.812 551.455C447.858 552.386 445.472 552.852 442.653 552.852ZM447.256 541.295C449.597 541.295 451.574 540.659 453.188 539.386C454.824 538.091 456.074 536.284 456.938 533.966C457.824 531.648 458.267 528.932 458.267 525.818C458.267 522.705 457.835 520 456.972 517.705C456.108 515.409 454.858 513.636 453.222 512.386C451.585 511.136 449.597 510.511 447.256 510.511C444.869 510.511 442.858 511.159 441.222 512.455C439.585 513.75 438.347 515.545 437.506 517.841C436.665 520.136 436.244 522.795 436.244 525.818C436.244 528.864 436.665 531.557 437.506 533.898C438.369 536.216 439.608 538.034 441.222 539.352C442.858 540.648 444.869 541.295 447.256 541.295ZM508.253 553.023C502.866 553.023 498.23 551.932 494.344 549.75C490.48 547.545 487.503 544.432 485.412 540.409C483.321 536.364 482.276 531.58 482.276 526.057C482.276 520.67 483.321 515.943 485.412 511.875C487.503 507.807 490.446 504.636 494.241 502.364C498.06 500.091 502.537 498.955 507.673 498.955C511.128 498.955 514.344 499.511 517.321 500.625C520.321 501.716 522.935 503.364 525.162 505.568C527.412 507.773 529.162 510.545 530.412 513.886C531.662 517.205 532.287 521.091 532.287 525.545V529.534H488.071V520.534H518.616C518.616 518.443 518.162 516.591 517.253 514.977C516.344 513.364 515.082 512.102 513.469 511.193C511.878 510.261 510.026 509.795 507.912 509.795C505.707 509.795 503.753 510.307 502.048 511.33C500.366 512.33 499.048 513.682 498.094 515.386C497.139 517.068 496.651 518.943 496.628 521.011V529.568C496.628 532.159 497.105 534.398 498.06 536.284C499.037 538.17 500.412 539.625 502.185 540.648C503.957 541.67 506.06 542.182 508.491 542.182C510.105 542.182 511.582 541.955 512.923 541.5C514.264 541.045 515.412 540.364 516.366 539.455C517.321 538.545 518.048 537.432 518.548 536.114L531.98 537C531.298 540.227 529.901 543.045 527.787 545.455C525.696 547.841 522.991 549.705 519.673 551.045C516.378 552.364 512.571 553.023 508.253 553.023ZM556.287 521.727V552H541.764V499.636H555.605V508.875H556.219C557.378 505.83 559.321 503.42 562.048 501.648C564.776 499.852 568.082 498.955 571.969 498.955C575.605 498.955 578.776 499.75 581.48 501.341C584.185 502.932 586.287 505.205 587.787 508.159C589.287 511.091 590.037 514.591 590.037 518.659V552H575.514V521.25C575.537 518.045 574.719 515.545 573.06 513.75C571.401 511.932 569.116 511.023 566.207 511.023C564.253 511.023 562.526 511.443 561.026 512.284C559.548 513.125 558.389 514.352 557.548 515.966C556.73 517.557 556.31 519.477 556.287 521.727ZM629.335 499.636V510.545H597.801V499.636H629.335ZM604.96 487.091H619.483V535.909C619.483 537.25 619.688 538.295 620.097 539.045C620.506 539.773 621.074 540.284 621.801 540.58C622.551 540.875 623.415 541.023 624.392 541.023C625.074 541.023 625.756 540.966 626.438 540.852C627.119 540.716 627.642 540.614 628.006 540.545L630.29 551.352C629.563 551.58 628.54 551.841 627.222 552.136C625.903 552.455 624.301 552.648 622.415 552.716C618.915 552.852 615.847 552.386 613.21 551.318C610.597 550.25 608.563 548.591 607.108 546.341C605.653 544.091 604.938 541.25 604.96 537.818V487.091Z"/>
</mask>
<path d="M166.193 482.182H180.955V527.523C180.955 532.614 179.739 537.068 177.307 540.886C174.898 544.705 171.523 547.682 167.182 549.818C162.841 551.932 157.784 552.989 152.011 552.989C146.216 552.989 141.148 551.932 136.807 549.818C132.466 547.682 129.091 544.705 126.682 540.886C124.273 537.068 123.068 532.614 123.068 527.523V482.182H137.83V526.261C137.83 528.92 138.409 531.284 139.568 533.352C140.75 535.42 142.409 537.045 144.545 538.227C146.682 539.409 149.17 540 152.011 540C154.875 540 157.364 539.409 159.477 538.227C161.614 537.045 163.261 535.42 164.42 533.352C165.602 531.284 166.193 528.92 166.193 526.261V482.182ZM251.497 482.182V552H238.747L208.372 508.057H207.861V552H193.099V482.182H206.054L236.19 526.091H236.804V482.182H251.497Z" fill="#020256"/>
<path d="M301.568 502.261C301.295 499.511 300.125 497.375 298.057 495.852C295.989 494.33 293.182 493.568 289.636 493.568C287.227 493.568 285.193 493.909 283.534 494.591C281.875 495.25 280.602 496.17 279.716 497.352C278.852 498.534 278.42 499.875 278.42 501.375C278.375 502.625 278.636 503.716 279.205 504.648C279.795 505.58 280.602 506.386 281.625 507.068C282.648 507.727 283.83 508.307 285.17 508.807C286.511 509.284 287.943 509.693 289.466 510.034L295.739 511.534C298.784 512.216 301.58 513.125 304.125 514.261C306.67 515.398 308.875 516.795 310.739 518.455C312.602 520.114 314.045 522.068 315.068 524.318C316.114 526.568 316.648 529.148 316.67 532.057C316.648 536.33 315.557 540.034 313.398 543.17C311.261 546.284 308.17 548.705 304.125 550.432C300.102 552.136 295.25 552.989 289.568 552.989C283.932 552.989 279.023 552.125 274.841 550.398C270.682 548.67 267.432 546.114 265.091 542.727C262.773 539.318 261.557 535.102 261.443 530.08H275.727C275.886 532.42 276.557 534.375 277.739 535.943C278.943 537.489 280.545 538.659 282.545 539.455C284.568 540.227 286.852 540.614 289.398 540.614C291.898 540.614 294.068 540.25 295.909 539.523C297.773 538.795 299.216 537.784 300.239 536.489C301.261 535.193 301.773 533.705 301.773 532.023C301.773 530.455 301.307 529.136 300.375 528.068C299.466 527 298.125 526.091 296.352 525.341C294.602 524.591 292.455 523.909 289.909 523.295L282.307 521.386C276.42 519.955 271.773 517.716 268.364 514.67C264.955 511.625 263.261 507.523 263.284 502.364C263.261 498.136 264.386 494.443 266.659 491.284C268.955 488.125 272.102 485.659 276.102 483.886C280.102 482.114 284.648 481.227 289.739 481.227C294.92 481.227 299.443 482.114 303.307 483.886C307.193 485.659 310.216 488.125 312.375 491.284C314.534 494.443 315.648 498.102 315.716 502.261H301.568ZM354.179 499.636V510.545H322.645V499.636H354.179ZM329.804 487.091H344.327V535.909C344.327 537.25 344.531 538.295 344.94 539.045C345.349 539.773 345.918 540.284 346.645 540.58C347.395 540.875 348.259 541.023 349.236 541.023C349.918 541.023 350.599 540.966 351.281 540.852C351.963 540.716 352.486 540.614 352.849 540.545L355.134 551.352C354.406 551.58 353.384 551.841 352.065 552.136C350.747 552.455 349.145 552.648 347.259 552.716C343.759 552.852 340.69 552.386 338.054 551.318C335.44 550.25 333.406 548.591 331.952 546.341C330.497 544.091 329.781 541.25 329.804 537.818V487.091ZM397.219 529.705V499.636H411.741V552H397.798V542.489H397.253C396.071 545.557 394.105 548.023 391.355 549.886C388.628 551.75 385.298 552.682 381.366 552.682C377.866 552.682 374.787 551.886 372.128 550.295C369.469 548.705 367.389 546.443 365.889 543.511C364.412 540.58 363.662 537.068 363.639 532.977V499.636H378.162V530.386C378.185 533.477 379.014 535.92 380.651 537.716C382.287 539.511 384.48 540.409 387.23 540.409C388.98 540.409 390.616 540.011 392.139 539.216C393.662 538.398 394.889 537.193 395.821 535.602C396.776 534.011 397.241 532.045 397.219 529.705ZM442.653 552.852C438.676 552.852 435.074 551.83 431.847 549.784C428.642 547.716 426.097 544.682 424.21 540.682C422.347 536.659 421.415 531.727 421.415 525.886C421.415 519.886 422.381 514.898 424.312 510.92C426.244 506.92 428.813 503.932 432.017 501.955C435.244 499.955 438.778 498.955 442.619 498.955C445.551 498.955 447.994 499.455 449.949 500.455C451.926 501.432 453.517 502.659 454.722 504.136C455.949 505.591 456.881 507.023 457.517 508.432H457.96V482.182H472.449V552H458.131V543.614H457.517C456.835 545.068 455.869 546.511 454.619 547.943C453.392 549.352 451.79 550.523 449.812 551.455C447.858 552.386 445.472 552.852 442.653 552.852ZM447.256 541.295C449.597 541.295 451.574 540.659 453.188 539.386C454.824 538.091 456.074 536.284 456.938 533.966C457.824 531.648 458.267 528.932 458.267 525.818C458.267 522.705 457.835 520 456.972 517.705C456.108 515.409 454.858 513.636 453.222 512.386C451.585 511.136 449.597 510.511 447.256 510.511C444.869 510.511 442.858 511.159 441.222 512.455C439.585 513.75 438.347 515.545 437.506 517.841C436.665 520.136 436.244 522.795 436.244 525.818C436.244 528.864 436.665 531.557 437.506 533.898C438.369 536.216 439.608 538.034 441.222 539.352C442.858 540.648 444.869 541.295 447.256 541.295ZM508.253 553.023C502.866 553.023 498.23 551.932 494.344 549.75C490.48 547.545 487.503 544.432 485.412 540.409C483.321 536.364 482.276 531.58 482.276 526.057C482.276 520.67 483.321 515.943 485.412 511.875C487.503 507.807 490.446 504.636 494.241 502.364C498.06 500.091 502.537 498.955 507.673 498.955C511.128 498.955 514.344 499.511 517.321 500.625C520.321 501.716 522.935 503.364 525.162 505.568C527.412 507.773 529.162 510.545 530.412 513.886C531.662 517.205 532.287 521.091 532.287 525.545V529.534H488.071V520.534H518.616C518.616 518.443 518.162 516.591 517.253 514.977C516.344 513.364 515.082 512.102 513.469 511.193C511.878 510.261 510.026 509.795 507.912 509.795C505.707 509.795 503.753 510.307 502.048 511.33C500.366 512.33 499.048 513.682 498.094 515.386C497.139 517.068 496.651 518.943 496.628 521.011V529.568C496.628 532.159 497.105 534.398 498.06 536.284C499.037 538.17 500.412 539.625 502.185 540.648C503.957 541.67 506.06 542.182 508.491 542.182C510.105 542.182 511.582 541.955 512.923 541.5C514.264 541.045 515.412 540.364 516.366 539.455C517.321 538.545 518.048 537.432 518.548 536.114L531.98 537C531.298 540.227 529.901 543.045 527.787 545.455C525.696 547.841 522.991 549.705 519.673 551.045C516.378 552.364 512.571 553.023 508.253 553.023ZM556.287 521.727V552H541.764V499.636H555.605V508.875H556.219C557.378 505.83 559.321 503.42 562.048 501.648C564.776 499.852 568.082 498.955 571.969 498.955C575.605 498.955 578.776 499.75 581.48 501.341C584.185 502.932 586.287 505.205 587.787 508.159C589.287 511.091 590.037 514.591 590.037 518.659V552H575.514V521.25C575.537 518.045 574.719 515.545 573.06 513.75C571.401 511.932 569.116 511.023 566.207 511.023C564.253 511.023 562.526 511.443 561.026 512.284C559.548 513.125 558.389 514.352 557.548 515.966C556.73 517.557 556.31 519.477 556.287 521.727ZM629.335 499.636V510.545H597.801V499.636H629.335ZM604.96 487.091H619.483V535.909C619.483 537.25 619.688 538.295 620.097 539.045C620.506 539.773 621.074 540.284 621.801 540.58C622.551 540.875 623.415 541.023 624.392 541.023C625.074 541.023 625.756 540.966 626.438 540.852C627.119 540.716 627.642 540.614 628.006 540.545L630.29 551.352C629.563 551.58 628.54 551.841 627.222 552.136C625.903 552.455 624.301 552.648 622.415 552.716C618.915 552.852 615.847 552.386 613.21 551.318C610.597 550.25 608.563 548.591 607.108 546.341C605.653 544.091 604.938 541.25 604.96 537.818V487.091Z" fill="url(#paint1_linear_69_52)"/>
<path d="M166.193 482.182V481.182H165.193V482.182H166.193ZM180.955 482.182H181.955V481.182H180.955V482.182ZM177.307 540.886L176.463 540.349L176.461 540.353L177.307 540.886ZM167.182 549.818L167.62 550.717L167.623 550.715L167.182 549.818ZM136.807 549.818L136.365 550.715L136.369 550.717L136.807 549.818ZM126.682 540.886L125.836 541.42L126.682 540.886ZM123.068 482.182V481.182H122.068V482.182H123.068ZM137.83 482.182H138.83V481.182H137.83V482.182ZM139.568 533.352L138.696 533.841L138.7 533.848L139.568 533.352ZM144.545 538.227L144.061 539.102L144.545 538.227ZM159.477 538.227L158.993 537.352L158.989 537.354L159.477 538.227ZM164.42 533.352L163.552 532.856L163.548 532.863L164.42 533.352ZM166.193 483.182H180.955V481.182H166.193V483.182ZM179.955 482.182V527.523H181.955V482.182H179.955ZM179.955 527.523C179.955 532.448 178.781 536.711 176.463 540.349L178.15 541.424C180.697 537.425 181.955 532.78 181.955 527.523H179.955ZM176.461 540.353C174.158 544.003 170.928 546.86 166.74 548.921L167.623 550.715C172.118 548.504 175.638 545.406 178.153 541.42L176.461 540.353ZM166.744 548.919C162.564 550.955 157.662 551.989 152.011 551.989V553.989C157.906 553.989 163.118 552.909 167.62 550.717L166.744 548.919ZM152.011 551.989C146.338 551.989 141.424 550.954 137.245 548.919L136.369 550.717C140.871 552.909 146.094 553.989 152.011 553.989V551.989ZM137.248 548.921C133.061 546.86 129.831 544.003 127.528 540.353L125.836 541.42C128.351 545.406 131.871 548.504 136.365 550.715L137.248 548.921ZM127.528 540.353C125.232 536.714 124.068 532.45 124.068 527.523H122.068C122.068 532.778 123.314 537.422 125.836 541.42L127.528 540.353ZM124.068 527.523V482.182H122.068V527.523H124.068ZM123.068 483.182H137.83V481.182H123.068V483.182ZM136.83 482.182V526.261H138.83V482.182H136.83ZM136.83 526.261C136.83 529.07 137.443 531.606 138.696 533.841L140.441 532.863C139.375 530.962 138.83 528.77 138.83 526.261H136.83ZM138.7 533.848C139.975 536.08 141.769 537.834 144.061 539.102L145.03 537.352C143.049 536.257 141.525 534.761 140.436 532.856L138.7 533.848ZM144.061 539.102C146.369 540.379 149.029 541 152.011 541V539C149.312 539 146.995 538.44 145.03 537.352L144.061 539.102ZM152.011 541C155.015 541 157.677 540.379 159.965 539.1L158.989 537.354C157.05 538.439 154.735 539 152.011 539V541ZM159.961 539.102C162.255 537.833 164.04 536.077 165.293 533.841L163.548 532.863C162.483 534.764 160.972 536.258 158.993 537.352L159.961 539.102ZM165.289 533.848C166.567 531.612 167.193 529.074 167.193 526.261H165.193C165.193 528.767 164.638 530.956 163.552 532.856L165.289 533.848ZM167.193 526.261V482.182H165.193V526.261H167.193ZM251.497 482.182H252.497V481.182H251.497V482.182ZM251.497 552V553H252.497V552H251.497ZM238.747 552L237.925 552.569L238.223 553H238.747V552ZM208.372 508.057L209.195 507.488L208.897 507.057H208.372V508.057ZM207.861 508.057V507.057H206.861V508.057H207.861ZM207.861 552V553H208.861V552H207.861ZM193.099 552H192.099V553H193.099V552ZM193.099 482.182V481.182H192.099V482.182H193.099ZM206.054 482.182L206.878 481.616L206.581 481.182H206.054V482.182ZM236.19 526.091L235.366 526.657L235.664 527.091H236.19V526.091ZM236.804 526.091V527.091H237.804V526.091H236.804ZM236.804 482.182V481.182H235.804V482.182H236.804ZM250.497 482.182V552H252.497V482.182H250.497ZM251.497 551H238.747V553H251.497V551ZM239.57 551.431L209.195 507.488L207.55 508.625L237.925 552.569L239.57 551.431ZM208.372 507.057H207.861V509.057H208.372V507.057ZM206.861 508.057V552H208.861V508.057H206.861ZM207.861 551H193.099V553H207.861V551ZM194.099 552V482.182H192.099V552H194.099ZM193.099 483.182H206.054V481.182H193.099V483.182ZM205.229 482.748L235.366 526.657L237.015 525.525L206.878 481.616L205.229 482.748ZM236.19 527.091H236.804V525.091H236.19V527.091ZM237.804 526.091V482.182H235.804V526.091H237.804ZM236.804 483.182H251.497V481.182H236.804V483.182ZM301.568 502.261L300.573 502.36L300.662 503.261H301.568V502.261ZM283.534 494.591L283.903 495.52L283.914 495.516L283.534 494.591ZM279.716 497.352L278.916 496.752L278.909 496.762L279.716 497.352ZM278.42 501.375L279.42 501.411L279.42 501.393V501.375H278.42ZM279.205 504.648L278.351 505.168L278.355 505.176L278.36 505.183L279.205 504.648ZM281.625 507.068L281.07 507.9L281.077 507.905L281.083 507.909L281.625 507.068ZM285.17 508.807L284.821 509.744L284.828 509.746L284.835 509.749L285.17 508.807ZM289.466 510.034L289.698 509.062L289.691 509.06L289.684 509.058L289.466 510.034ZM295.739 511.534L295.506 512.507L295.513 512.508L295.52 512.51L295.739 511.534ZM304.125 514.261L303.717 515.174L304.125 514.261ZM310.739 518.455L311.404 517.708L310.739 518.455ZM315.068 524.318L314.158 524.732L314.161 524.74L315.068 524.318ZM316.67 532.057L317.671 532.062L317.67 532.049L316.67 532.057ZM313.398 543.17L312.574 542.603L312.573 542.605L313.398 543.17ZM304.125 550.432L304.515 551.353L304.518 551.351L304.125 550.432ZM274.841 550.398L274.457 551.321L274.459 551.322L274.841 550.398ZM265.091 542.727L264.264 543.29L264.268 543.296L265.091 542.727ZM261.443 530.08V529.08H260.42L260.443 530.102L261.443 530.08ZM275.727 530.08L276.725 530.012L276.662 529.08H275.727V530.08ZM277.739 535.943L276.94 536.545L276.945 536.552L276.95 536.558L277.739 535.943ZM282.545 539.455L282.176 540.384L282.189 540.389L282.545 539.455ZM295.909 539.523L295.546 538.591L295.542 538.593L295.909 539.523ZM300.239 536.489L301.024 537.108L300.239 536.489ZM300.375 528.068L299.613 528.716L299.621 528.726L300.375 528.068ZM296.352 525.341L295.958 526.26L295.963 526.262L296.352 525.341ZM289.909 523.295L289.666 524.265L289.675 524.268L289.909 523.295ZM282.307 521.386L282.55 520.416L282.543 520.415L282.307 521.386ZM268.364 514.67L267.697 515.416L268.364 514.67ZM263.284 502.364L264.284 502.368L264.284 502.358L263.284 502.364ZM266.659 491.284L265.85 490.696L265.847 490.7L266.659 491.284ZM303.307 483.886L302.89 484.795L302.892 484.796L303.307 483.886ZM312.375 491.284L311.549 491.848L312.375 491.284ZM315.716 502.261V503.261H316.732L316.716 502.245L315.716 502.261ZM302.563 502.163C302.265 499.155 300.965 496.751 298.65 495.047L297.464 496.658C299.285 497.999 300.326 499.868 300.573 502.36L302.563 502.163ZM298.65 495.047C296.355 493.358 293.316 492.568 289.636 492.568V494.568C293.048 494.568 295.622 495.301 297.464 496.658L298.65 495.047ZM289.636 492.568C287.139 492.568 284.967 492.921 283.154 493.666L283.914 495.516C285.419 494.897 287.316 494.568 289.636 494.568V492.568ZM283.165 493.662C281.37 494.374 279.934 495.395 278.916 496.752L280.516 497.952C281.271 496.946 282.38 496.126 283.903 495.52L283.165 493.662ZM278.909 496.762C277.916 498.12 277.42 499.669 277.42 501.375H279.42C279.42 500.081 279.788 498.948 280.523 497.942L278.909 496.762ZM277.421 501.339C277.37 502.755 277.666 504.046 278.351 505.168L280.058 504.127C279.607 503.386 279.38 502.495 279.42 501.411L277.421 501.339ZM278.36 505.183C279.034 506.246 279.945 507.15 281.07 507.9L282.18 506.236C281.26 505.623 280.557 504.913 280.049 504.112L278.36 505.183ZM281.083 507.909C282.176 508.613 283.424 509.223 284.821 509.744L285.52 507.87C284.235 507.391 283.12 506.842 282.167 506.228L281.083 507.909ZM284.835 509.749C286.218 510.241 287.689 510.661 289.247 511.01L289.684 509.058C288.198 508.725 286.805 508.327 285.506 507.865L284.835 509.749ZM289.233 511.007L295.506 512.507L295.971 510.562L289.698 509.062L289.233 511.007ZM295.52 512.51C298.508 513.179 301.239 514.068 303.717 515.174L304.533 513.348C301.92 512.182 299.06 511.253 295.957 510.558L295.52 512.51ZM303.717 515.174C306.18 516.274 308.295 517.618 310.074 519.201L311.404 517.708C309.455 515.973 307.161 514.522 304.533 513.348L303.717 515.174ZM310.074 519.201C311.834 520.769 313.193 522.61 314.158 524.732L315.979 523.904C314.898 521.526 313.37 519.459 311.404 517.708L310.074 519.201ZM314.161 524.74C315.137 526.839 315.649 529.274 315.67 532.065L317.67 532.049C317.647 529.021 317.09 526.297 315.975 523.897L314.161 524.74ZM315.67 532.051C315.649 536.149 314.606 539.652 312.574 542.603L314.221 543.737C316.508 540.416 317.647 536.51 317.67 532.062L315.67 532.051ZM312.573 542.605C310.561 545.537 307.632 547.847 303.732 549.512L304.518 551.351C308.708 549.562 311.962 547.031 314.222 543.736L312.573 542.605ZM303.735 549.511C299.867 551.15 295.154 551.989 289.568 551.989V553.989C295.346 553.989 300.338 553.123 304.515 551.353L303.735 549.511ZM289.568 551.989C284.032 551.989 279.258 551.14 275.223 549.473L274.459 551.322C278.788 553.11 283.832 553.989 289.568 553.989V551.989ZM275.224 549.474C271.225 547.813 268.135 545.372 265.913 542.159L264.268 543.296C266.729 546.855 270.138 549.528 274.457 551.321L275.224 549.474ZM265.918 542.165C263.73 538.947 262.553 534.929 262.443 530.057L260.443 530.102C260.56 535.275 261.816 539.689 264.264 543.29L265.918 542.165ZM261.443 531.08H275.727V529.08H261.443V531.08ZM274.73 530.147C274.899 532.644 275.62 534.794 276.94 536.545L278.537 535.341C277.493 533.956 276.874 532.197 276.725 530.012L274.73 530.147ZM276.95 536.558C278.274 538.257 280.027 539.529 282.176 540.384L282.915 538.525C281.063 537.789 279.612 536.72 278.527 535.328L276.95 536.558ZM282.189 540.389C284.343 541.212 286.751 541.614 289.398 541.614V539.614C286.953 539.614 284.793 539.243 282.902 538.52L282.189 540.389ZM289.398 541.614C291.992 541.614 294.292 541.237 296.277 540.453L295.542 538.593C293.844 539.263 291.804 539.614 289.398 539.614V541.614ZM296.273 540.454C298.267 539.676 299.869 538.57 301.024 537.108L299.454 535.869C298.562 536.998 297.279 537.915 295.546 538.591L296.273 540.454ZM301.024 537.108C302.188 535.633 302.773 533.925 302.773 532.023H300.773C300.773 533.484 300.334 534.754 299.454 535.869L301.024 537.108ZM302.773 532.023C302.773 530.24 302.237 528.681 301.129 527.411L299.621 528.726C300.377 529.592 300.773 530.669 300.773 532.023H302.773ZM301.137 527.42C300.096 526.197 298.608 525.209 296.742 524.42L295.963 526.262C297.642 526.973 298.836 527.803 299.613 528.716L301.137 527.42ZM296.746 524.422C294.929 523.643 292.725 522.946 290.143 522.323L289.675 524.268C292.184 524.873 294.275 525.539 295.958 526.26L296.746 524.422ZM290.153 522.326L282.55 520.416L282.063 522.356L289.666 524.265L290.153 522.326ZM282.543 520.415C276.766 519.01 272.283 516.831 269.03 513.925L267.697 515.416C271.262 518.601 276.074 520.9 282.07 522.358L282.543 520.415ZM269.03 513.925C265.863 511.096 264.262 507.282 264.284 502.368L262.284 502.359C262.26 507.764 264.046 512.154 267.697 515.416L269.03 513.925ZM264.284 502.358C264.262 498.323 265.332 494.841 267.471 491.868L265.847 490.7C263.44 494.046 262.26 497.95 262.284 502.369L264.284 502.358ZM267.468 491.872C269.648 488.872 272.649 486.511 276.507 484.801L275.697 482.972C271.556 484.807 268.261 487.378 265.85 490.696L267.468 491.872ZM276.507 484.801C280.361 483.093 284.765 482.227 289.739 482.227V480.227C284.531 480.227 279.844 481.134 275.697 482.972L276.507 484.801ZM289.739 482.227C294.807 482.227 299.182 483.094 302.89 484.795L303.724 482.977C299.704 481.133 295.034 480.227 289.739 480.227V482.227ZM302.892 484.796C306.632 486.502 309.505 488.857 311.549 491.848L313.201 490.72C310.927 487.393 307.754 484.816 303.722 482.977L302.892 484.796ZM311.549 491.848C313.588 494.832 314.651 498.297 314.716 502.278L316.716 502.245C316.645 497.908 315.48 494.055 313.201 490.72L311.549 491.848ZM315.716 501.261H301.568V503.261H315.716V501.261ZM354.179 499.636H355.179V498.636H354.179V499.636ZM354.179 510.545V511.545H355.179V510.545H354.179ZM322.645 510.545H321.645V511.545H322.645V510.545ZM322.645 499.636V498.636H321.645V499.636H322.645ZM329.804 487.091V486.091H328.804V487.091H329.804ZM344.327 487.091H345.327V486.091H344.327V487.091ZM344.94 539.045L344.062 539.524L344.069 539.536L344.94 539.045ZM346.645 540.58L346.268 541.506L346.278 541.51L346.645 540.58ZM351.281 540.852L351.446 541.839L351.462 541.836L351.477 541.833L351.281 540.852ZM352.849 540.545L353.828 540.339L353.626 539.382L352.665 539.563L352.849 540.545ZM355.134 551.352L355.432 552.307L356.3 552.035L356.112 551.145L355.134 551.352ZM352.065 552.136L351.847 551.161L351.839 551.162L351.831 551.164L352.065 552.136ZM347.259 552.716L347.222 551.717L347.22 551.717L347.259 552.716ZM338.054 551.318L337.676 552.244L337.678 552.245L338.054 551.318ZM331.952 546.341L332.792 545.798L331.952 546.341ZM329.804 537.818L330.804 537.825V537.818H329.804ZM353.179 499.636V510.545H355.179V499.636H353.179ZM354.179 509.545H322.645V511.545H354.179V509.545ZM323.645 510.545V499.636H321.645V510.545H323.645ZM322.645 500.636H354.179V498.636H322.645V500.636ZM329.804 488.091H344.327V486.091H329.804V488.091ZM343.327 487.091V535.909H345.327V487.091H343.327ZM343.327 535.909C343.327 537.331 343.54 538.567 344.062 539.524L345.818 538.567C345.522 538.024 345.327 537.169 345.327 535.909H343.327ZM344.069 539.536C344.581 540.447 345.318 541.12 346.269 541.506L347.021 539.653C346.517 539.448 346.118 539.099 345.812 538.555L344.069 539.536ZM346.278 541.51C347.167 541.86 348.159 542.023 349.236 542.023V540.023C348.358 540.023 347.623 539.89 347.011 539.649L346.278 541.51ZM349.236 542.023C349.973 542.023 350.71 541.961 351.446 541.839L351.117 539.866C350.489 539.971 349.862 540.023 349.236 540.023V542.023ZM351.477 541.833C352.158 541.697 352.676 541.595 353.034 541.528L352.665 539.563C352.296 539.632 351.768 539.735 351.085 539.872L351.477 541.833ZM351.871 540.752L354.155 551.559L356.112 551.145L353.828 540.339L351.871 540.752ZM354.835 550.398C354.147 550.613 353.155 550.867 351.847 551.161L352.284 553.112C353.612 552.815 354.666 552.546 355.432 552.307L354.835 550.398ZM351.831 551.164C350.597 551.462 349.066 551.65 347.222 551.717L347.295 553.715C349.224 553.646 350.897 553.447 352.3 553.108L351.831 551.164ZM347.22 551.717C343.829 551.849 340.908 551.395 338.43 550.391L337.678 552.245C340.473 553.377 343.688 553.856 347.297 553.715L347.22 551.717ZM338.432 550.393C335.997 549.397 334.129 547.867 332.792 545.798L331.112 546.884C332.684 549.315 334.883 551.103 337.676 552.244L338.432 550.393ZM332.792 545.798C331.469 543.752 330.782 541.116 330.804 537.825L328.804 537.812C328.78 541.384 329.525 544.43 331.112 546.884L332.792 545.798ZM330.804 537.818V487.091H328.804V537.818H330.804ZM397.219 529.705H396.219L396.219 529.714L397.219 529.705ZM397.219 499.636V498.636H396.219V499.636H397.219ZM411.741 499.636H412.741V498.636H411.741V499.636ZM411.741 552V553H412.741V552H411.741ZM397.798 552H396.798V553H397.798V552ZM397.798 542.489H398.798V541.489H397.798V542.489ZM397.253 542.489V541.489H396.566L396.32 542.129L397.253 542.489ZM391.355 549.886L390.794 549.059L390.791 549.061L391.355 549.886ZM372.128 550.295L372.641 549.437L372.128 550.295ZM365.889 543.511L364.996 543.961L364.999 543.967L365.889 543.511ZM363.639 532.977H362.639L362.639 532.983L363.639 532.977ZM363.639 499.636V498.636H362.639V499.636H363.639ZM378.162 499.636H379.162V498.636H378.162V499.636ZM378.162 530.386H377.162L377.162 530.394L378.162 530.386ZM380.651 537.716L381.39 537.042L380.651 537.716ZM392.139 539.216L392.602 540.102L392.613 540.097L392.139 539.216ZM395.821 535.602L394.963 535.088L394.958 535.097L395.821 535.602ZM398.219 529.705V499.636H396.219V529.705H398.219ZM397.219 500.636H411.741V498.636H397.219V500.636ZM410.741 499.636V552H412.741V499.636H410.741ZM411.741 551H397.798V553H411.741V551ZM398.798 552V542.489H396.798V552H398.798ZM397.798 541.489H397.253V543.489H397.798V541.489ZM396.32 542.129C395.212 545.005 393.377 547.308 390.794 549.059L391.916 550.714C394.833 548.737 396.93 546.109 398.186 542.848L396.32 542.129ZM390.791 549.061C388.259 550.791 385.136 551.682 381.366 551.682V553.682C385.461 553.682 388.996 552.709 391.919 550.712L390.791 549.061ZM381.366 551.682C378.023 551.682 375.126 550.924 372.641 549.437L371.614 551.154C374.448 552.849 377.71 553.682 381.366 553.682V551.682ZM372.641 549.437C370.153 547.949 368.2 545.832 366.779 543.056L364.999 543.967C366.579 547.055 368.784 549.46 371.614 551.154L372.641 549.437ZM366.782 543.061C365.389 540.297 364.661 536.945 364.639 532.972L362.639 532.983C362.663 537.191 363.434 540.862 364.996 543.961L366.782 543.061ZM364.639 532.977V499.636H362.639V532.977H364.639ZM363.639 500.636H378.162V498.636H363.639V500.636ZM377.162 499.636V530.386H379.162V499.636H377.162ZM377.162 530.394C377.186 533.662 378.067 536.366 379.911 538.39L381.39 537.042C379.961 535.475 379.183 533.293 379.162 530.379L377.162 530.394ZM379.911 538.39C381.763 540.421 384.24 541.409 387.23 541.409V539.409C384.72 539.409 382.811 538.601 381.39 537.042L379.911 538.39ZM387.23 541.409C389.138 541.409 390.934 540.974 392.602 540.102L391.676 538.33C390.299 539.049 388.822 539.409 387.23 539.409V541.409ZM392.613 540.097C394.308 539.186 395.666 537.846 396.684 536.108L394.958 535.097C394.113 536.54 393.016 537.61 391.666 538.335L392.613 540.097ZM396.679 536.117C397.75 534.331 398.243 532.172 398.219 529.695L396.219 529.714C396.24 531.918 395.801 533.692 394.964 535.088L396.679 536.117ZM431.847 549.784L431.304 550.624L431.311 550.629L431.847 549.784ZM424.21 540.682L423.303 541.102L423.306 541.108L424.21 540.682ZM424.312 510.92L425.212 511.357L425.213 511.355L424.312 510.92ZM432.017 501.955L432.542 502.806L432.544 502.805L432.017 501.955ZM449.949 500.455L449.493 501.345L449.506 501.351L449.949 500.455ZM454.722 504.136L453.947 504.768L453.952 504.775L453.957 504.781L454.722 504.136ZM457.517 508.432L456.606 508.843L456.871 509.432H457.517V508.432ZM457.96 508.432V509.432H458.96V508.432H457.96ZM457.96 482.182V481.182H456.96V482.182H457.96ZM472.449 482.182H473.449V481.182H472.449V482.182ZM472.449 552V553H473.449V552H472.449ZM458.131 552H457.131V553H458.131V552ZM458.131 543.614H459.131V542.614H458.131V543.614ZM457.517 543.614V542.614H456.881L456.612 543.189L457.517 543.614ZM454.619 547.943L453.866 547.286L453.865 547.286L454.619 547.943ZM449.812 551.455L449.386 550.55L449.382 550.552L449.812 551.455ZM453.188 539.386L453.807 540.172L453.808 540.17L453.188 539.386ZM456.938 533.966L456.003 533.609L456 533.617L456.938 533.966ZM456.972 517.705L457.908 517.352L456.972 517.705ZM441.222 512.455L440.601 511.67L441.222 512.455ZM437.506 533.898L436.564 534.236L436.569 534.247L437.506 533.898ZM441.222 539.352L440.589 540.127L440.595 540.132L440.601 540.136L441.222 539.352ZM442.653 551.852C438.858 551.852 435.442 550.879 432.382 548.939L431.311 550.629C434.705 552.78 438.495 553.852 442.653 553.852V551.852ZM432.389 548.944C429.365 546.992 426.934 544.114 425.115 540.255L423.306 541.108C425.259 545.25 427.919 548.439 431.304 550.624L432.389 548.944ZM425.118 540.261C423.331 536.405 422.415 531.626 422.415 525.886H420.415C420.415 531.828 421.362 536.913 423.303 541.102L425.118 540.261ZM422.415 525.886C422.415 519.986 423.366 515.159 425.212 511.357L423.413 510.484C421.396 514.637 420.415 519.786 420.415 525.886H422.415ZM425.213 511.355C427.077 507.496 429.527 504.666 432.542 502.806L431.492 501.104C428.098 503.198 425.412 506.345 423.412 510.486L425.213 511.355ZM432.544 502.805C435.611 500.904 438.962 499.955 442.619 499.955V497.955C438.595 497.955 434.878 499.005 431.49 501.105L432.544 502.805ZM442.619 499.955C445.444 499.955 447.719 500.437 449.493 501.345L450.404 499.564C448.27 498.472 445.659 497.955 442.619 497.955V499.955ZM449.506 501.351C451.375 502.275 452.846 503.418 453.947 504.768L455.497 503.504C454.188 501.9 452.477 500.589 450.392 499.558L449.506 501.351ZM453.957 504.781C455.138 506.181 456.015 507.535 456.606 508.843L458.428 508.02C457.746 506.51 456.76 505.001 455.486 503.491L453.957 504.781ZM457.517 509.432H457.96V507.432H457.517V509.432ZM458.96 508.432V482.182H456.96V508.432H458.96ZM457.96 483.182H472.449V481.182H457.96V483.182ZM471.449 482.182V552H473.449V482.182H471.449ZM472.449 551H458.131V553H472.449V551ZM459.131 552V543.614H457.131V552H459.131ZM458.131 542.614H457.517V544.614H458.131V542.614ZM456.612 543.189C455.976 544.546 455.066 545.912 453.866 547.286L455.373 548.601C456.673 547.111 457.695 545.591 458.423 544.038L456.612 543.189ZM453.865 547.286C452.743 548.575 451.259 549.667 449.386 550.55L450.239 552.359C452.32 551.378 454.041 550.13 455.373 548.6L453.865 547.286ZM449.382 550.552C447.596 551.403 445.366 551.852 442.653 551.852V553.852C445.577 553.852 448.12 553.369 450.243 552.357L449.382 550.552ZM447.256 542.295C449.788 542.295 451.993 541.602 453.807 540.172L452.568 538.601C451.155 539.716 449.405 540.295 447.256 540.295V542.295ZM453.808 540.17C455.612 538.742 456.959 536.772 457.875 534.315L456 533.617C455.189 535.796 454.035 537.44 452.567 538.602L453.808 540.17ZM457.872 534.323C458.811 531.866 459.267 529.024 459.267 525.818H457.267C457.267 528.84 456.837 531.43 456.003 533.609L457.872 534.323ZM459.267 525.818C459.267 522.615 458.823 519.786 457.908 517.352L456.036 518.057C456.847 520.214 457.267 522.794 457.267 525.818H459.267ZM457.908 517.352C456.991 514.915 455.64 512.976 453.829 511.592L452.615 513.181C454.076 514.297 455.225 515.903 456.036 518.057L457.908 517.352ZM453.829 511.592C451.994 510.191 449.785 509.511 447.256 509.511V511.511C449.409 511.511 451.176 512.082 452.615 513.181L453.829 511.592ZM447.256 509.511C444.678 509.511 442.439 510.215 440.601 511.67L441.842 513.239C443.277 512.103 445.061 511.511 447.256 511.511V509.511ZM440.601 511.67C438.797 513.099 437.46 515.058 436.567 517.497L438.445 518.185C439.233 516.033 440.374 514.401 441.842 513.239L440.601 511.67ZM436.567 517.497C435.677 519.925 435.244 522.705 435.244 525.818H437.244C437.244 522.886 437.652 520.348 438.445 518.185L436.567 517.497ZM435.244 525.818C435.244 528.954 435.677 531.765 436.565 534.236L438.447 533.56C437.652 531.348 437.244 528.773 437.244 525.818H435.244ZM436.569 534.247C437.483 536.7 438.814 538.677 440.589 540.127L441.854 538.578C440.402 537.391 439.256 535.732 438.443 533.549L436.569 534.247ZM440.601 540.136C442.439 541.591 444.678 542.295 447.256 542.295V540.295C445.061 540.295 443.277 539.704 441.842 538.568L440.601 540.136ZM494.344 549.75L493.848 550.619L493.854 550.622L494.344 549.75ZM485.412 540.409L484.524 540.868L484.525 540.87L485.412 540.409ZM485.412 511.875L484.523 511.418L485.412 511.875ZM494.241 502.364L493.73 501.504L493.728 501.506L494.241 502.364ZM517.321 500.625L516.971 501.562L516.979 501.565L517.321 500.625ZM525.162 505.568L524.458 506.279L524.462 506.282L525.162 505.568ZM530.412 513.886L529.475 514.237L529.476 514.239L530.412 513.886ZM532.287 529.534V530.534H533.287V529.534H532.287ZM488.071 529.534H487.071V530.534H488.071V529.534ZM488.071 520.534V519.534H487.071V520.534H488.071ZM518.616 520.534V521.534H519.616V520.534H518.616ZM517.253 514.977L516.382 515.468L517.253 514.977ZM513.469 511.193L512.963 512.056L512.971 512.06L512.978 512.064L513.469 511.193ZM502.048 511.33L502.559 512.189L502.563 512.187L502.048 511.33ZM498.094 515.386L498.963 515.88L498.966 515.875L498.094 515.386ZM496.628 521.011L495.628 521V521.011H496.628ZM498.06 536.284L497.167 536.736L497.172 536.744L498.06 536.284ZM512.923 541.5L512.602 540.553L512.923 541.5ZM516.366 539.455L515.677 538.73L516.366 539.455ZM518.548 536.114L518.614 535.116L517.876 535.067L517.613 535.759L518.548 536.114ZM531.98 537L532.959 537.207L533.197 536.078L532.046 536.002L531.98 537ZM527.787 545.455L527.035 544.795L527.035 544.796L527.787 545.455ZM519.673 551.045L520.045 551.974L520.048 551.973L519.673 551.045ZM508.253 552.023C503.002 552.023 498.542 550.96 494.833 548.878L493.854 550.622C497.918 552.904 502.731 554.023 508.253 554.023V552.023ZM494.839 548.881C491.146 546.774 488.303 543.803 486.299 539.948L484.525 540.87C486.702 545.06 489.814 548.317 493.848 550.619L494.839 548.881ZM486.3 539.95C484.297 536.074 483.276 531.453 483.276 526.057H481.276C481.276 531.706 482.345 536.654 484.524 540.868L486.3 539.95ZM483.276 526.057C483.276 520.801 484.295 516.236 486.301 512.332L484.523 511.418C482.347 515.651 481.276 520.54 481.276 526.057H483.276ZM486.301 512.332C488.31 508.424 491.126 505.395 494.755 503.222L493.728 501.506C489.766 503.878 486.696 507.19 484.523 511.418L486.301 512.332ZM494.753 503.223C498.394 501.056 502.688 499.955 507.673 499.955V497.955C502.385 497.955 497.726 499.126 493.73 501.504L494.753 503.223ZM507.673 499.955C511.019 499.955 514.115 500.493 516.971 501.562L517.671 499.688C514.573 498.529 511.237 497.955 507.673 497.955V499.955ZM516.979 501.565C519.846 502.607 522.336 504.178 524.458 506.279L525.865 504.857C523.534 502.549 520.796 500.825 517.663 499.685L516.979 501.565ZM524.462 506.282C526.594 508.372 528.27 511.015 529.475 514.237L531.349 513.536C530.054 510.076 528.229 507.174 525.862 504.854L524.462 506.282ZM529.476 514.239C530.674 517.42 531.287 521.182 531.287 525.545H533.287C533.287 521 532.65 516.989 531.348 513.534L529.476 514.239ZM531.287 525.545V529.534H533.287V525.545H531.287ZM532.287 528.534H488.071V530.534H532.287V528.534ZM489.071 529.534V520.534H487.071V529.534H489.071ZM488.071 521.534H518.616V519.534H488.071V521.534ZM519.616 520.534C519.616 518.294 519.128 516.268 518.124 514.486L516.382 515.468C517.196 516.913 517.616 518.593 517.616 520.534H519.616ZM518.124 514.486C517.125 512.714 515.732 511.321 513.96 510.322L512.978 512.064C514.432 512.884 515.562 514.014 516.382 515.468L518.124 514.486ZM513.974 510.33C512.209 509.296 510.177 508.795 507.912 508.795V510.795C509.874 510.795 511.547 511.227 512.963 512.056L513.974 510.33ZM507.912 508.795C505.546 508.795 503.41 509.346 501.534 510.472L502.563 512.187C504.095 511.267 505.868 510.795 507.912 510.795V508.795ZM501.537 510.47C499.705 511.56 498.262 513.04 497.221 514.898L498.966 515.875C499.835 514.324 501.028 513.099 502.559 512.189L501.537 510.47ZM497.224 514.893C496.18 516.732 495.652 518.775 495.628 521L497.628 521.022C497.649 519.111 498.098 517.404 498.963 515.88L497.224 514.893ZM495.628 521.011V529.568H497.628V521.011H495.628ZM495.628 529.568C495.628 532.281 496.128 534.681 497.167 536.736L498.952 535.833C498.082 534.114 497.628 532.037 497.628 529.568H495.628ZM497.172 536.744C498.233 538.793 499.74 540.392 501.685 541.514L502.684 539.782C501.084 538.858 499.84 537.548 498.948 535.824L497.172 536.744ZM501.685 541.514C503.636 542.64 505.917 543.182 508.491 543.182V541.182C506.202 541.182 504.279 540.701 502.684 539.782L501.685 541.514ZM508.491 543.182C510.199 543.182 511.787 542.941 513.244 542.447L512.602 540.553C511.378 540.968 510.011 541.182 508.491 541.182V543.182ZM513.244 542.447C514.712 541.949 515.989 541.195 517.056 540.179L515.677 538.73C514.835 539.532 513.816 540.142 512.602 540.553L513.244 542.447ZM517.056 540.179C518.127 539.159 518.934 537.917 519.483 536.468L517.613 535.759C517.163 536.947 516.516 537.932 515.677 538.73L517.056 540.179ZM518.482 537.111L531.914 537.998L532.046 536.002L518.614 535.116L518.482 537.111ZM531.002 536.793C530.354 539.858 529.032 542.519 527.035 544.795L528.539 546.114C530.769 543.572 532.242 540.597 532.959 537.207L531.002 536.793ZM527.035 544.796C525.06 547.05 522.49 548.828 519.299 550.118L520.048 551.973C523.492 550.581 526.333 548.632 528.539 546.114L527.035 544.796ZM519.302 550.117C516.147 551.379 512.471 552.023 508.253 552.023V554.023C512.671 554.023 516.609 553.348 520.045 551.974L519.302 550.117ZM556.287 521.727L555.287 521.717V521.727H556.287ZM556.287 552V553H557.287V552H556.287ZM541.764 552H540.764V553H541.764V552ZM541.764 499.636V498.636H540.764V499.636H541.764ZM555.605 499.636H556.605V498.636H555.605V499.636ZM555.605 508.875H554.605V509.875H555.605V508.875ZM556.219 508.875V509.875H556.908L557.153 509.231L556.219 508.875ZM562.048 501.648L562.593 502.486L562.598 502.483L562.048 501.648ZM587.787 508.159L586.895 508.612L586.897 508.615L587.787 508.159ZM590.037 552V553H591.037V552H590.037ZM575.514 552H574.514V553H575.514V552ZM575.514 521.25L574.514 521.243V521.25H575.514ZM573.06 513.75L572.321 514.424L572.325 514.429L573.06 513.75ZM561.026 512.284L560.537 511.412L560.531 511.415L561.026 512.284ZM557.548 515.966L556.661 515.504L556.659 515.509L557.548 515.966ZM555.287 521.727V552H557.287V521.727H555.287ZM556.287 551H541.764V553H556.287V551ZM542.764 552V499.636H540.764V552H542.764ZM541.764 500.636H555.605V498.636H541.764V500.636ZM554.605 499.636V508.875H556.605V499.636H554.605ZM555.605 509.875H556.219V507.875H555.605V509.875ZM557.153 509.231C558.237 506.383 560.044 504.143 562.593 502.486L561.503 500.809C558.598 502.698 556.519 505.276 555.284 508.519L557.153 509.231ZM562.598 502.483C565.133 500.814 568.24 499.955 571.969 499.955V497.955C567.925 497.955 564.418 498.891 561.498 500.812L562.598 502.483ZM571.969 499.955C575.456 499.955 578.445 500.716 580.973 502.203L581.987 500.479C579.106 498.784 575.755 497.955 571.969 497.955V499.955ZM580.973 502.203C583.504 503.691 585.477 505.818 586.895 508.612L588.679 507.706C587.097 504.591 584.866 502.172 581.987 500.479L580.973 502.203ZM586.897 508.615C588.31 511.376 589.037 514.713 589.037 518.659H591.037C591.037 514.469 590.264 510.806 588.677 507.704L586.897 508.615ZM589.037 518.659V552H591.037V518.659H589.037ZM590.037 551H575.514V553H590.037V551ZM576.514 552V521.25H574.514V552H576.514ZM576.514 521.257C576.538 517.88 575.674 515.106 573.794 513.071L572.325 514.429C573.764 515.985 574.536 518.211 574.514 521.243L576.514 521.257ZM573.798 513.076C571.915 511.012 569.342 510.023 566.207 510.023V512.023C568.891 512.023 570.886 512.851 572.321 514.424L573.798 513.076ZM566.207 510.023C564.105 510.023 562.205 510.476 560.537 511.412L561.515 513.156C562.846 512.41 564.4 512.023 566.207 512.023V510.023ZM560.531 511.415C558.875 512.358 557.585 513.732 556.661 515.504L558.435 516.428C559.194 514.972 560.222 513.892 561.52 513.153L560.531 511.415ZM556.659 515.509C555.754 517.269 555.311 519.351 555.287 521.717L557.287 521.737C557.308 519.604 557.707 517.845 558.438 516.423L556.659 515.509ZM629.335 499.636H630.335V498.636H629.335V499.636ZM629.335 510.545V511.545H630.335V510.545H629.335ZM597.801 510.545H596.801V511.545H597.801V510.545ZM597.801 499.636V498.636H596.801V499.636H597.801ZM604.96 487.091V486.091H603.96V487.091H604.96ZM619.483 487.091H620.483V486.091H619.483V487.091ZM620.097 539.045L619.219 539.524L619.225 539.536L620.097 539.045ZM621.801 540.58L621.425 541.506L621.435 541.51L621.801 540.58ZM626.438 540.852L626.602 541.839L626.618 541.836L626.634 541.833L626.438 540.852ZM628.006 540.545L628.984 540.339L628.782 539.382L627.821 539.563L628.006 540.545ZM630.29 551.352L630.588 552.307L631.456 552.035L631.268 551.145L630.29 551.352ZM627.222 552.136L627.003 551.161L626.995 551.162L626.987 551.164L627.222 552.136ZM622.415 552.716L622.379 551.717L622.376 551.717L622.415 552.716ZM613.21 551.318L612.832 552.244L612.835 552.245L613.21 551.318ZM607.108 546.341L607.948 545.798L607.108 546.341ZM604.96 537.818L605.96 537.825V537.818H604.96ZM628.335 499.636V510.545H630.335V499.636H628.335ZM629.335 509.545H597.801V511.545H629.335V509.545ZM598.801 510.545V499.636H596.801V510.545H598.801ZM597.801 500.636H629.335V498.636H597.801V500.636ZM604.96 488.091H619.483V486.091H604.96V488.091ZM618.483 487.091V535.909H620.483V487.091H618.483ZM618.483 535.909C618.483 537.331 618.696 538.567 619.219 539.524L620.974 538.567C620.679 538.024 620.483 537.169 620.483 535.909H618.483ZM619.225 539.536C619.738 540.447 620.474 541.12 621.425 541.506L622.177 539.653C621.674 539.448 621.274 539.099 620.968 538.555L619.225 539.536ZM621.435 541.51C622.323 541.86 623.315 542.023 624.392 542.023V540.023C623.514 540.023 622.779 539.89 622.168 539.649L621.435 541.51ZM624.392 542.023C625.13 542.023 625.867 541.961 626.602 541.839L626.273 539.866C625.645 539.971 625.018 540.023 624.392 540.023V542.023ZM626.634 541.833C627.314 541.697 627.832 541.595 628.19 541.528L627.821 539.563C627.452 539.632 626.924 539.735 626.241 539.872L626.634 541.833ZM627.027 540.752L629.311 551.559L631.268 551.145L628.984 540.339L627.027 540.752ZM629.992 550.398C629.303 550.613 628.311 550.867 627.003 551.161L627.44 553.112C628.768 552.815 629.822 552.546 630.588 552.307L629.992 550.398ZM626.987 551.164C625.754 551.462 624.222 551.65 622.379 551.717L622.451 553.715C624.38 553.646 626.053 553.447 627.456 553.108L626.987 551.164ZM622.376 551.717C618.986 551.849 616.064 551.395 613.586 550.391L612.835 552.245C615.629 553.377 618.844 553.856 622.454 553.715L622.376 551.717ZM613.589 550.393C611.153 549.397 609.285 547.867 607.948 545.798L606.268 546.884C607.84 549.315 610.04 551.103 612.832 552.244L613.589 550.393ZM607.948 545.798C606.625 543.752 605.938 541.116 605.96 537.825L603.96 537.812C603.937 541.384 604.682 544.43 606.268 546.884L607.948 545.798ZM605.96 537.818V487.091H603.96V537.818H605.96Z" fill="black" mask="url(#path-38-outside-1_69_52)"/>
</g>
<defs>
<filter id="filter0_dd_69_52" x="95.0682" y="469.227" width="563.222" height="127.795" filterUnits="userSpaceOnUse" color-interpolation-filters="sRGB">
<feFlood flood-opacity="0" result="BackgroundImageFix"/>
<feColorMatrix in="SourceAlpha" type="matrix" values="0 0 0 0 0 0 0 0 0 0 0 0 0 0 0 0 0 0 127 0" result="hardAlpha"/>
<feMorphology radius="4" operator="erode" in="SourceAlpha" result="effect1_dropShadow_69_52"/>
<feOffset dy="4"/>
<feGaussianBlur stdDeviation="2"/>
<feComposite in2="hardAlpha" operator="out"/>
<feColorMatrix type="matrix" values="0 0 0 0 0.0470588 0 0 0 0 0.0470588 0 0 0 0 0.0509804 0 0 0 0.05 0"/>
<feBlend mode="normal" in2="BackgroundImageFix" result="effect1_dropShadow_69_52"/>
<feColorMatrix in="SourceAlpha" type="matrix" values="0 0 0 0 0 0 0 0 0 0 0 0 0 0 0 0 0 0 127 0" result="hardAlpha"/>
<feMorphology radius="4" operator="erode" in="SourceAlpha" result="effect2_dropShadow_69_52"/>
<feOffset dy="16"/>
<feGaussianBlur stdDeviation="16"/>
<feComposite in2="hardAlpha" operator="out"/>
<feColorMatrix type="matrix" values="0 0 0 0 0.0470588 0 0 0 0 0.0470588 0 0 0 0 0.0509804 0 0 0 0.1 0"/>
<feBlend mode="normal" in2="effect1_dropShadow_69_52" result="effect2_dropShadow_69_52"/>
<feBlend mode="normal" in="SourceGraphic" in2="effect2_dropShadow_69_52" result="shape"/>
</filter>
<linearGradient id="paint0_linear_69_52" x1="0" y1="375" x2="750" y2="375" gradientUnits="userSpaceOnUse">
<stop stop-color="#A6A6A6"/>
<stop offset="1" stop-color="white"/>
</linearGradient>
<linearGradient id="paint1_linear_69_52" x1="100" y1="534" x2="650" y2="534" gradientUnits="userSpaceOnUse">
<stop stop-color="#020264"/>
<stop offset="1" stop-color="#5271FF"/>
</linearGradient>
</defs>
</svg>
