<svg width="564" height="409" viewBox="0 0 564 409" fill="none" xmlns="http://www.w3.org/2000/svg">
<path d="M206.89 23.7644C169.908 36.609 139.554 47.527 139.554 48.0087C139.554 48.972 277.142 96.3368 280.058 96.3368C283.107 96.3368 419.237 48.972 419.237 48.0087C419.237 46.2426 283.372 -0.319405 278.733 0.00171661C276.214 0.00171661 243.872 10.7591 206.89 23.7644ZM287.879 40.623C289.867 41.9075 292.253 44.1553 293.314 45.6003C294.772 47.8481 299.676 48.0087 337.586 47.0453C360.915 46.4031 379.869 46.4031 379.472 46.8848C379.074 47.3665 359.987 48.6509 337.055 49.7748C300.869 51.3804 294.904 52.0227 292.651 54.431C285.493 61.9773 277.673 62.9406 272.768 56.8394C270.912 54.7522 269.454 51.3804 269.454 49.6143C269.454 47.6876 270.912 44.4764 272.768 42.3891C276.48 37.733 282.179 37.0907 287.879 40.623Z" fill="#020264"/>
<path d="M275.021 45.1186C268.526 52.986 280.986 60.2111 288.144 52.8254L291.325 49.6143L288.144 46.4031C284.698 42.8708 277.54 42.068 275.021 45.1186Z" fill="#020264"/>
<path d="M129.48 26.815C119.274 36.609 111.718 50.4171 111.718 59.2478C111.718 62.4589 112.116 62.2984 117.683 57.6422C125.239 51.3804 132.131 40.3019 134.915 30.1867C136.24 25.6911 136.903 21.8377 136.505 21.356C136.24 20.8743 133.059 23.4432 129.48 26.815Z" fill="#020264"/>
<path d="M423.214 22.1587C423.214 26.3332 428.648 40.4623 432.492 46.403C434.878 49.9353 439.385 55.0731 442.566 57.8026C447.603 61.9772 448.398 62.1377 448.398 59.7293C448.266 54.1098 444.82 45.1185 440.048 38.0539C434.878 30.5077 423.214 19.4292 423.214 22.1587Z" fill="#020264"/>
<path d="M105.091 28.9023C99.6562 41.1047 97.0052 61.014 99.2586 71.6108C100.452 77.0698 101.644 76.1065 104.826 67.5969C109.2 56.0367 110.791 45.7609 109.73 35.9669C108.802 26.0122 107.212 23.7644 105.091 28.9023Z" fill="#020264"/>
<path d="M452.11 27.2965C448.663 38.3751 450.387 56.3576 456.219 70.1657L458.737 76.1063L460.328 71.2896C462.846 63.4222 461.256 46.5636 456.749 35.0034C454.098 27.9388 452.64 25.5304 452.11 27.2965Z" fill="#020264"/>
<path d="M87.7266 58.766C84.2803 72.8952 86.2686 100.993 90.5102 100.993C92.3659 100.993 94.6193 91.0383 95.4146 79.9598C95.9448 72.0924 95.5471 66.9545 93.824 60.2111C92.4985 55.2338 91.0404 51.2198 90.5102 51.2198C89.98 51.2198 88.6545 54.5915 87.7266 58.766Z" fill="#020264"/>
<path d="M467.486 56.8393C463.509 67.4362 465.1 100.993 469.607 100.993C470.269 100.993 471.86 96.979 473.053 92.0016C475.439 82.047 474.909 70.0051 471.727 57.321L470.004 50.417L467.486 56.8393Z" fill="#020264"/>
<path d="M120.997 60.2111C112.514 65.9912 103.898 76.5881 100.849 84.616C99.3911 88.4694 98.5958 92.0017 98.9935 92.4834C100.452 94.2495 115.032 82.0471 119.937 74.9825C124.841 68.0785 129.878 56.0366 128.022 56.0366C127.359 56.0366 124.311 57.9633 120.997 60.2111Z" fill="#020264"/>
<path d="M432.625 60.3717C435.143 68.8813 443.229 80.281 451.315 86.7033C455.821 90.075 459.665 92.644 460.063 92.3228C461.521 90.3961 458.34 81.4049 453.966 75.3036C449.591 69.0419 435.011 56.0366 432.36 56.0366C431.829 56.0366 431.829 57.9633 432.625 60.3717Z" fill="#020264"/>
<path d="M398.294 65.8306C398.162 71.6107 397.366 75.6247 396.041 76.9092C393.655 79.3175 393.522 83.6526 395.643 86.2215C396.969 87.8271 396.969 88.4694 395.643 89.5933C394.715 90.2355 392.462 101.635 390.341 116.085C386.895 140.972 386.895 141.454 389.413 143.701C392.727 146.592 404.789 146.592 408.103 143.701C410.621 141.454 410.621 140.972 407.042 116.085C404.922 101.314 402.801 90.3961 401.74 89.5933C400.415 88.4694 400.415 87.8271 401.74 86.2215C403.861 83.6526 403.729 79.3175 401.343 76.9092C400.282 75.7852 399.222 71.2896 398.957 65.9912L398.559 56.8393L398.294 65.8306Z" fill="#020264"/>
<path d="M71.1577 86.7031C71.5554 92.1621 73.5436 100.672 75.3993 105.81C78.7131 114.801 85.7383 125.077 87.1964 123.15C88.6545 121.384 85.3407 102.277 82.1594 94.0888C79.1108 86.382 73.0134 76.909 71.0252 76.909C70.6275 76.909 70.6275 81.4047 71.1577 86.7031Z" fill="#020264"/>
<path d="M484.585 82.0469C479.283 88.7904 475.439 99.2267 473.716 111.429C472.39 122.026 472.523 122.668 475.571 121.384C481.006 118.815 490.55 90.2354 489.224 80.1202C488.827 76.909 488.561 76.909 484.585 82.0469Z" fill="#020264"/>
<path d="M217.759 125.237V167.303L223.592 174.207C229.954 181.593 239.365 186.57 254.211 190.424C266.008 193.475 302.327 192.351 313.196 188.658C323.8 184.965 336.393 177.098 340.237 171.478L343.683 166.501V124.755C343.683 85.7398 343.55 83.0103 341.43 83.8131C340.104 84.1342 325.789 89.4326 309.485 95.5338L280.058 106.452L251.162 95.3733C235.389 89.4326 221.338 84.1342 220.145 83.6525C217.892 83.0103 217.759 85.7398 217.759 125.237Z" fill="#020264"/>
<path d="M101.91 99.3875C96.0773 107.737 91.438 121.545 90.7753 131.82C90.1125 143.059 91.438 143.541 97.0052 134.389C102.97 124.595 106.681 111.75 106.151 101.956L105.754 93.9285L101.91 99.3875Z" fill="#020264"/>
<path d="M453.7 102.117C453.7 112.071 456.882 123.31 462.846 133.586C468.679 143.862 470.137 143.38 469.209 131.338C468.414 120.902 463.774 107.897 457.544 99.0661L453.833 93.7676L453.7 102.117Z" fill="#020264"/>
<path d="M69.8322 118.012C70.8926 125.237 77.3876 142.096 80.834 146.912C82.1595 148.679 84.9431 151.569 87.0639 153.174L90.9079 156.225L89.98 149.16C88.2568 136.155 79.1108 118.654 71.4228 113.516C69.1695 112.071 69.0369 112.392 69.8322 118.012Z" fill="#020264"/>
<path d="M483.79 118.494C477.692 125.398 471.33 139.848 470.004 150.124C469.209 155.583 469.342 155.904 471.86 154.298C476.102 151.569 482.862 141.293 485.645 133.747C488.694 125.077 491.212 113.837 490.285 112.714C490.02 112.232 487.103 114.961 483.79 118.494Z" fill="#020264"/>
<path d="M98.861 137.44C98.1982 140.009 97.8006 148.839 97.9331 157.188C97.9331 170.675 98.4633 173.565 101.645 181.111C105.091 189.139 105.489 189.621 106.947 186.731C107.742 184.965 108.405 176.776 108.405 167.625C108.405 153.495 108.007 150.445 104.826 142.256C102.838 137.279 100.982 133.104 100.584 133.104C100.186 133.104 99.3912 135.031 98.861 137.44Z" fill="#020264"/>
<path d="M455.424 141.935C452.11 150.606 451.712 153.335 451.712 167.625C451.712 176.455 452.375 184.965 453.17 186.731C454.496 189.3 455.158 188.658 458.472 180.309C461.919 171.799 462.316 169.391 462.051 155.583C462.051 147.234 461.388 138.564 460.593 136.316C459.268 132.462 459.135 132.623 455.424 141.935Z" fill="#020264"/>
<path d="M64 147.234C64 149.963 71.5554 161.363 77.9179 168.106C83.8827 174.529 93.5589 179.667 95.2821 177.579C96.475 176.134 91.3055 166.822 85.6058 160.079C78.8457 152.211 64 143.38 64 147.234Z" fill="#020264"/>
<path d="M486.175 150.445C478.753 154.78 471.33 162.808 466.16 172.281C463.112 178.221 464.57 179.024 471.727 175.653C479.018 172.281 485.115 166.18 491.477 155.583C498.37 144.183 497.972 143.701 486.175 150.445Z" fill="#020264"/>
<path d="M112.381 181.433C113.972 190.585 119.274 204.874 123.781 212.581C128.022 219.646 136.24 227.513 137.698 225.747C138.096 225.265 137.433 220.448 136.108 214.989C132.529 199.094 123.781 184.965 113.177 177.419C111.851 176.295 111.586 177.098 112.381 181.433Z" fill="#020264"/>
<path d="M441.373 182.235C438.059 185.447 433.42 191.387 431.299 195.562C427.72 202.145 421.888 220.448 421.888 224.623C421.888 230.885 435.408 215.792 440.445 203.75C444.024 195.08 448.796 178.061 448.001 176.937C447.736 176.616 444.687 179.024 441.373 182.235Z" fill="#020264"/>
<path d="M78.448 182.396C81.099 188.497 96.4749 204.232 103.368 208.085C107.477 210.333 112.116 211.778 114.634 211.457L119.009 210.975L111.188 200.86C102.97 190.263 91.7031 182.396 82.0269 180.309C77.255 179.345 77.1225 179.506 78.448 182.396Z" fill="#020264"/>
<path d="M472.655 182.075C463.774 185.286 456.219 191.387 448.398 201.663L441.108 210.975L445.482 211.457C453.833 212.42 472.125 198.131 480.343 184.323C482.862 179.988 482.862 179.666 480.608 179.827C479.283 179.827 475.704 180.79 472.655 182.075Z" fill="#020264"/>
<path d="M200.263 214.508C193.9 219.325 190.056 223.339 189.924 224.944C189.924 227.674 194.828 227.834 275.552 227.834C332.018 227.834 361.975 228.476 363.698 229.44C366.879 231.527 367.012 237.789 363.831 241.161C361.577 243.569 353.492 243.89 275.684 243.89H189.924V249.51V255.129H280.058C356.938 255.129 370.193 254.808 370.193 252.881C370.193 251.597 369.53 250.312 368.735 249.991C367.807 249.67 368.337 246.941 370.061 242.766C374.037 233.614 372.844 229.921 362.24 217.558L353.227 206.962H281.782H210.469L200.263 214.508Z" fill="#020264"/>
<path d="M142.205 214.668C146.712 224.302 153.737 232.009 164.871 239.073L174.68 245.335L161.955 245.495C148.435 245.495 141.012 247.743 133.987 253.684C130.408 256.895 130.276 257.377 132.264 258.822C136.24 261.551 159.437 260.588 166.064 257.377C178.127 251.757 180.778 244.693 174.68 233.935C169.378 224.462 153.737 211.939 143.663 209.37L139.289 208.246L142.205 214.668Z" fill="#020264"/>
<path d="M411.151 211.618C403.198 215.471 390.076 226.55 386.232 232.812C381.725 240.197 381.195 247.101 385.039 251.276C390.739 257.538 398.692 260.106 412.477 260.106C432.36 260.106 433.95 258.019 420.032 250.152C412.875 245.977 410.489 245.496 398.692 245.496L385.437 245.335L395.245 239.073C406.247 232.009 413.405 224.302 417.779 214.829C421.225 207.604 420.43 207.283 411.151 211.618Z" fill="#020264"/>
<path d="M87.8592 212.902C81.6293 214.347 82.4246 216.113 91.438 221.091C103.5 227.674 115.032 230.403 123.118 228.476C126.564 227.674 129.613 226.228 129.878 225.265C130.408 223.178 117.551 215.792 109.067 213.544C103.103 211.778 93.9565 211.618 87.8592 212.902Z" fill="#020264"/>
<path d="M451.314 213.384C444.554 215.15 429.841 222.857 429.841 224.784C429.841 227.995 441.108 229.921 449.856 228.155C460.328 225.907 477.295 217.237 475.306 214.829C473.451 212.581 458.075 211.618 451.314 213.384Z" fill="#020264"/>
<path d="M119.009 234.899C116.093 236.023 111.983 238.11 109.73 239.394L105.886 241.963L111.056 243.89C113.972 244.853 121.792 246.138 128.287 246.459C138.626 247.101 141.277 246.78 147.507 243.569C151.484 241.482 154.665 239.234 154.532 238.27C153.87 233.454 128.95 231.045 119.009 234.899Z" fill="#020264"/>
<path d="M412.212 234.899C408.766 236.022 405.584 237.467 405.054 237.949C403.596 239.876 416.851 245.817 424.407 246.619C432.625 247.583 450.519 244.532 451.845 242.124C452.242 241.321 449.724 239.073 446.278 237.307C438.325 232.972 421.225 231.687 412.212 234.899Z" fill="#020264"/>
<path d="M169.246 263.96C159.304 272.951 156.786 277.126 160.1 278.731C164.474 280.658 180.778 262.194 179.054 257.056C178.922 256.253 174.415 259.304 169.246 263.96Z" fill="#020264"/>
<path d="M381.46 258.501C381.99 260.588 383.448 264.12 384.641 266.208C387.027 270.703 396.306 279.213 398.957 279.213C402.536 279.213 400.547 272.951 395.776 268.616C392.992 266.208 388.485 262.033 385.569 259.464C380.665 254.808 380.532 254.808 381.46 258.501Z" fill="#020264"/>
<path d="M189.924 264.762C189.924 267.974 190.851 267.974 280.058 267.974C369.265 267.974 370.193 267.974 370.193 264.762C370.193 261.551 369.265 261.551 280.058 261.551C190.851 261.551 189.924 261.551 189.924 264.762Z" fill="#020264"/>
<g filter="url(#filter0_dd_0_1)">
<mask id="path-37-outside-1_0_1" maskUnits="userSpaceOnUse" x="27" y="291" width="510" height="75" fill="black">
<rect fill="white" x="27" y="291" width="510" height="75"/>
<path d="M71.1932 293.182H85.9545V338.523C85.9545 343.614 84.7386 348.068 82.3068 351.886C79.8977 355.705 76.5227 358.682 72.1818 360.818C67.8409 362.932 62.7841 363.989 57.0114 363.989C51.2159 363.989 46.1477 362.932 41.8068 360.818C37.4659 358.682 34.0909 355.705 31.6818 351.886C29.2727 348.068 28.0682 343.614 28.0682 338.523V293.182H42.8295V337.261C42.8295 339.92 43.4091 342.284 44.5682 344.352C45.75 346.42 47.4091 348.045 49.5455 349.227C51.6818 350.409 54.1705 351 57.0114 351C59.875 351 62.3636 350.409 64.4773 349.227C66.6136 348.045 68.2614 346.42 69.4205 344.352C70.6023 342.284 71.1932 339.92 71.1932 337.261V293.182ZM156.497 293.182V363H143.747L113.372 319.057H112.861V363H98.0994V293.182H111.054L141.19 337.091H141.804V293.182H156.497Z"/>
<path d="M206.568 313.261C206.295 310.511 205.125 308.375 203.057 306.852C200.989 305.33 198.182 304.568 194.636 304.568C192.227 304.568 190.193 304.909 188.534 305.591C186.875 306.25 185.602 307.17 184.716 308.352C183.852 309.534 183.42 310.875 183.42 312.375C183.375 313.625 183.636 314.716 184.205 315.648C184.795 316.58 185.602 317.386 186.625 318.068C187.648 318.727 188.83 319.307 190.17 319.807C191.511 320.284 192.943 320.693 194.466 321.034L200.739 322.534C203.784 323.216 206.58 324.125 209.125 325.261C211.67 326.398 213.875 327.795 215.739 329.455C217.602 331.114 219.045 333.068 220.068 335.318C221.114 337.568 221.648 340.148 221.67 343.057C221.648 347.33 220.557 351.034 218.398 354.17C216.261 357.284 213.17 359.705 209.125 361.432C205.102 363.136 200.25 363.989 194.568 363.989C188.932 363.989 184.023 363.125 179.841 361.398C175.682 359.67 172.432 357.114 170.091 353.727C167.773 350.318 166.557 346.102 166.443 341.08H180.727C180.886 343.42 181.557 345.375 182.739 346.943C183.943 348.489 185.545 349.659 187.545 350.455C189.568 351.227 191.852 351.614 194.398 351.614C196.898 351.614 199.068 351.25 200.909 350.523C202.773 349.795 204.216 348.784 205.239 347.489C206.261 346.193 206.773 344.705 206.773 343.023C206.773 341.455 206.307 340.136 205.375 339.068C204.466 338 203.125 337.091 201.352 336.341C199.602 335.591 197.455 334.909 194.909 334.295L187.307 332.386C181.42 330.955 176.773 328.716 173.364 325.67C169.955 322.625 168.261 318.523 168.284 313.364C168.261 309.136 169.386 305.443 171.659 302.284C173.955 299.125 177.102 296.659 181.102 294.886C185.102 293.114 189.648 292.227 194.739 292.227C199.92 292.227 204.443 293.114 208.307 294.886C212.193 296.659 215.216 299.125 217.375 302.284C219.534 305.443 220.648 309.102 220.716 313.261H206.568ZM259.179 310.636V321.545H227.645V310.636H259.179ZM234.804 298.091H249.327V346.909C249.327 348.25 249.531 349.295 249.94 350.045C250.349 350.773 250.918 351.284 251.645 351.58C252.395 351.875 253.259 352.023 254.236 352.023C254.918 352.023 255.599 351.966 256.281 351.852C256.963 351.716 257.486 351.614 257.849 351.545L260.134 362.352C259.406 362.58 258.384 362.841 257.065 363.136C255.747 363.455 254.145 363.648 252.259 363.716C248.759 363.852 245.69 363.386 243.054 362.318C240.44 361.25 238.406 359.591 236.952 357.341C235.497 355.091 234.781 352.25 234.804 348.818V298.091ZM302.219 340.705V310.636H316.741V363H302.798V353.489H302.253C301.071 356.557 299.105 359.023 296.355 360.886C293.628 362.75 290.298 363.682 286.366 363.682C282.866 363.682 279.787 362.886 277.128 361.295C274.469 359.705 272.389 357.443 270.889 354.511C269.412 351.58 268.662 348.068 268.639 343.977V310.636H283.162V341.386C283.185 344.477 284.014 346.92 285.651 348.716C287.287 350.511 289.48 351.409 292.23 351.409C293.98 351.409 295.616 351.011 297.139 350.216C298.662 349.398 299.889 348.193 300.821 346.602C301.776 345.011 302.241 343.045 302.219 340.705ZM347.653 363.852C343.676 363.852 340.074 362.83 336.847 360.784C333.642 358.716 331.097 355.682 329.21 351.682C327.347 347.659 326.415 342.727 326.415 336.886C326.415 330.886 327.381 325.898 329.312 321.92C331.244 317.92 333.813 314.932 337.017 312.955C340.244 310.955 343.778 309.955 347.619 309.955C350.551 309.955 352.994 310.455 354.949 311.455C356.926 312.432 358.517 313.659 359.722 315.136C360.949 316.591 361.881 318.023 362.517 319.432H362.96V293.182H377.449V363H363.131V354.614H362.517C361.835 356.068 360.869 357.511 359.619 358.943C358.392 360.352 356.79 361.523 354.812 362.455C352.858 363.386 350.472 363.852 347.653 363.852ZM352.256 352.295C354.597 352.295 356.574 351.659 358.188 350.386C359.824 349.091 361.074 347.284 361.938 344.966C362.824 342.648 363.267 339.932 363.267 336.818C363.267 333.705 362.835 331 361.972 328.705C361.108 326.409 359.858 324.636 358.222 323.386C356.585 322.136 354.597 321.511 352.256 321.511C349.869 321.511 347.858 322.159 346.222 323.455C344.585 324.75 343.347 326.545 342.506 328.841C341.665 331.136 341.244 333.795 341.244 336.818C341.244 339.864 341.665 342.557 342.506 344.898C343.369 347.216 344.608 349.034 346.222 350.352C347.858 351.648 349.869 352.295 352.256 352.295ZM413.253 364.023C407.866 364.023 403.23 362.932 399.344 360.75C395.48 358.545 392.503 355.432 390.412 351.409C388.321 347.364 387.276 342.58 387.276 337.057C387.276 331.67 388.321 326.943 390.412 322.875C392.503 318.807 395.446 315.636 399.241 313.364C403.06 311.091 407.537 309.955 412.673 309.955C416.128 309.955 419.344 310.511 422.321 311.625C425.321 312.716 427.935 314.364 430.162 316.568C432.412 318.773 434.162 321.545 435.412 324.886C436.662 328.205 437.287 332.091 437.287 336.545V340.534H393.071V331.534H423.616C423.616 329.443 423.162 327.591 422.253 325.977C421.344 324.364 420.082 323.102 418.469 322.193C416.878 321.261 415.026 320.795 412.912 320.795C410.707 320.795 408.753 321.307 407.048 322.33C405.366 323.33 404.048 324.682 403.094 326.386C402.139 328.068 401.651 329.943 401.628 332.011V340.568C401.628 343.159 402.105 345.398 403.06 347.284C404.037 349.17 405.412 350.625 407.185 351.648C408.957 352.67 411.06 353.182 413.491 353.182C415.105 353.182 416.582 352.955 417.923 352.5C419.264 352.045 420.412 351.364 421.366 350.455C422.321 349.545 423.048 348.432 423.548 347.114L436.98 348C436.298 351.227 434.901 354.045 432.787 356.455C430.696 358.841 427.991 360.705 424.673 362.045C421.378 363.364 417.571 364.023 413.253 364.023ZM461.287 332.727V363H446.764V310.636H460.605V319.875H461.219C462.378 316.83 464.321 314.42 467.048 312.648C469.776 310.852 473.082 309.955 476.969 309.955C480.605 309.955 483.776 310.75 486.48 312.341C489.185 313.932 491.287 316.205 492.787 319.159C494.287 322.091 495.037 325.591 495.037 329.659V363H480.514V332.25C480.537 329.045 479.719 326.545 478.06 324.75C476.401 322.932 474.116 322.023 471.207 322.023C469.253 322.023 467.526 322.443 466.026 323.284C464.548 324.125 463.389 325.352 462.548 326.966C461.73 328.557 461.31 330.477 461.287 332.727ZM534.335 310.636V321.545H502.801V310.636H534.335ZM509.96 298.091H524.483V346.909C524.483 348.25 524.688 349.295 525.097 350.045C525.506 350.773 526.074 351.284 526.801 351.58C527.551 351.875 528.415 352.023 529.392 352.023C530.074 352.023 530.756 351.966 531.438 351.852C532.119 351.716 532.642 351.614 533.006 351.545L535.29 362.352C534.563 362.58 533.54 362.841 532.222 363.136C530.903 363.455 529.301 363.648 527.415 363.716C523.915 363.852 520.847 363.386 518.21 362.318C515.597 361.25 513.563 359.591 512.108 357.341C510.653 355.091 509.938 352.25 509.96 348.818V298.091Z"/>
</mask>
<path d="M71.1932 293.182H85.9545V338.523C85.9545 343.614 84.7386 348.068 82.3068 351.886C79.8977 355.705 76.5227 358.682 72.1818 360.818C67.8409 362.932 62.7841 363.989 57.0114 363.989C51.2159 363.989 46.1477 362.932 41.8068 360.818C37.4659 358.682 34.0909 355.705 31.6818 351.886C29.2727 348.068 28.0682 343.614 28.0682 338.523V293.182H42.8295V337.261C42.8295 339.92 43.4091 342.284 44.5682 344.352C45.75 346.42 47.4091 348.045 49.5455 349.227C51.6818 350.409 54.1705 351 57.0114 351C59.875 351 62.3636 350.409 64.4773 349.227C66.6136 348.045 68.2614 346.42 69.4205 344.352C70.6023 342.284 71.1932 339.92 71.1932 337.261V293.182ZM156.497 293.182V363H143.747L113.372 319.057H112.861V363H98.0994V293.182H111.054L141.19 337.091H141.804V293.182H156.497Z" fill="#020256"/>
<path d="M206.568 313.261C206.295 310.511 205.125 308.375 203.057 306.852C200.989 305.33 198.182 304.568 194.636 304.568C192.227 304.568 190.193 304.909 188.534 305.591C186.875 306.25 185.602 307.17 184.716 308.352C183.852 309.534 183.42 310.875 183.42 312.375C183.375 313.625 183.636 314.716 184.205 315.648C184.795 316.58 185.602 317.386 186.625 318.068C187.648 318.727 188.83 319.307 190.17 319.807C191.511 320.284 192.943 320.693 194.466 321.034L200.739 322.534C203.784 323.216 206.58 324.125 209.125 325.261C211.67 326.398 213.875 327.795 215.739 329.455C217.602 331.114 219.045 333.068 220.068 335.318C221.114 337.568 221.648 340.148 221.67 343.057C221.648 347.33 220.557 351.034 218.398 354.17C216.261 357.284 213.17 359.705 209.125 361.432C205.102 363.136 200.25 363.989 194.568 363.989C188.932 363.989 184.023 363.125 179.841 361.398C175.682 359.67 172.432 357.114 170.091 353.727C167.773 350.318 166.557 346.102 166.443 341.08H180.727C180.886 343.42 181.557 345.375 182.739 346.943C183.943 348.489 185.545 349.659 187.545 350.455C189.568 351.227 191.852 351.614 194.398 351.614C196.898 351.614 199.068 351.25 200.909 350.523C202.773 349.795 204.216 348.784 205.239 347.489C206.261 346.193 206.773 344.705 206.773 343.023C206.773 341.455 206.307 340.136 205.375 339.068C204.466 338 203.125 337.091 201.352 336.341C199.602 335.591 197.455 334.909 194.909 334.295L187.307 332.386C181.42 330.955 176.773 328.716 173.364 325.67C169.955 322.625 168.261 318.523 168.284 313.364C168.261 309.136 169.386 305.443 171.659 302.284C173.955 299.125 177.102 296.659 181.102 294.886C185.102 293.114 189.648 292.227 194.739 292.227C199.92 292.227 204.443 293.114 208.307 294.886C212.193 296.659 215.216 299.125 217.375 302.284C219.534 305.443 220.648 309.102 220.716 313.261H206.568ZM259.179 310.636V321.545H227.645V310.636H259.179ZM234.804 298.091H249.327V346.909C249.327 348.25 249.531 349.295 249.94 350.045C250.349 350.773 250.918 351.284 251.645 351.58C252.395 351.875 253.259 352.023 254.236 352.023C254.918 352.023 255.599 351.966 256.281 351.852C256.963 351.716 257.486 351.614 257.849 351.545L260.134 362.352C259.406 362.58 258.384 362.841 257.065 363.136C255.747 363.455 254.145 363.648 252.259 363.716C248.759 363.852 245.69 363.386 243.054 362.318C240.44 361.25 238.406 359.591 236.952 357.341C235.497 355.091 234.781 352.25 234.804 348.818V298.091ZM302.219 340.705V310.636H316.741V363H302.798V353.489H302.253C301.071 356.557 299.105 359.023 296.355 360.886C293.628 362.75 290.298 363.682 286.366 363.682C282.866 363.682 279.787 362.886 277.128 361.295C274.469 359.705 272.389 357.443 270.889 354.511C269.412 351.58 268.662 348.068 268.639 343.977V310.636H283.162V341.386C283.185 344.477 284.014 346.92 285.651 348.716C287.287 350.511 289.48 351.409 292.23 351.409C293.98 351.409 295.616 351.011 297.139 350.216C298.662 349.398 299.889 348.193 300.821 346.602C301.776 345.011 302.241 343.045 302.219 340.705ZM347.653 363.852C343.676 363.852 340.074 362.83 336.847 360.784C333.642 358.716 331.097 355.682 329.21 351.682C327.347 347.659 326.415 342.727 326.415 336.886C326.415 330.886 327.381 325.898 329.312 321.92C331.244 317.92 333.813 314.932 337.017 312.955C340.244 310.955 343.778 309.955 347.619 309.955C350.551 309.955 352.994 310.455 354.949 311.455C356.926 312.432 358.517 313.659 359.722 315.136C360.949 316.591 361.881 318.023 362.517 319.432H362.96V293.182H377.449V363H363.131V354.614H362.517C361.835 356.068 360.869 357.511 359.619 358.943C358.392 360.352 356.79 361.523 354.812 362.455C352.858 363.386 350.472 363.852 347.653 363.852ZM352.256 352.295C354.597 352.295 356.574 351.659 358.188 350.386C359.824 349.091 361.074 347.284 361.938 344.966C362.824 342.648 363.267 339.932 363.267 336.818C363.267 333.705 362.835 331 361.972 328.705C361.108 326.409 359.858 324.636 358.222 323.386C356.585 322.136 354.597 321.511 352.256 321.511C349.869 321.511 347.858 322.159 346.222 323.455C344.585 324.75 343.347 326.545 342.506 328.841C341.665 331.136 341.244 333.795 341.244 336.818C341.244 339.864 341.665 342.557 342.506 344.898C343.369 347.216 344.608 349.034 346.222 350.352C347.858 351.648 349.869 352.295 352.256 352.295ZM413.253 364.023C407.866 364.023 403.23 362.932 399.344 360.75C395.48 358.545 392.503 355.432 390.412 351.409C388.321 347.364 387.276 342.58 387.276 337.057C387.276 331.67 388.321 326.943 390.412 322.875C392.503 318.807 395.446 315.636 399.241 313.364C403.06 311.091 407.537 309.955 412.673 309.955C416.128 309.955 419.344 310.511 422.321 311.625C425.321 312.716 427.935 314.364 430.162 316.568C432.412 318.773 434.162 321.545 435.412 324.886C436.662 328.205 437.287 332.091 437.287 336.545V340.534H393.071V331.534H423.616C423.616 329.443 423.162 327.591 422.253 325.977C421.344 324.364 420.082 323.102 418.469 322.193C416.878 321.261 415.026 320.795 412.912 320.795C410.707 320.795 408.753 321.307 407.048 322.33C405.366 323.33 404.048 324.682 403.094 326.386C402.139 328.068 401.651 329.943 401.628 332.011V340.568C401.628 343.159 402.105 345.398 403.06 347.284C404.037 349.17 405.412 350.625 407.185 351.648C408.957 352.67 411.06 353.182 413.491 353.182C415.105 353.182 416.582 352.955 417.923 352.5C419.264 352.045 420.412 351.364 421.366 350.455C422.321 349.545 423.048 348.432 423.548 347.114L436.98 348C436.298 351.227 434.901 354.045 432.787 356.455C430.696 358.841 427.991 360.705 424.673 362.045C421.378 363.364 417.571 364.023 413.253 364.023ZM461.287 332.727V363H446.764V310.636H460.605V319.875H461.219C462.378 316.83 464.321 314.42 467.048 312.648C469.776 310.852 473.082 309.955 476.969 309.955C480.605 309.955 483.776 310.75 486.48 312.341C489.185 313.932 491.287 316.205 492.787 319.159C494.287 322.091 495.037 325.591 495.037 329.659V363H480.514V332.25C480.537 329.045 479.719 326.545 478.06 324.75C476.401 322.932 474.116 322.023 471.207 322.023C469.253 322.023 467.526 322.443 466.026 323.284C464.548 324.125 463.389 325.352 462.548 326.966C461.73 328.557 461.31 330.477 461.287 332.727ZM534.335 310.636V321.545H502.801V310.636H534.335ZM509.96 298.091H524.483V346.909C524.483 348.25 524.688 349.295 525.097 350.045C525.506 350.773 526.074 351.284 526.801 351.58C527.551 351.875 528.415 352.023 529.392 352.023C530.074 352.023 530.756 351.966 531.438 351.852C532.119 351.716 532.642 351.614 533.006 351.545L535.29 362.352C534.563 362.58 533.54 362.841 532.222 363.136C530.903 363.455 529.301 363.648 527.415 363.716C523.915 363.852 520.847 363.386 518.21 362.318C515.597 361.25 513.563 359.591 512.108 357.341C510.653 355.091 509.938 352.25 509.96 348.818V298.091Z" fill="url(#paint0_linear_0_1)"/>
<path d="M71.1932 293.182V292.182H70.1932V293.182H71.1932ZM85.9545 293.182H86.9545V292.182H85.9545V293.182ZM82.3068 351.886L81.4634 351.349L81.4611 351.353L82.3068 351.886ZM72.1818 360.818L72.6196 361.717L72.6234 361.715L72.1818 360.818ZM41.8068 360.818L41.3652 361.715L41.369 361.717L41.8068 360.818ZM31.6818 351.886L30.8361 352.42L31.6818 351.886ZM28.0682 293.182V292.182H27.0682V293.182H28.0682ZM42.8295 293.182H43.8295V292.182H42.8295V293.182ZM44.5682 344.352L43.6958 344.841L43.6999 344.848L44.5682 344.352ZM49.5455 349.227L49.0614 350.102L49.5455 349.227ZM64.4773 349.227L63.9932 348.352L63.9892 348.354L64.4773 349.227ZM69.4205 344.352L68.5522 343.856L68.5481 343.863L69.4205 344.352ZM71.1932 294.182H85.9545V292.182H71.1932V294.182ZM84.9545 293.182V338.523H86.9545V293.182H84.9545ZM84.9545 338.523C84.9545 343.448 83.7806 347.711 81.4634 351.349L83.1503 352.424C85.6967 348.425 86.9545 343.78 86.9545 338.523H84.9545ZM81.4611 351.353C79.1577 355.003 75.9278 357.86 71.7403 359.921L72.6234 361.715C77.1177 359.504 80.6378 356.406 83.1525 352.42L81.4611 351.353ZM71.744 359.919C67.5637 361.955 62.6618 362.989 57.0114 362.989V364.989C62.9064 364.989 68.1182 363.909 72.6196 361.717L71.744 359.919ZM57.0114 362.989C51.3376 362.989 46.4245 361.954 42.2446 359.919L41.369 361.717C45.871 363.909 51.0942 364.989 57.0114 364.989V362.989ZM42.2484 359.921C38.0608 357.86 34.831 355.003 32.5275 351.353L30.8361 352.42C33.3508 356.406 36.871 359.504 41.3652 361.715L42.2484 359.921ZM32.5275 351.353C30.2317 347.714 29.0682 343.45 29.0682 338.523H27.0682C27.0682 343.778 28.3138 348.422 30.8361 352.42L32.5275 351.353ZM29.0682 338.523V293.182H27.0682V338.523H29.0682ZM28.0682 294.182H42.8295V292.182H28.0682V294.182ZM41.8295 293.182V337.261H43.8295V293.182H41.8295ZM41.8295 337.261C41.8295 340.07 42.4433 342.606 43.6958 344.841L45.4405 343.863C44.3749 341.962 43.8295 339.77 43.8295 337.261H41.8295ZM43.6999 344.848C44.975 347.08 46.7689 348.834 49.0614 350.102L50.0295 348.352C48.0493 347.257 46.525 345.761 45.4364 343.856L43.6999 344.848ZM49.0614 350.102C51.3686 351.379 54.029 352 57.0114 352V350C54.3119 350 51.9951 349.44 50.0295 348.352L49.0614 350.102ZM57.0114 352C60.0146 352 62.6774 351.379 64.9653 350.1L63.9892 348.354C62.0499 349.439 59.7354 350 57.0114 350V352ZM64.9613 350.102C67.2554 348.833 69.0399 347.077 70.2928 344.841L68.5481 343.863C67.4828 345.764 65.9718 347.258 63.9932 348.352L64.9613 350.102ZM70.2887 344.848C71.5666 342.612 72.1932 340.074 72.1932 337.261H70.1932C70.1932 339.767 69.638 341.956 68.5522 343.856L70.2887 344.848ZM72.1932 337.261V293.182H70.1932V337.261H72.1932ZM156.497 293.182H157.497V292.182H156.497V293.182ZM156.497 363V364H157.497V363H156.497ZM143.747 363L142.925 363.569L143.223 364H143.747V363ZM113.372 319.057L114.195 318.488L113.897 318.057H113.372V319.057ZM112.861 319.057V318.057H111.861V319.057H112.861ZM112.861 363V364H113.861V363H112.861ZM98.0994 363H97.0994V364H98.0994V363ZM98.0994 293.182V292.182H97.0994V293.182H98.0994ZM111.054 293.182L111.878 292.616L111.581 292.182H111.054V293.182ZM141.19 337.091L140.366 337.657L140.664 338.091H141.19V337.091ZM141.804 337.091V338.091H142.804V337.091H141.804ZM141.804 293.182V292.182H140.804V293.182H141.804ZM155.497 293.182V363H157.497V293.182H155.497ZM156.497 362H143.747V364H156.497V362ZM144.57 362.431L114.195 318.488L112.55 319.625L142.925 363.569L144.57 362.431ZM113.372 318.057H112.861V320.057H113.372V318.057ZM111.861 319.057V363H113.861V319.057H111.861ZM112.861 362H98.0994V364H112.861V362ZM99.0994 363V293.182H97.0994V363H99.0994ZM98.0994 294.182H111.054V292.182H98.0994V294.182ZM110.229 293.748L140.366 337.657L142.015 336.525L111.878 292.616L110.229 293.748ZM141.19 338.091H141.804V336.091H141.19V338.091ZM142.804 337.091V293.182H140.804V337.091H142.804ZM141.804 294.182H156.497V292.182H141.804V294.182ZM206.568 313.261L205.573 313.36L205.662 314.261H206.568V313.261ZM188.534 305.591L188.903 306.52L188.914 306.516L188.534 305.591ZM184.716 308.352L183.916 307.752L183.909 307.762L184.716 308.352ZM183.42 312.375L184.42 312.411L184.42 312.393V312.375H183.42ZM184.205 315.648L183.351 316.168L183.355 316.176L183.36 316.183L184.205 315.648ZM186.625 318.068L186.07 318.9L186.077 318.905L186.083 318.909L186.625 318.068ZM190.17 319.807L189.821 320.744L189.828 320.746L189.835 320.749L190.17 319.807ZM194.466 321.034L194.698 320.062L194.691 320.06L194.684 320.058L194.466 321.034ZM200.739 322.534L200.506 323.507L200.513 323.508L200.52 323.51L200.739 322.534ZM209.125 325.261L208.717 326.174L209.125 325.261ZM215.739 329.455L216.404 328.708L215.739 329.455ZM220.068 335.318L219.158 335.732L219.161 335.74L220.068 335.318ZM221.67 343.057L222.671 343.062L222.67 343.049L221.67 343.057ZM218.398 354.17L217.574 353.603L217.573 353.605L218.398 354.17ZM209.125 361.432L209.515 362.353L209.518 362.351L209.125 361.432ZM179.841 361.398L179.457 362.321L179.459 362.322L179.841 361.398ZM170.091 353.727L169.264 354.29L169.268 354.296L170.091 353.727ZM166.443 341.08V340.08H165.42L165.443 341.102L166.443 341.08ZM180.727 341.08L181.725 341.012L181.662 340.08H180.727V341.08ZM182.739 346.943L181.94 347.545L181.945 347.552L181.95 347.558L182.739 346.943ZM187.545 350.455L187.176 351.384L187.189 351.389L187.545 350.455ZM200.909 350.523L200.546 349.591L200.542 349.593L200.909 350.523ZM205.239 347.489L206.024 348.108L205.239 347.489ZM205.375 339.068L204.613 339.716L204.621 339.726L205.375 339.068ZM201.352 336.341L200.958 337.26L200.963 337.262L201.352 336.341ZM194.909 334.295L194.666 335.265L194.675 335.268L194.909 334.295ZM187.307 332.386L187.55 331.416L187.543 331.415L187.307 332.386ZM173.364 325.67L172.697 326.416L173.364 325.67ZM168.284 313.364L169.284 313.368L169.284 313.358L168.284 313.364ZM171.659 302.284L170.85 301.696L170.847 301.7L171.659 302.284ZM208.307 294.886L207.89 295.795L207.892 295.796L208.307 294.886ZM217.375 302.284L216.549 302.848L217.375 302.284ZM220.716 313.261V314.261H221.732L221.716 313.245L220.716 313.261ZM207.563 313.163C207.265 310.155 205.965 307.751 203.65 306.047L202.464 307.658C204.285 308.999 205.326 310.868 205.573 313.36L207.563 313.163ZM203.65 306.047C201.355 304.358 198.316 303.568 194.636 303.568V305.568C198.048 305.568 200.622 306.301 202.464 307.658L203.65 306.047ZM194.636 303.568C192.139 303.568 189.967 303.921 188.154 304.666L188.914 306.516C190.419 305.897 192.316 305.568 194.636 305.568V303.568ZM188.165 304.662C186.37 305.374 184.934 306.395 183.916 307.752L185.516 308.952C186.271 307.946 187.38 307.126 188.903 306.52L188.165 304.662ZM183.909 307.762C182.916 309.12 182.42 310.669 182.42 312.375H184.42C184.42 311.081 184.788 309.948 185.523 308.942L183.909 307.762ZM182.421 312.339C182.37 313.755 182.666 315.046 183.351 316.168L185.058 315.127C184.607 314.386 184.38 313.495 184.42 312.411L182.421 312.339ZM183.36 316.183C184.034 317.246 184.945 318.15 186.07 318.9L187.18 317.236C186.26 316.623 185.557 315.913 185.049 315.112L183.36 316.183ZM186.083 318.909C187.176 319.613 188.424 320.223 189.821 320.744L190.52 318.87C189.235 318.391 188.12 317.842 187.167 317.228L186.083 318.909ZM189.835 320.749C191.218 321.241 192.689 321.661 194.247 322.01L194.684 320.058C193.198 319.725 191.805 319.327 190.506 318.865L189.835 320.749ZM194.233 322.007L200.506 323.507L200.971 321.562L194.698 320.062L194.233 322.007ZM200.52 323.51C203.508 324.179 206.239 325.068 208.717 326.174L209.533 324.348C206.92 323.182 204.06 322.253 200.957 321.558L200.52 323.51ZM208.717 326.174C211.18 327.274 213.295 328.618 215.074 330.201L216.404 328.708C214.455 326.973 212.161 325.522 209.533 324.348L208.717 326.174ZM215.074 330.201C216.834 331.769 218.193 333.61 219.158 335.732L220.979 334.904C219.898 332.526 218.37 330.459 216.404 328.708L215.074 330.201ZM219.161 335.74C220.137 337.839 220.649 340.274 220.67 343.065L222.67 343.049C222.647 340.021 222.09 337.297 220.975 334.897L219.161 335.74ZM220.67 343.051C220.649 347.149 219.606 350.652 217.574 353.603L219.221 354.737C221.508 351.416 222.647 347.51 222.67 343.062L220.67 343.051ZM217.573 353.605C215.561 356.537 212.632 358.847 208.732 360.512L209.518 362.351C213.708 360.562 216.962 358.031 219.222 354.736L217.573 353.605ZM208.735 360.511C204.867 362.15 200.154 362.989 194.568 362.989V364.989C200.346 364.989 205.338 364.123 209.515 362.353L208.735 360.511ZM194.568 362.989C189.032 362.989 184.258 362.14 180.223 360.473L179.459 362.322C183.788 364.11 188.832 364.989 194.568 364.989V362.989ZM180.224 360.474C176.225 358.813 173.135 356.372 170.913 353.159L169.268 354.296C171.729 357.855 175.138 360.528 179.457 362.321L180.224 360.474ZM170.918 353.165C168.73 349.947 167.553 345.929 167.443 341.057L165.443 341.102C165.56 346.275 166.816 350.689 169.264 354.29L170.918 353.165ZM166.443 342.08H180.727V340.08H166.443V342.08ZM179.73 341.147C179.899 343.644 180.62 345.794 181.94 347.545L183.537 346.341C182.493 344.956 181.874 343.197 181.725 341.012L179.73 341.147ZM181.95 347.558C183.274 349.257 185.027 350.529 187.176 351.384L187.915 349.525C186.063 348.789 184.612 347.72 183.527 346.328L181.95 347.558ZM187.189 351.389C189.343 352.212 191.751 352.614 194.398 352.614V350.614C191.953 350.614 189.793 350.243 187.902 349.52L187.189 351.389ZM194.398 352.614C196.992 352.614 199.292 352.237 201.277 351.453L200.542 349.593C198.844 350.263 196.804 350.614 194.398 350.614V352.614ZM201.273 351.454C203.267 350.676 204.869 349.57 206.024 348.108L204.454 346.869C203.562 347.998 202.279 348.915 200.546 349.591L201.273 351.454ZM206.024 348.108C207.188 346.633 207.773 344.925 207.773 343.023H205.773C205.773 344.484 205.334 345.754 204.454 346.869L206.024 348.108ZM207.773 343.023C207.773 341.24 207.237 339.681 206.129 338.411L204.621 339.726C205.377 340.592 205.773 341.669 205.773 343.023H207.773ZM206.137 338.42C205.096 337.197 203.608 336.209 201.742 335.42L200.963 337.262C202.642 337.973 203.836 338.803 204.613 339.716L206.137 338.42ZM201.746 335.422C199.929 334.643 197.725 333.946 195.143 333.323L194.675 335.268C197.184 335.873 199.275 336.539 200.958 337.26L201.746 335.422ZM195.153 333.326L187.55 331.416L187.063 333.356L194.666 335.265L195.153 333.326ZM187.543 331.415C181.766 330.01 177.283 327.831 174.03 324.925L172.697 326.416C176.262 329.601 181.074 331.9 187.07 333.358L187.543 331.415ZM174.03 324.925C170.863 322.096 169.262 318.282 169.284 313.368L167.284 313.359C167.26 318.764 169.046 323.154 172.697 326.416L174.03 324.925ZM169.284 313.358C169.262 309.323 170.332 305.841 172.471 302.868L170.847 301.7C168.44 305.046 167.26 308.95 167.284 313.369L169.284 313.358ZM172.468 302.872C174.648 299.872 177.649 297.511 181.507 295.801L180.697 293.972C176.556 295.807 173.261 298.378 170.85 301.696L172.468 302.872ZM181.507 295.801C185.361 294.093 189.765 293.227 194.739 293.227V291.227C189.531 291.227 184.844 292.134 180.697 293.972L181.507 295.801ZM194.739 293.227C199.807 293.227 204.182 294.094 207.89 295.795L208.724 293.977C204.704 292.133 200.034 291.227 194.739 291.227V293.227ZM207.892 295.796C211.632 297.502 214.505 299.857 216.549 302.848L218.201 301.72C215.927 298.393 212.754 295.816 208.722 293.977L207.892 295.796ZM216.549 302.848C218.588 305.832 219.651 309.297 219.716 313.278L221.716 313.245C221.645 308.908 220.48 305.055 218.201 301.72L216.549 302.848ZM220.716 312.261H206.568V314.261H220.716V312.261ZM259.179 310.636H260.179V309.636H259.179V310.636ZM259.179 321.545V322.545H260.179V321.545H259.179ZM227.645 321.545H226.645V322.545H227.645V321.545ZM227.645 310.636V309.636H226.645V310.636H227.645ZM234.804 298.091V297.091H233.804V298.091H234.804ZM249.327 298.091H250.327V297.091H249.327V298.091ZM249.94 350.045L249.062 350.524L249.069 350.536L249.94 350.045ZM251.645 351.58L251.268 352.506L251.278 352.51L251.645 351.58ZM256.281 351.852L256.446 352.839L256.462 352.836L256.477 352.833L256.281 351.852ZM257.849 351.545L258.828 351.339L258.626 350.382L257.665 350.563L257.849 351.545ZM260.134 362.352L260.432 363.307L261.3 363.035L261.112 362.145L260.134 362.352ZM257.065 363.136L256.847 362.161L256.839 362.162L256.831 362.164L257.065 363.136ZM252.259 363.716L252.222 362.717L252.22 362.717L252.259 363.716ZM243.054 362.318L242.676 363.244L242.678 363.245L243.054 362.318ZM236.952 357.341L237.792 356.798L236.952 357.341ZM234.804 348.818L235.804 348.825V348.818H234.804ZM258.179 310.636V321.545H260.179V310.636H258.179ZM259.179 320.545H227.645V322.545H259.179V320.545ZM228.645 321.545V310.636H226.645V321.545H228.645ZM227.645 311.636H259.179V309.636H227.645V311.636ZM234.804 299.091H249.327V297.091H234.804V299.091ZM248.327 298.091V346.909H250.327V298.091H248.327ZM248.327 346.909C248.327 348.331 248.54 349.567 249.062 350.524L250.818 349.567C250.522 349.024 250.327 348.169 250.327 346.909H248.327ZM249.069 350.536C249.581 351.447 250.318 352.12 251.269 352.506L252.021 350.653C251.517 350.448 251.118 350.099 250.812 349.555L249.069 350.536ZM251.278 352.51C252.167 352.86 253.159 353.023 254.236 353.023V351.023C253.358 351.023 252.623 350.89 252.011 350.649L251.278 352.51ZM254.236 353.023C254.973 353.023 255.71 352.961 256.446 352.839L256.117 350.866C255.489 350.971 254.862 351.023 254.236 351.023V353.023ZM256.477 352.833C257.158 352.697 257.676 352.595 258.034 352.528L257.665 350.563C257.296 350.632 256.768 350.735 256.085 350.872L256.477 352.833ZM256.871 351.752L259.155 362.559L261.112 362.145L258.828 351.339L256.871 351.752ZM259.835 361.398C259.147 361.613 258.155 361.867 256.847 362.161L257.284 364.112C258.612 363.815 259.666 363.546 260.432 363.307L259.835 361.398ZM256.831 362.164C255.597 362.462 254.066 362.65 252.222 362.717L252.295 364.715C254.224 364.646 255.897 364.447 257.3 364.108L256.831 362.164ZM252.22 362.717C248.829 362.849 245.908 362.395 243.43 361.391L242.678 363.245C245.473 364.377 248.688 364.856 252.297 364.715L252.22 362.717ZM243.432 361.393C240.997 360.397 239.129 358.867 237.792 356.798L236.112 357.884C237.684 360.315 239.883 362.103 242.676 363.244L243.432 361.393ZM237.792 356.798C236.469 354.752 235.782 352.116 235.804 348.825L233.804 348.812C233.78 352.384 234.525 355.43 236.112 357.884L237.792 356.798ZM235.804 348.818V298.091H233.804V348.818H235.804ZM302.219 340.705H301.219L301.219 340.714L302.219 340.705ZM302.219 310.636V309.636H301.219V310.636H302.219ZM316.741 310.636H317.741V309.636H316.741V310.636ZM316.741 363V364H317.741V363H316.741ZM302.798 363H301.798V364H302.798V363ZM302.798 353.489H303.798V352.489H302.798V353.489ZM302.253 353.489V352.489H301.566L301.32 353.129L302.253 353.489ZM296.355 360.886L295.794 360.059L295.791 360.061L296.355 360.886ZM277.128 361.295L277.641 360.437L277.128 361.295ZM270.889 354.511L269.996 354.961L269.999 354.967L270.889 354.511ZM268.639 343.977H267.639L267.639 343.983L268.639 343.977ZM268.639 310.636V309.636H267.639V310.636H268.639ZM283.162 310.636H284.162V309.636H283.162V310.636ZM283.162 341.386H282.162L282.162 341.394L283.162 341.386ZM285.651 348.716L286.39 348.042L285.651 348.716ZM297.139 350.216L297.602 351.102L297.613 351.097L297.139 350.216ZM300.821 346.602L299.963 346.088L299.958 346.097L300.821 346.602ZM303.219 340.705V310.636H301.219V340.705H303.219ZM302.219 311.636H316.741V309.636H302.219V311.636ZM315.741 310.636V363H317.741V310.636H315.741ZM316.741 362H302.798V364H316.741V362ZM303.798 363V353.489H301.798V363H303.798ZM302.798 352.489H302.253V354.489H302.798V352.489ZM301.32 353.129C300.212 356.005 298.377 358.308 295.794 360.059L296.916 361.714C299.833 359.737 301.93 357.109 303.186 353.848L301.32 353.129ZM295.791 360.061C293.259 361.791 290.136 362.682 286.366 362.682V364.682C290.461 364.682 293.996 363.709 296.919 361.712L295.791 360.061ZM286.366 362.682C283.023 362.682 280.126 361.924 277.641 360.437L276.614 362.154C279.448 363.849 282.71 364.682 286.366 364.682V362.682ZM277.641 360.437C275.153 358.949 273.2 356.832 271.779 354.056L269.999 354.967C271.579 358.055 273.784 360.46 276.614 362.154L277.641 360.437ZM271.782 354.061C270.389 351.297 269.661 347.945 269.639 343.972L267.639 343.983C267.663 348.191 268.434 351.862 269.996 354.961L271.782 354.061ZM269.639 343.977V310.636H267.639V343.977H269.639ZM268.639 311.636H283.162V309.636H268.639V311.636ZM282.162 310.636V341.386H284.162V310.636H282.162ZM282.162 341.394C282.186 344.662 283.067 347.366 284.911 349.39L286.39 348.042C284.961 346.475 284.183 344.293 284.162 341.379L282.162 341.394ZM284.911 349.39C286.763 351.421 289.24 352.409 292.23 352.409V350.409C289.72 350.409 287.811 349.601 286.39 348.042L284.911 349.39ZM292.23 352.409C294.138 352.409 295.934 351.974 297.602 351.102L296.676 349.33C295.299 350.049 293.822 350.409 292.23 350.409V352.409ZM297.613 351.097C299.308 350.186 300.666 348.846 301.684 347.108L299.958 346.097C299.113 347.54 298.016 348.61 296.666 349.335L297.613 351.097ZM301.679 347.117C302.75 345.331 303.243 343.172 303.219 340.695L301.219 340.714C301.24 342.918 300.801 344.692 299.964 346.088L301.679 347.117ZM336.847 360.784L336.304 361.624L336.311 361.629L336.847 360.784ZM329.21 351.682L328.303 352.102L328.306 352.108L329.21 351.682ZM329.312 321.92L330.212 322.357L330.213 322.355L329.312 321.92ZM337.017 312.955L337.542 313.806L337.544 313.805L337.017 312.955ZM354.949 311.455L354.493 312.345L354.506 312.351L354.949 311.455ZM359.722 315.136L358.947 315.768L358.952 315.775L358.957 315.781L359.722 315.136ZM362.517 319.432L361.606 319.843L361.871 320.432H362.517V319.432ZM362.96 319.432V320.432H363.96V319.432H362.96ZM362.96 293.182V292.182H361.96V293.182H362.96ZM377.449 293.182H378.449V292.182H377.449V293.182ZM377.449 363V364H378.449V363H377.449ZM363.131 363H362.131V364H363.131V363ZM363.131 354.614H364.131V353.614H363.131V354.614ZM362.517 354.614V353.614H361.881L361.612 354.189L362.517 354.614ZM359.619 358.943L358.866 358.286L358.865 358.286L359.619 358.943ZM354.812 362.455L354.386 361.55L354.382 361.552L354.812 362.455ZM358.188 350.386L358.807 351.172L358.808 351.17L358.188 350.386ZM361.938 344.966L361.003 344.609L361 344.617L361.938 344.966ZM361.972 328.705L362.908 328.352L361.972 328.705ZM346.222 323.455L345.601 322.67L346.222 323.455ZM342.506 344.898L341.564 345.236L341.569 345.247L342.506 344.898ZM346.222 350.352L345.589 351.127L345.595 351.132L345.601 351.136L346.222 350.352ZM347.653 362.852C343.858 362.852 340.442 361.879 337.382 359.939L336.311 361.629C339.705 363.78 343.495 364.852 347.653 364.852V362.852ZM337.389 359.944C334.365 357.992 331.934 355.114 330.115 351.255L328.306 352.108C330.259 356.25 332.919 359.439 336.304 361.624L337.389 359.944ZM330.118 351.261C328.331 347.405 327.415 342.626 327.415 336.886H325.415C325.415 342.828 326.362 347.913 328.303 352.102L330.118 351.261ZM327.415 336.886C327.415 330.986 328.366 326.159 330.212 322.357L328.413 321.484C326.396 325.637 325.415 330.786 325.415 336.886H327.415ZM330.213 322.355C332.077 318.496 334.527 315.666 337.542 313.806L336.492 312.104C333.098 314.198 330.412 317.345 328.412 321.486L330.213 322.355ZM337.544 313.805C340.611 311.904 343.962 310.955 347.619 310.955V308.955C343.595 308.955 339.878 310.005 336.49 312.105L337.544 313.805ZM347.619 310.955C350.444 310.955 352.719 311.437 354.493 312.345L355.404 310.564C353.27 309.472 350.659 308.955 347.619 308.955V310.955ZM354.506 312.351C356.375 313.275 357.846 314.418 358.947 315.768L360.497 314.504C359.188 312.9 357.477 311.589 355.392 310.558L354.506 312.351ZM358.957 315.781C360.138 317.181 361.015 318.535 361.606 319.843L363.428 319.02C362.746 317.51 361.76 316.001 360.486 314.491L358.957 315.781ZM362.517 320.432H362.96V318.432H362.517V320.432ZM363.96 319.432V293.182H361.96V319.432H363.96ZM362.96 294.182H377.449V292.182H362.96V294.182ZM376.449 293.182V363H378.449V293.182H376.449ZM377.449 362H363.131V364H377.449V362ZM364.131 363V354.614H362.131V363H364.131ZM363.131 353.614H362.517V355.614H363.131V353.614ZM361.612 354.189C360.976 355.546 360.066 356.912 358.866 358.286L360.373 359.601C361.673 358.111 362.695 356.591 363.423 355.038L361.612 354.189ZM358.865 358.286C357.743 359.575 356.259 360.667 354.386 361.55L355.239 363.359C357.32 362.378 359.041 361.13 360.373 359.6L358.865 358.286ZM354.382 361.552C352.596 362.403 350.366 362.852 347.653 362.852V364.852C350.577 364.852 353.12 364.369 355.243 363.357L354.382 361.552ZM352.256 353.295C354.788 353.295 356.993 352.602 358.807 351.172L357.568 349.601C356.155 350.716 354.405 351.295 352.256 351.295V353.295ZM358.808 351.17C360.612 349.742 361.959 347.772 362.875 345.315L361 344.617C360.189 346.796 359.035 348.44 357.567 349.602L358.808 351.17ZM362.872 345.323C363.811 342.866 364.267 340.024 364.267 336.818H362.267C362.267 339.84 361.837 342.43 361.003 344.609L362.872 345.323ZM364.267 336.818C364.267 333.615 363.823 330.786 362.908 328.352L361.036 329.057C361.847 331.214 362.267 333.794 362.267 336.818H364.267ZM362.908 328.352C361.991 325.915 360.64 323.976 358.829 322.592L357.615 324.181C359.076 325.297 360.225 326.903 361.036 329.057L362.908 328.352ZM358.829 322.592C356.994 321.191 354.785 320.511 352.256 320.511V322.511C354.409 322.511 356.176 323.082 357.615 324.181L358.829 322.592ZM352.256 320.511C349.678 320.511 347.439 321.215 345.601 322.67L346.842 324.239C348.277 323.103 350.061 322.511 352.256 322.511V320.511ZM345.601 322.67C343.797 324.099 342.46 326.058 341.567 328.497L343.445 329.185C344.233 327.033 345.374 325.401 346.842 324.239L345.601 322.67ZM341.567 328.497C340.677 330.925 340.244 333.705 340.244 336.818H342.244C342.244 333.886 342.652 331.348 343.445 329.185L341.567 328.497ZM340.244 336.818C340.244 339.954 340.677 342.765 341.565 345.236L343.447 344.56C342.652 342.348 342.244 339.773 342.244 336.818H340.244ZM341.569 345.247C342.483 347.7 343.814 349.677 345.589 351.127L346.854 349.578C345.402 348.391 344.256 346.732 343.443 344.549L341.569 345.247ZM345.601 351.136C347.439 352.591 349.678 353.295 352.256 353.295V351.295C350.061 351.295 348.277 350.704 346.842 349.568L345.601 351.136ZM399.344 360.75L398.848 361.619L398.854 361.622L399.344 360.75ZM390.412 351.409L389.524 351.868L389.525 351.87L390.412 351.409ZM390.412 322.875L389.523 322.418L390.412 322.875ZM399.241 313.364L398.73 312.504L398.728 312.506L399.241 313.364ZM422.321 311.625L421.971 312.562L421.979 312.565L422.321 311.625ZM430.162 316.568L429.458 317.279L429.462 317.282L430.162 316.568ZM435.412 324.886L434.475 325.237L434.476 325.239L435.412 324.886ZM437.287 340.534V341.534H438.287V340.534H437.287ZM393.071 340.534H392.071V341.534H393.071V340.534ZM393.071 331.534V330.534H392.071V331.534H393.071ZM423.616 331.534V332.534H424.616V331.534H423.616ZM422.253 325.977L421.382 326.468L422.253 325.977ZM418.469 322.193L417.963 323.056L417.971 323.06L417.978 323.064L418.469 322.193ZM407.048 322.33L407.559 323.189L407.563 323.187L407.048 322.33ZM403.094 326.386L403.963 326.88L403.966 326.875L403.094 326.386ZM401.628 332.011L400.628 332V332.011H401.628ZM403.06 347.284L402.167 347.736L402.172 347.744L403.06 347.284ZM417.923 352.5L417.602 351.553L417.923 352.5ZM421.366 350.455L420.677 349.73L421.366 350.455ZM423.548 347.114L423.614 346.116L422.876 346.067L422.613 346.759L423.548 347.114ZM436.98 348L437.959 348.207L438.197 347.078L437.046 347.002L436.98 348ZM432.787 356.455L432.035 355.795L432.035 355.796L432.787 356.455ZM424.673 362.045L425.045 362.974L425.048 362.973L424.673 362.045ZM413.253 363.023C408.002 363.023 403.542 361.96 399.833 359.878L398.854 361.622C402.918 363.904 407.731 365.023 413.253 365.023V363.023ZM399.839 359.881C396.146 357.774 393.303 354.803 391.299 350.948L389.525 351.87C391.702 356.06 394.814 359.317 398.848 361.619L399.839 359.881ZM391.3 350.95C389.297 347.074 388.276 342.453 388.276 337.057H386.276C386.276 342.706 387.345 347.654 389.524 351.868L391.3 350.95ZM388.276 337.057C388.276 331.801 389.295 327.236 391.301 323.332L389.523 322.418C387.347 326.651 386.276 331.54 386.276 337.057H388.276ZM391.301 323.332C393.31 319.424 396.126 316.395 399.755 314.222L398.728 312.506C394.766 314.878 391.696 318.19 389.523 322.418L391.301 323.332ZM399.753 314.223C403.394 312.056 407.688 310.955 412.673 310.955V308.955C407.385 308.955 402.726 310.126 398.73 312.504L399.753 314.223ZM412.673 310.955C416.019 310.955 419.115 311.493 421.971 312.562L422.671 310.688C419.573 309.529 416.237 308.955 412.673 308.955V310.955ZM421.979 312.565C424.846 313.607 427.336 315.178 429.458 317.279L430.865 315.857C428.534 313.549 425.796 311.825 422.663 310.685L421.979 312.565ZM429.462 317.282C431.594 319.372 433.27 322.015 434.475 325.237L436.349 324.536C435.054 321.076 433.229 318.174 430.862 315.854L429.462 317.282ZM434.476 325.239C435.674 328.42 436.287 332.182 436.287 336.545H438.287C438.287 332 437.65 327.989 436.348 324.534L434.476 325.239ZM436.287 336.545V340.534H438.287V336.545H436.287ZM437.287 339.534H393.071V341.534H437.287V339.534ZM394.071 340.534V331.534H392.071V340.534H394.071ZM393.071 332.534H423.616V330.534H393.071V332.534ZM424.616 331.534C424.616 329.294 424.128 327.268 423.124 325.486L421.382 326.468C422.196 327.913 422.616 329.593 422.616 331.534H424.616ZM423.124 325.486C422.125 323.714 420.732 322.321 418.96 321.322L417.978 323.064C419.432 323.884 420.562 325.014 421.382 326.468L423.124 325.486ZM418.974 321.33C417.209 320.296 415.177 319.795 412.912 319.795V321.795C414.874 321.795 416.547 322.227 417.963 323.056L418.974 321.33ZM412.912 319.795C410.546 319.795 408.41 320.346 406.534 321.472L407.563 323.187C409.095 322.267 410.868 321.795 412.912 321.795V319.795ZM406.537 321.47C404.705 322.56 403.262 324.04 402.221 325.898L403.966 326.875C404.835 325.324 406.028 324.099 407.559 323.189L406.537 321.47ZM402.224 325.893C401.18 327.732 400.652 329.775 400.628 332L402.628 332.022C402.649 330.111 403.098 328.404 403.963 326.88L402.224 325.893ZM400.628 332.011V340.568H402.628V332.011H400.628ZM400.628 340.568C400.628 343.281 401.128 345.681 402.167 347.736L403.952 346.833C403.082 345.114 402.628 343.037 402.628 340.568H400.628ZM402.172 347.744C403.233 349.793 404.74 351.392 406.685 352.514L407.684 350.782C406.084 349.858 404.84 348.548 403.948 346.824L402.172 347.744ZM406.685 352.514C408.636 353.64 410.917 354.182 413.491 354.182V352.182C411.202 352.182 409.279 351.701 407.684 350.782L406.685 352.514ZM413.491 354.182C415.199 354.182 416.787 353.941 418.244 353.447L417.602 351.553C416.378 351.968 415.011 352.182 413.491 352.182V354.182ZM418.244 353.447C419.712 352.949 420.989 352.195 422.056 351.179L420.677 349.73C419.835 350.532 418.816 351.142 417.602 351.553L418.244 353.447ZM422.056 351.179C423.127 350.159 423.934 348.917 424.483 347.468L422.613 346.759C422.163 347.947 421.516 348.932 420.677 349.73L422.056 351.179ZM423.482 348.111L436.914 348.998L437.046 347.002L423.614 346.116L423.482 348.111ZM436.002 347.793C435.354 350.858 434.032 353.519 432.035 355.795L433.539 357.114C435.769 354.572 437.242 351.597 437.959 348.207L436.002 347.793ZM432.035 355.796C430.06 358.05 427.49 359.828 424.299 361.118L425.048 362.973C428.492 361.581 431.333 359.632 433.539 357.114L432.035 355.796ZM424.302 361.117C421.147 362.379 417.471 363.023 413.253 363.023V365.023C417.671 365.023 421.609 364.348 425.045 362.974L424.302 361.117ZM461.287 332.727L460.287 332.717V332.727H461.287ZM461.287 363V364H462.287V363H461.287ZM446.764 363H445.764V364H446.764V363ZM446.764 310.636V309.636H445.764V310.636H446.764ZM460.605 310.636H461.605V309.636H460.605V310.636ZM460.605 319.875H459.605V320.875H460.605V319.875ZM461.219 319.875V320.875H461.908L462.153 320.231L461.219 319.875ZM467.048 312.648L467.593 313.486L467.598 313.483L467.048 312.648ZM492.787 319.159L491.895 319.612L491.897 319.615L492.787 319.159ZM495.037 363V364H496.037V363H495.037ZM480.514 363H479.514V364H480.514V363ZM480.514 332.25L479.514 332.243V332.25H480.514ZM478.06 324.75L477.321 325.424L477.325 325.429L478.06 324.75ZM466.026 323.284L465.537 322.412L465.531 322.415L466.026 323.284ZM462.548 326.966L461.661 326.504L461.659 326.509L462.548 326.966ZM460.287 332.727V363H462.287V332.727H460.287ZM461.287 362H446.764V364H461.287V362ZM447.764 363V310.636H445.764V363H447.764ZM446.764 311.636H460.605V309.636H446.764V311.636ZM459.605 310.636V319.875H461.605V310.636H459.605ZM460.605 320.875H461.219V318.875H460.605V320.875ZM462.153 320.231C463.237 317.383 465.044 315.143 467.593 313.486L466.503 311.809C463.598 313.698 461.519 316.276 460.284 319.519L462.153 320.231ZM467.598 313.483C470.133 311.814 473.24 310.955 476.969 310.955V308.955C472.925 308.955 469.418 309.891 466.498 311.812L467.598 313.483ZM476.969 310.955C480.456 310.955 483.445 311.716 485.973 313.203L486.987 311.479C484.106 309.784 480.755 308.955 476.969 308.955V310.955ZM485.973 313.203C488.504 314.691 490.477 316.818 491.895 319.612L493.679 318.706C492.097 315.591 489.866 313.172 486.987 311.479L485.973 313.203ZM491.897 319.615C493.31 322.376 494.037 325.713 494.037 329.659H496.037C496.037 325.469 495.264 321.806 493.677 318.704L491.897 319.615ZM494.037 329.659V363H496.037V329.659H494.037ZM495.037 362H480.514V364H495.037V362ZM481.514 363V332.25H479.514V363H481.514ZM481.514 332.257C481.538 328.88 480.674 326.106 478.794 324.071L477.325 325.429C478.764 326.985 479.536 329.211 479.514 332.243L481.514 332.257ZM478.798 324.076C476.915 322.012 474.342 321.023 471.207 321.023V323.023C473.891 323.023 475.886 323.851 477.321 325.424L478.798 324.076ZM471.207 321.023C469.105 321.023 467.205 321.476 465.537 322.412L466.515 324.156C467.846 323.41 469.4 323.023 471.207 323.023V321.023ZM465.531 322.415C463.875 323.358 462.585 324.732 461.661 326.504L463.435 327.428C464.194 325.972 465.222 324.892 466.52 324.153L465.531 322.415ZM461.659 326.509C460.754 328.269 460.311 330.351 460.287 332.717L462.287 332.737C462.308 330.604 462.707 328.845 463.438 327.423L461.659 326.509ZM534.335 310.636H535.335V309.636H534.335V310.636ZM534.335 321.545V322.545H535.335V321.545H534.335ZM502.801 321.545H501.801V322.545H502.801V321.545ZM502.801 310.636V309.636H501.801V310.636H502.801ZM509.96 298.091V297.091H508.96V298.091H509.96ZM524.483 298.091H525.483V297.091H524.483V298.091ZM525.097 350.045L524.219 350.524L524.225 350.536L525.097 350.045ZM526.801 351.58L526.425 352.506L526.435 352.51L526.801 351.58ZM531.438 351.852L531.602 352.839L531.618 352.836L531.634 352.833L531.438 351.852ZM533.006 351.545L533.984 351.339L533.782 350.382L532.821 350.563L533.006 351.545ZM535.29 362.352L535.588 363.307L536.456 363.035L536.268 362.145L535.29 362.352ZM532.222 363.136L532.003 362.161L531.995 362.162L531.987 362.164L532.222 363.136ZM527.415 363.716L527.379 362.717L527.376 362.717L527.415 363.716ZM518.21 362.318L517.832 363.244L517.835 363.245L518.21 362.318ZM512.108 357.341L512.948 356.798L512.108 357.341ZM509.96 348.818L510.96 348.825V348.818H509.96ZM533.335 310.636V321.545H535.335V310.636H533.335ZM534.335 320.545H502.801V322.545H534.335V320.545ZM503.801 321.545V310.636H501.801V321.545H503.801ZM502.801 311.636H534.335V309.636H502.801V311.636ZM509.96 299.091H524.483V297.091H509.96V299.091ZM523.483 298.091V346.909H525.483V298.091H523.483ZM523.483 346.909C523.483 348.331 523.696 349.567 524.219 350.524L525.974 349.567C525.679 349.024 525.483 348.169 525.483 346.909H523.483ZM524.225 350.536C524.738 351.447 525.474 352.12 526.425 352.506L527.177 350.653C526.674 350.448 526.274 350.099 525.968 349.555L524.225 350.536ZM526.435 352.51C527.323 352.86 528.315 353.023 529.392 353.023V351.023C528.514 351.023 527.779 350.89 527.168 350.649L526.435 352.51ZM529.392 353.023C530.13 353.023 530.867 352.961 531.602 352.839L531.273 350.866C530.645 350.971 530.018 351.023 529.392 351.023V353.023ZM531.634 352.833C532.314 352.697 532.832 352.595 533.19 352.528L532.821 350.563C532.452 350.632 531.924 350.735 531.241 350.872L531.634 352.833ZM532.027 351.752L534.311 362.559L536.268 362.145L533.984 351.339L532.027 351.752ZM534.992 361.398C534.303 361.613 533.311 361.867 532.003 362.161L532.44 364.112C533.768 363.815 534.822 363.546 535.588 363.307L534.992 361.398ZM531.987 362.164C530.754 362.462 529.222 362.65 527.379 362.717L527.451 364.715C529.38 364.646 531.053 364.447 532.456 364.108L531.987 362.164ZM527.376 362.717C523.986 362.849 521.064 362.395 518.586 361.391L517.835 363.245C520.629 364.377 523.844 364.856 527.454 364.715L527.376 362.717ZM518.589 361.393C516.153 360.397 514.285 358.867 512.948 356.798L511.268 357.884C512.84 360.315 515.04 362.103 517.832 363.244L518.589 361.393ZM512.948 356.798C511.625 354.752 510.938 352.116 510.96 348.825L508.96 348.812C508.937 352.384 509.682 355.43 511.268 357.884L512.948 356.798ZM510.96 348.818V298.091H508.96V348.818H510.96Z" fill="black" mask="url(#path-37-outside-1_0_1)"/>
</g>
<defs>
<filter id="filter0_dd_0_1" x="0.0682373" y="280.227" width="563.222" height="127.795" filterUnits="userSpaceOnUse" color-interpolation-filters="sRGB">
<feFlood flood-opacity="0" result="BackgroundImageFix"/>
<feColorMatrix in="SourceAlpha" type="matrix" values="0 0 0 0 0 0 0 0 0 0 0 0 0 0 0 0 0 0 127 0" result="hardAlpha"/>
<feMorphology radius="4" operator="erode" in="SourceAlpha" result="effect1_dropShadow_0_1"/>
<feOffset dy="4"/>
<feGaussianBlur stdDeviation="2"/>
<feComposite in2="hardAlpha" operator="out"/>
<feColorMatrix type="matrix" values="0 0 0 0 0.0470588 0 0 0 0 0.0470588 0 0 0 0 0.0509804 0 0 0 0.05 0"/>
<feBlend mode="normal" in2="BackgroundImageFix" result="effect1_dropShadow_0_1"/>
<feColorMatrix in="SourceAlpha" type="matrix" values="0 0 0 0 0 0 0 0 0 0 0 0 0 0 0 0 0 0 127 0" result="hardAlpha"/>
<feMorphology radius="4" operator="erode" in="SourceAlpha" result="effect2_dropShadow_0_1"/>
<feOffset dy="16"/>
<feGaussianBlur stdDeviation="16"/>
<feComposite in2="hardAlpha" operator="out"/>
<feColorMatrix type="matrix" values="0 0 0 0 0.0470588 0 0 0 0 0.0470588 0 0 0 0 0.0509804 0 0 0 0.1 0"/>
<feBlend mode="normal" in2="effect1_dropShadow_0_1" result="effect2_dropShadow_0_1"/>
<feBlend mode="normal" in="SourceGraphic" in2="effect2_dropShadow_0_1" result="shape"/>
</filter>
<linearGradient id="paint0_linear_0_1" x1="5" y1="345" x2="555" y2="345" gradientUnits="userSpaceOnUse">
<stop stop-color="#020264"/>
<stop offset="1" stop-color="#5271FF"/>
</linearGradient>
</defs>
</svg>
