<svg width="3987" height="698" viewBox="0 0 3987 698" fill="none" xmlns="http://www.w3.org/2000/svg">
<g filter="url(#filter0_dd_144_43)">
<mask id="path-1-outside-1_144_43" maskUnits="userSpaceOnUse" x="1109" y="147" width="2645" height="377" fill="black">
<rect fill="white" x="1109" y="147" width="2645" height="377"/>
<path d="M1335.46 153.364H1412.35V389.514C1412.35 416.029 1406.01 439.23 1393.35 459.116C1380.8 479.003 1363.22 494.509 1340.61 505.636C1318 516.645 1291.67 522.149 1261.6 522.149C1231.42 522.149 1205.02 516.645 1182.41 505.636C1159.8 494.509 1142.22 479.003 1129.68 459.116C1117.13 439.23 1110.86 416.029 1110.86 389.514V153.364H1187.74V382.945C1187.74 396.794 1190.76 409.105 1196.79 419.876C1202.95 430.648 1211.59 439.112 1222.72 445.267C1233.84 451.422 1246.8 454.5 1261.6 454.5C1276.52 454.5 1289.48 451.422 1300.49 445.267C1311.61 439.112 1320.19 430.648 1326.23 419.876C1332.39 409.105 1335.46 396.794 1335.46 382.945V153.364ZM1779.76 153.364V517H1713.35L1555.15 288.129H1552.48V517H1475.6V153.364H1543.07L1700.03 382.057H1703.23V153.364H1779.76ZM2040.54 257.945C2039.12 243.622 2033.03 232.495 2022.25 224.564C2011.48 216.633 1996.86 212.668 1978.4 212.668C1965.85 212.668 1955.26 214.443 1946.62 217.994C1937.97 221.427 1931.35 226.221 1926.73 232.376C1922.23 238.532 1919.98 245.516 1919.98 253.328C1919.74 259.839 1921.11 265.52 1924.07 270.374C1927.14 275.227 1931.35 279.429 1936.67 282.98C1942 286.413 1948.15 289.431 1955.14 292.036C1962.12 294.521 1969.58 296.652 1977.51 298.428L2010.18 306.24C2026.04 309.791 2040.6 314.526 2053.86 320.445C2067.12 326.363 2078.6 333.643 2088.31 342.284C2098.01 350.925 2105.53 361.105 2110.86 372.824C2116.3 384.543 2119.08 397.978 2119.2 413.129C2119.08 435.383 2113.4 454.678 2102.15 471.013C2091.03 487.23 2074.93 499.836 2053.86 508.832C2032.91 517.71 2007.64 522.149 1978.04 522.149C1948.69 522.149 1923.12 517.651 1901.34 508.655C1879.68 499.659 1862.75 486.342 1850.56 468.705C1838.48 450.949 1832.15 428.991 1831.56 402.831H1905.95C1906.78 415.023 1910.28 425.203 1916.43 433.371C1922.7 441.42 1931.05 447.516 1941.47 451.659C1952 455.684 1963.9 457.696 1977.15 457.696C1990.18 457.696 2001.48 455.802 2011.07 452.014C2020.77 448.226 2028.29 442.959 2033.62 436.212C2038.94 429.464 2041.61 421.711 2041.61 412.952C2041.61 404.784 2039.18 397.919 2034.33 392.355C2029.59 386.792 2022.61 382.057 2013.38 378.151C2004.26 374.244 1993.08 370.693 1979.82 367.497L1940.22 357.554C1909.56 350.097 1885.36 338.437 1867.6 322.575C1849.85 306.714 1841.03 285.348 1841.15 258.477C1841.03 236.46 1846.89 217.225 1858.72 200.771C1870.68 184.318 1887.07 171.474 1907.91 162.241C1928.74 153.009 1952.42 148.392 1978.93 148.392C2005.92 148.392 2029.47 153.009 2049.6 162.241C2069.84 171.474 2085.58 184.318 2096.83 200.771C2108.07 217.225 2113.87 236.283 2114.23 257.945H2040.54ZM2314.56 244.273V301.091H2150.32V244.273H2314.56ZM2187.6 178.932H2263.24V433.193C2263.24 440.177 2264.31 445.622 2266.44 449.528C2268.57 453.316 2271.53 455.98 2275.32 457.518C2279.22 459.057 2283.72 459.827 2288.81 459.827C2292.36 459.827 2295.91 459.531 2299.46 458.939C2303.02 458.229 2305.74 457.696 2307.63 457.341L2319.53 513.626C2315.74 514.81 2310.41 516.171 2303.55 517.71C2296.68 519.367 2288.34 520.374 2278.51 520.729C2260.28 521.439 2244.3 519.012 2230.57 513.449C2216.96 507.885 2206.37 499.244 2198.79 487.526C2191.21 475.807 2187.49 461.01 2187.6 443.136V178.932ZM2538.72 400.878V244.273H2614.36V517H2541.74V467.462H2538.9C2532.74 483.442 2522.51 496.285 2508.18 505.991C2493.98 515.698 2476.64 520.551 2456.16 520.551C2437.93 520.551 2421.89 516.408 2408.04 508.122C2394.19 499.836 2383.36 488.058 2375.55 472.788C2367.85 457.518 2363.95 439.23 2363.83 417.923V244.273H2439.47V404.429C2439.59 420.527 2443.91 433.252 2452.43 442.604C2460.95 451.955 2472.38 456.631 2486.7 456.631C2495.81 456.631 2504.34 454.559 2512.27 450.416C2520.2 446.155 2526.59 439.881 2531.44 431.595C2536.41 423.309 2538.84 413.07 2538.72 400.878ZM2775.36 521.439C2754.65 521.439 2735.88 516.112 2719.08 505.459C2702.39 494.687 2689.13 478.884 2679.3 458.051C2669.6 437.099 2664.74 411.413 2664.74 380.991C2664.74 349.741 2669.77 323.759 2679.84 303.044C2689.9 282.211 2703.27 266.645 2719.96 256.347C2736.77 245.93 2755.18 240.722 2775.18 240.722C2790.45 240.722 2803.18 243.326 2813.36 248.534C2823.66 253.624 2831.94 260.016 2838.22 267.71C2844.61 275.286 2849.46 282.743 2852.78 290.082H2855.08V153.364H2930.55V517H2855.97V473.321H2852.78C2849.23 480.897 2844.19 488.413 2837.68 495.871C2831.29 503.21 2822.95 509.306 2812.65 514.159C2802.47 519.012 2790.04 521.439 2775.36 521.439ZM2799.33 461.247C2811.52 461.247 2821.82 457.933 2830.23 451.304C2838.75 444.557 2845.26 435.146 2849.76 423.072C2854.37 410.999 2856.68 396.853 2856.68 380.636C2856.68 364.42 2854.43 350.333 2849.94 338.378C2845.44 326.422 2838.93 317.189 2830.4 310.679C2821.88 304.169 2811.52 300.913 2799.33 300.913C2786.9 300.913 2776.43 304.287 2767.9 311.034C2759.38 317.781 2752.93 327.133 2748.55 339.088C2744.17 351.044 2741.98 364.893 2741.98 380.636C2741.98 396.498 2744.17 410.525 2748.55 422.717C2753.05 434.791 2759.5 444.261 2767.9 451.126C2776.43 457.874 2786.9 461.247 2799.33 461.247ZM3117.03 522.327C3088.97 522.327 3064.82 516.645 3044.58 505.281C3024.46 493.799 3008.95 477.582 2998.06 456.631C2987.17 435.561 2981.73 410.643 2981.73 381.879C2981.73 353.825 2987.17 329.204 2998.06 308.016C3008.95 286.827 3024.28 270.314 3044.05 258.477C3063.94 246.64 3087.25 240.722 3114.01 240.722C3132 240.722 3148.75 243.622 3164.26 249.422C3179.88 255.104 3193.49 263.686 3205.09 275.168C3216.81 286.65 3225.93 301.091 3232.44 318.491C3238.95 335.774 3242.2 356.015 3242.2 379.216V399.99H3011.91V353.115H3171C3171 342.225 3168.64 332.578 3163.9 324.173C3159.17 315.769 3152.6 309.199 3144.19 304.464C3135.91 299.611 3126.26 297.185 3115.25 297.185C3103.77 297.185 3093.59 299.848 3084.71 305.175C3075.95 310.383 3069.08 317.426 3064.11 326.304C3059.14 335.063 3056.6 344.829 3056.48 355.601V400.168C3056.48 413.662 3058.96 425.321 3063.94 435.146C3069.03 444.971 3076.19 452.547 3085.42 457.874C3094.65 463.2 3105.6 465.864 3118.27 465.864C3126.67 465.864 3134.37 464.68 3141.35 462.312C3148.33 459.945 3154.31 456.394 3159.28 451.659C3164.26 446.924 3168.04 441.124 3170.65 434.259L3240.6 438.875C3237.05 455.684 3229.77 470.362 3218.77 482.909C3207.88 495.338 3193.79 505.045 3176.51 512.028C3159.34 518.894 3139.52 522.327 3117.03 522.327ZM3367.2 359.33V517H3291.56V244.273H3363.65V292.391H3366.85C3372.88 276.529 3383.01 263.982 3397.21 254.749C3411.41 245.397 3428.64 240.722 3448.88 240.722C3467.82 240.722 3484.33 244.865 3498.42 253.151C3512.5 261.437 3523.45 273.274 3531.27 288.662C3539.08 303.932 3542.98 322.161 3542.98 343.349V517H3467.34V356.844C3467.46 340.153 3463.2 327.133 3454.56 317.781C3445.92 308.312 3434.02 303.577 3418.87 303.577C3408.69 303.577 3399.7 305.767 3391.88 310.146C3384.19 314.526 3378.15 320.918 3373.77 329.322C3369.51 337.608 3367.32 347.611 3367.2 359.33ZM3747.66 244.273V301.091H3583.42V244.273H3747.66ZM3620.71 178.932H3696.35V433.193C3696.35 440.177 3697.41 445.622 3699.54 449.528C3701.68 453.316 3704.63 455.98 3708.42 457.518C3712.33 459.057 3716.83 459.827 3721.92 459.827C3725.47 459.827 3729.02 459.531 3732.57 458.939C3736.12 458.229 3738.84 457.696 3740.74 457.341L3752.63 513.626C3748.85 514.81 3743.52 516.171 3736.65 517.71C3729.79 519.367 3721.44 520.374 3711.62 520.729C3693.39 521.439 3677.41 519.012 3663.68 513.449C3650.07 507.885 3639.47 499.244 3631.9 487.526C3624.32 475.807 3620.59 461.01 3620.71 443.136V178.932Z"/>
</mask>
<path d="M1335.46 153.364H1412.35V389.514C1412.35 416.029 1406.01 439.23 1393.35 459.116C1380.8 479.003 1363.22 494.509 1340.61 505.636C1318 516.645 1291.67 522.149 1261.6 522.149C1231.42 522.149 1205.02 516.645 1182.41 505.636C1159.8 494.509 1142.22 479.003 1129.68 459.116C1117.13 439.23 1110.86 416.029 1110.86 389.514V153.364H1187.74V382.945C1187.74 396.794 1190.76 409.105 1196.79 419.876C1202.95 430.648 1211.59 439.112 1222.72 445.267C1233.84 451.422 1246.8 454.5 1261.6 454.5C1276.52 454.5 1289.48 451.422 1300.49 445.267C1311.61 439.112 1320.19 430.648 1326.23 419.876C1332.39 409.105 1335.46 396.794 1335.46 382.945V153.364ZM1779.76 153.364V517H1713.35L1555.15 288.129H1552.48V517H1475.6V153.364H1543.07L1700.03 382.057H1703.23V153.364H1779.76ZM2040.54 257.945C2039.12 243.622 2033.03 232.495 2022.25 224.564C2011.48 216.633 1996.86 212.668 1978.4 212.668C1965.85 212.668 1955.26 214.443 1946.62 217.994C1937.97 221.427 1931.35 226.221 1926.73 232.376C1922.23 238.532 1919.98 245.516 1919.98 253.328C1919.74 259.839 1921.11 265.52 1924.07 270.374C1927.14 275.227 1931.35 279.429 1936.67 282.98C1942 286.413 1948.15 289.431 1955.14 292.036C1962.12 294.521 1969.58 296.652 1977.51 298.428L2010.18 306.24C2026.04 309.791 2040.6 314.526 2053.86 320.445C2067.12 326.363 2078.6 333.643 2088.31 342.284C2098.01 350.925 2105.53 361.105 2110.86 372.824C2116.3 384.543 2119.08 397.978 2119.2 413.129C2119.08 435.383 2113.4 454.678 2102.15 471.013C2091.03 487.23 2074.93 499.836 2053.86 508.832C2032.91 517.71 2007.64 522.149 1978.04 522.149C1948.69 522.149 1923.12 517.651 1901.34 508.655C1879.68 499.659 1862.75 486.342 1850.56 468.705C1838.48 450.949 1832.15 428.991 1831.56 402.831H1905.95C1906.78 415.023 1910.28 425.203 1916.43 433.371C1922.7 441.42 1931.05 447.516 1941.47 451.659C1952 455.684 1963.9 457.696 1977.15 457.696C1990.18 457.696 2001.48 455.802 2011.07 452.014C2020.77 448.226 2028.29 442.959 2033.62 436.212C2038.94 429.464 2041.61 421.711 2041.61 412.952C2041.61 404.784 2039.18 397.919 2034.33 392.355C2029.59 386.792 2022.61 382.057 2013.38 378.151C2004.26 374.244 1993.08 370.693 1979.82 367.497L1940.22 357.554C1909.56 350.097 1885.36 338.437 1867.6 322.575C1849.85 306.714 1841.03 285.348 1841.15 258.477C1841.03 236.46 1846.89 217.225 1858.72 200.771C1870.68 184.318 1887.07 171.474 1907.91 162.241C1928.74 153.009 1952.42 148.392 1978.93 148.392C2005.92 148.392 2029.47 153.009 2049.6 162.241C2069.84 171.474 2085.58 184.318 2096.83 200.771C2108.07 217.225 2113.87 236.283 2114.23 257.945H2040.54ZM2314.56 244.273V301.091H2150.32V244.273H2314.56ZM2187.6 178.932H2263.24V433.193C2263.24 440.177 2264.31 445.622 2266.44 449.528C2268.57 453.316 2271.53 455.98 2275.32 457.518C2279.22 459.057 2283.72 459.827 2288.81 459.827C2292.36 459.827 2295.91 459.531 2299.46 458.939C2303.02 458.229 2305.74 457.696 2307.63 457.341L2319.53 513.626C2315.74 514.81 2310.41 516.171 2303.55 517.71C2296.68 519.367 2288.34 520.374 2278.51 520.729C2260.28 521.439 2244.3 519.012 2230.57 513.449C2216.96 507.885 2206.37 499.244 2198.79 487.526C2191.21 475.807 2187.49 461.01 2187.6 443.136V178.932ZM2538.72 400.878V244.273H2614.36V517H2541.74V467.462H2538.9C2532.74 483.442 2522.51 496.285 2508.18 505.991C2493.98 515.698 2476.64 520.551 2456.16 520.551C2437.93 520.551 2421.89 516.408 2408.04 508.122C2394.19 499.836 2383.36 488.058 2375.55 472.788C2367.85 457.518 2363.95 439.23 2363.83 417.923V244.273H2439.47V404.429C2439.59 420.527 2443.91 433.252 2452.43 442.604C2460.95 451.955 2472.38 456.631 2486.7 456.631C2495.81 456.631 2504.34 454.559 2512.27 450.416C2520.2 446.155 2526.59 439.881 2531.44 431.595C2536.41 423.309 2538.84 413.07 2538.72 400.878ZM2775.36 521.439C2754.65 521.439 2735.88 516.112 2719.08 505.459C2702.39 494.687 2689.13 478.884 2679.3 458.051C2669.6 437.099 2664.74 411.413 2664.74 380.991C2664.74 349.741 2669.77 323.759 2679.84 303.044C2689.9 282.211 2703.27 266.645 2719.96 256.347C2736.77 245.93 2755.18 240.722 2775.18 240.722C2790.45 240.722 2803.18 243.326 2813.36 248.534C2823.66 253.624 2831.94 260.016 2838.22 267.71C2844.61 275.286 2849.46 282.743 2852.78 290.082H2855.08V153.364H2930.55V517H2855.97V473.321H2852.78C2849.23 480.897 2844.19 488.413 2837.68 495.871C2831.29 503.21 2822.95 509.306 2812.65 514.159C2802.47 519.012 2790.04 521.439 2775.36 521.439ZM2799.33 461.247C2811.52 461.247 2821.82 457.933 2830.23 451.304C2838.75 444.557 2845.26 435.146 2849.76 423.072C2854.37 410.999 2856.68 396.853 2856.68 380.636C2856.68 364.42 2854.43 350.333 2849.94 338.378C2845.44 326.422 2838.93 317.189 2830.4 310.679C2821.88 304.169 2811.52 300.913 2799.33 300.913C2786.9 300.913 2776.43 304.287 2767.9 311.034C2759.38 317.781 2752.93 327.133 2748.55 339.088C2744.17 351.044 2741.98 364.893 2741.98 380.636C2741.98 396.498 2744.17 410.525 2748.55 422.717C2753.05 434.791 2759.5 444.261 2767.9 451.126C2776.43 457.874 2786.9 461.247 2799.33 461.247ZM3117.03 522.327C3088.97 522.327 3064.82 516.645 3044.58 505.281C3024.46 493.799 3008.95 477.582 2998.06 456.631C2987.17 435.561 2981.73 410.643 2981.73 381.879C2981.73 353.825 2987.17 329.204 2998.06 308.016C3008.95 286.827 3024.28 270.314 3044.05 258.477C3063.94 246.64 3087.25 240.722 3114.01 240.722C3132 240.722 3148.75 243.622 3164.26 249.422C3179.88 255.104 3193.49 263.686 3205.09 275.168C3216.81 286.65 3225.93 301.091 3232.44 318.491C3238.95 335.774 3242.2 356.015 3242.2 379.216V399.99H3011.91V353.115H3171C3171 342.225 3168.64 332.578 3163.9 324.173C3159.17 315.769 3152.6 309.199 3144.19 304.464C3135.91 299.611 3126.26 297.185 3115.25 297.185C3103.77 297.185 3093.59 299.848 3084.71 305.175C3075.95 310.383 3069.08 317.426 3064.11 326.304C3059.14 335.063 3056.6 344.829 3056.48 355.601V400.168C3056.48 413.662 3058.96 425.321 3063.94 435.146C3069.03 444.971 3076.19 452.547 3085.42 457.874C3094.65 463.2 3105.6 465.864 3118.27 465.864C3126.67 465.864 3134.37 464.68 3141.35 462.312C3148.33 459.945 3154.31 456.394 3159.28 451.659C3164.26 446.924 3168.04 441.124 3170.65 434.259L3240.6 438.875C3237.05 455.684 3229.77 470.362 3218.77 482.909C3207.88 495.338 3193.79 505.045 3176.51 512.028C3159.34 518.894 3139.52 522.327 3117.03 522.327ZM3367.2 359.33V517H3291.56V244.273H3363.65V292.391H3366.85C3372.88 276.529 3383.01 263.982 3397.21 254.749C3411.41 245.397 3428.64 240.722 3448.88 240.722C3467.82 240.722 3484.33 244.865 3498.42 253.151C3512.5 261.437 3523.45 273.274 3531.27 288.662C3539.08 303.932 3542.98 322.161 3542.98 343.349V517H3467.34V356.844C3467.46 340.153 3463.2 327.133 3454.56 317.781C3445.92 308.312 3434.02 303.577 3418.87 303.577C3408.69 303.577 3399.7 305.767 3391.88 310.146C3384.19 314.526 3378.15 320.918 3373.77 329.322C3369.51 337.608 3367.32 347.611 3367.2 359.33ZM3747.66 244.273V301.091H3583.42V244.273H3747.66ZM3620.71 178.932H3696.35V433.193C3696.35 440.177 3697.41 445.622 3699.54 449.528C3701.68 453.316 3704.63 455.98 3708.42 457.518C3712.33 459.057 3716.83 459.827 3721.92 459.827C3725.47 459.827 3729.02 459.531 3732.57 458.939C3736.12 458.229 3738.84 457.696 3740.74 457.341L3752.63 513.626C3748.85 514.81 3743.52 516.171 3736.65 517.71C3729.79 519.367 3721.44 520.374 3711.62 520.729C3693.39 521.439 3677.41 519.012 3663.68 513.449C3650.07 507.885 3639.47 499.244 3631.9 487.526C3624.32 475.807 3620.59 461.01 3620.71 443.136V178.932Z" fill="white"/>
<path d="M1335.46 153.364V152.364H1334.46V153.364H1335.46ZM1412.35 153.364H1413.35V152.364H1412.35V153.364ZM1393.35 459.116L1392.5 458.579L1392.5 458.583L1393.35 459.116ZM1340.61 505.636L1341.05 506.535L1341.06 506.534L1340.61 505.636ZM1182.41 505.636L1181.97 506.534L1181.97 506.535L1182.41 505.636ZM1129.68 459.116L1128.83 459.65L1128.83 459.65L1129.68 459.116ZM1110.86 153.364V152.364H1109.86V153.364H1110.86ZM1187.74 153.364H1188.74V152.364H1187.74V153.364ZM1196.79 419.876L1195.92 420.365L1195.92 420.373L1196.79 419.876ZM1222.72 445.267L1222.23 446.142L1222.23 446.142L1222.72 445.267ZM1300.49 445.267L1300 444.392L1300 444.394L1300.49 445.267ZM1326.23 419.876L1325.36 419.38L1325.36 419.388L1326.23 419.876ZM1335.46 154.364H1412.35V152.364H1335.46V154.364ZM1411.35 153.364V389.514H1413.35V153.364H1411.35ZM1411.35 389.514C1411.35 415.863 1405.06 438.873 1392.5 458.579L1394.19 459.654C1406.97 439.587 1413.35 416.195 1413.35 389.514H1411.35ZM1392.5 458.583C1380.06 478.302 1362.63 493.688 1340.17 504.739L1341.06 506.534C1363.82 495.331 1381.54 479.704 1394.19 459.65L1392.5 458.583ZM1340.18 504.737C1317.73 515.668 1291.54 521.149 1261.6 521.149V523.149C1291.79 523.149 1318.28 517.622 1341.05 506.535L1340.18 504.737ZM1261.6 521.149C1231.54 521.149 1205.3 515.667 1182.85 504.737L1181.97 506.535C1204.74 517.622 1231.29 523.149 1261.6 523.149V521.149ZM1182.85 504.739C1160.4 493.688 1142.96 478.302 1130.52 458.583L1128.83 459.65C1141.48 479.704 1159.21 495.331 1181.97 506.534L1182.85 504.739ZM1130.52 458.583C1118.09 438.876 1111.86 415.865 1111.86 389.514H1109.86C1109.86 416.193 1116.17 439.584 1128.83 459.65L1130.52 458.583ZM1111.86 389.514V153.364H1109.86V389.514H1111.86ZM1110.86 154.364H1187.74V152.364H1110.86V154.364ZM1186.74 153.364V382.945H1188.74V153.364H1186.74ZM1186.74 382.945C1186.74 396.944 1189.79 409.427 1195.92 420.365L1197.66 419.388C1191.72 408.783 1188.74 396.644 1188.74 382.945H1186.74ZM1195.92 420.373C1202.17 431.308 1210.95 439.9 1222.23 446.142L1223.2 444.392C1212.23 438.323 1203.72 429.989 1197.66 419.38L1195.92 420.373ZM1222.23 446.142C1233.53 452.392 1246.66 455.5 1261.6 455.5V453.5C1246.95 453.5 1234.16 450.453 1223.2 444.392L1222.23 446.142ZM1261.6 455.5C1276.66 455.5 1289.79 452.393 1300.97 446.14L1300 444.394C1289.16 450.452 1276.38 453.5 1261.6 453.5V455.5ZM1300.97 446.142C1312.25 439.9 1320.97 431.304 1327.1 420.365L1325.36 419.388C1319.42 429.992 1310.97 438.324 1300 444.392L1300.97 446.142ZM1327.1 420.373C1333.35 409.433 1336.46 396.947 1336.46 382.945H1334.46C1334.46 396.641 1331.42 408.777 1325.36 419.38L1327.1 420.373ZM1336.46 382.945V153.364H1334.46V382.945H1336.46ZM1779.76 153.364H1780.76V152.364H1779.76V153.364ZM1779.76 517V518H1780.76V517H1779.76ZM1713.35 517L1712.53 517.569L1712.83 518H1713.35V517ZM1555.15 288.129L1555.97 287.561L1555.67 287.129H1555.15V288.129ZM1552.48 288.129V287.129H1551.48V288.129H1552.48ZM1552.48 517V518H1553.48V517H1552.48ZM1475.6 517H1474.6V518H1475.6V517ZM1475.6 153.364V152.364H1474.6V153.364H1475.6ZM1543.07 153.364L1543.9 152.798L1543.6 152.364H1543.07V153.364ZM1700.03 382.057L1699.21 382.623L1699.51 383.057H1700.03V382.057ZM1703.23 382.057V383.057H1704.23V382.057H1703.23ZM1703.23 153.364V152.364H1702.23V153.364H1703.23ZM1778.76 153.364V517H1780.76V153.364H1778.76ZM1779.76 516H1713.35V518H1779.76V516ZM1714.17 516.431L1555.97 287.561L1554.32 288.698L1712.53 517.569L1714.17 516.431ZM1555.15 287.129H1552.48V289.129H1555.15V287.129ZM1551.48 288.129V517H1553.48V288.129H1551.48ZM1552.48 516H1475.6V518H1552.48V516ZM1476.6 517V153.364H1474.6V517H1476.6ZM1475.6 154.364H1543.07V152.364H1475.6V154.364ZM1542.25 153.93L1699.21 382.623L1700.86 381.491L1543.9 152.798L1542.25 153.93ZM1700.03 383.057H1703.23V381.057H1700.03V383.057ZM1704.23 382.057V153.364H1702.23V382.057H1704.23ZM1703.23 154.364H1779.76V152.364H1703.23V154.364ZM2040.54 257.945L2039.55 258.043L2039.64 258.945H2040.54V257.945ZM1946.62 217.994L1946.98 218.924L1947 218.919L1946.62 217.994ZM1926.73 232.376L1925.93 231.776L1925.92 231.786L1926.73 232.376ZM1919.98 253.328L1920.98 253.364L1920.98 253.346V253.328H1919.98ZM1924.07 270.374L1923.21 270.894L1923.22 270.902L1923.22 270.909L1924.07 270.374ZM1936.67 282.98L1936.12 283.812L1936.12 283.816L1936.13 283.821L1936.67 282.98ZM1955.14 292.036L1954.79 292.972L1954.8 292.975L1954.8 292.978L1955.14 292.036ZM1977.51 298.428L1977.74 297.455L1977.74 297.453L1977.73 297.452L1977.51 298.428ZM2010.18 306.24L2009.95 307.213L2009.95 307.214L2009.96 307.216L2010.18 306.24ZM2053.86 320.445L2053.45 321.358L2053.45 321.358L2053.86 320.445ZM2088.31 342.284L2088.97 341.537L2088.97 341.537L2088.31 342.284ZM2110.86 372.824L2109.94 373.238L2109.95 373.245L2110.86 372.824ZM2119.2 413.129L2120.2 413.135L2120.2 413.121L2119.2 413.129ZM2102.15 471.013L2101.33 470.446L2101.33 470.447L2102.15 471.013ZM2053.86 508.832L2054.25 509.753L2054.25 509.752L2053.86 508.832ZM1901.34 508.655L1900.95 509.578L1900.96 509.579L1901.34 508.655ZM1850.56 468.705L1849.73 469.267L1849.73 469.273L1850.56 468.705ZM1831.56 402.831V401.831H1830.54L1830.56 402.854L1831.56 402.831ZM1905.95 402.831L1906.95 402.763L1906.89 401.831H1905.95V402.831ZM1916.43 433.371L1915.63 433.973L1915.64 433.979L1915.64 433.985L1916.43 433.371ZM1941.47 451.659L1941.1 452.588L1941.11 452.593L1941.47 451.659ZM2011.07 452.014L2010.7 451.083L2010.7 451.084L2011.07 452.014ZM2033.62 436.212L2034.4 436.831L2034.4 436.831L2033.62 436.212ZM2034.33 392.355L2033.57 393.003L2033.57 393.012L2034.33 392.355ZM2013.38 378.151L2012.98 379.07L2012.99 379.072L2013.38 378.151ZM1979.82 367.497L1979.57 368.467L1979.58 368.469L1979.82 367.497ZM1940.22 357.554L1940.47 356.584L1940.46 356.582L1940.22 357.554ZM1867.6 322.575L1866.94 323.321L1866.94 323.321L1867.6 322.575ZM1841.15 258.477L1842.15 258.482L1842.15 258.472L1841.15 258.477ZM1858.72 200.771L1857.92 200.183L1857.91 200.187L1858.72 200.771ZM2049.6 162.241L2049.18 163.15L2049.18 163.151L2049.6 162.241ZM2096.83 200.771L2096 201.336L2096 201.336L2096.83 200.771ZM2114.23 257.945V258.945H2115.25L2115.23 257.928L2114.23 257.945ZM2041.54 257.846C2040.09 243.265 2033.87 231.871 2022.85 223.759L2021.66 225.369C2032.19 233.118 2038.15 243.978 2039.55 258.043L2041.54 257.846ZM2022.85 223.759C2011.85 215.661 1997 211.668 1978.4 211.668V213.668C1996.73 213.668 2011.12 217.605 2021.66 225.369L2022.85 223.759ZM1978.4 211.668C1965.76 211.668 1955.03 213.455 1946.23 217.069L1947 218.919C1955.48 215.432 1965.94 213.668 1978.4 213.668V211.668ZM1946.25 217.065C1937.47 220.552 1930.68 225.446 1925.93 231.776L1927.53 232.976C1932.01 226.997 1938.48 222.303 1946.98 218.924L1946.25 217.065ZM1925.92 231.786C1921.29 238.117 1918.98 245.309 1918.98 253.328H1920.98C1920.98 245.722 1923.17 238.946 1927.54 232.966L1925.92 231.786ZM1918.98 253.292C1918.74 259.969 1920.14 265.85 1923.21 270.894L1924.92 269.853C1922.08 265.191 1920.75 259.708 1920.98 253.364L1918.98 253.292ZM1923.22 270.909C1926.38 275.893 1930.69 280.192 1936.12 283.812L1937.23 282.148C1932 278.666 1927.9 274.56 1924.91 269.838L1923.22 270.909ZM1936.13 283.821C1941.53 287.299 1947.75 290.347 1954.79 292.972L1955.49 291.099C1948.56 288.515 1942.47 285.527 1937.21 282.14L1936.13 283.821ZM1954.8 292.978C1961.83 295.478 1969.32 297.62 1977.29 299.403L1977.73 297.452C1969.83 295.684 1962.42 293.564 1955.47 291.093L1954.8 292.978ZM1977.28 299.4L2009.95 307.213L2010.41 305.267L1977.74 297.455L1977.28 299.4ZM2009.96 307.216C2025.77 310.754 2040.26 315.469 2053.45 321.358L2054.27 319.531C2040.94 313.583 2026.32 308.828 2010.4 305.264L2009.96 307.216ZM2053.45 321.358C2066.63 327.239 2078.02 334.466 2087.64 343.031L2088.97 341.537C2079.18 332.82 2067.61 325.487 2054.27 319.531L2053.45 321.358ZM2087.64 343.031C2097.24 351.58 2104.68 361.647 2109.94 373.238L2111.77 372.41C2106.38 360.563 2098.78 350.27 2088.97 341.537L2087.64 343.031ZM2109.95 373.245C2115.32 384.814 2118.08 398.104 2118.2 413.137L2120.2 413.121C2120.08 397.851 2117.28 384.271 2111.76 372.402L2109.95 373.245ZM2118.2 413.124C2118.08 435.202 2112.45 454.296 2101.33 470.446L2102.98 471.58C2114.35 455.059 2120.08 435.564 2120.2 413.135L2118.2 413.124ZM2101.33 470.447C2090.33 486.483 2074.39 498.979 2053.47 507.913L2054.25 509.752C2075.47 500.694 2091.73 487.976 2102.98 471.579L2101.33 470.447ZM2053.47 507.912C2032.67 516.724 2007.54 521.149 1978.04 521.149V523.149C2007.73 523.149 2033.14 518.696 2054.25 509.753L2053.47 507.912ZM1978.04 521.149C1948.79 521.149 1923.35 516.666 1901.72 507.731L1900.96 509.579C1922.88 518.636 1948.59 523.149 1978.04 523.149V521.149ZM1901.72 507.731C1880.22 498.802 1863.45 485.6 1851.38 468.136L1849.73 469.273C1862.05 487.083 1879.13 500.516 1900.95 509.578L1901.72 507.731ZM1851.38 468.142C1839.44 450.578 1833.15 428.818 1832.56 402.808L1830.56 402.854C1831.15 429.164 1837.53 451.32 1849.73 469.267L1851.38 468.142ZM1831.56 403.831H1905.95V401.831H1831.56V403.831ZM1904.96 402.899C1905.8 415.246 1909.34 425.622 1915.63 433.973L1917.23 432.769C1911.21 424.784 1907.77 414.8 1906.95 402.763L1904.96 402.899ZM1915.64 433.985C1922.04 442.188 1930.53 448.386 1941.1 452.588L1941.84 450.73C1931.57 446.646 1923.37 440.651 1917.22 432.756L1915.64 433.985ZM1941.11 452.593C1951.78 456.668 1963.8 458.696 1977.15 458.696V456.696C1964 456.696 1952.23 454.699 1941.82 450.725L1941.11 452.593ZM1977.15 458.696C1990.27 458.696 2001.7 456.789 2011.44 452.944L2010.7 451.084C2001.26 454.815 1990.08 456.696 1977.15 456.696V458.696ZM2011.43 452.946C2021.27 449.107 2028.94 443.745 2034.4 436.831L2032.83 435.592C2027.64 442.173 2020.28 447.346 2010.7 451.083L2011.43 452.946ZM2034.4 436.831C2039.87 429.904 2042.61 421.931 2042.61 412.952H2040.61C2040.61 421.491 2038.02 429.025 2032.83 435.592L2034.4 436.831ZM2042.61 412.952C2042.61 404.57 2040.11 397.463 2035.08 391.698L2033.57 393.012C2038.25 398.374 2040.61 404.998 2040.61 412.952H2042.61ZM2035.09 391.707C2030.22 385.989 2023.09 381.175 2013.77 377.23L2012.99 379.072C2022.13 382.938 2028.96 387.594 2033.57 393.003L2035.09 391.707ZM2013.77 377.231C2004.59 373.297 1993.35 369.73 1980.05 366.525L1979.58 368.469C1992.81 371.657 2003.93 375.192 2012.98 379.07L2013.77 377.231ZM1980.06 366.527L1940.47 356.584L1939.98 358.524L1979.57 368.467L1980.06 366.527ZM1940.46 356.582C1909.91 349.152 1885.87 337.552 1868.27 321.83L1866.94 323.321C1884.85 339.322 1909.22 351.042 1939.99 358.526L1940.46 356.582ZM1868.27 321.83C1850.76 306.184 1842.03 285.107 1842.15 258.482L1840.15 258.473C1840.03 285.588 1848.94 307.243 1866.94 323.321L1868.27 321.83ZM1842.15 258.472C1842.03 236.647 1847.83 217.622 1859.54 201.355L1857.91 200.187C1845.94 216.828 1840.03 236.273 1840.15 258.483L1842.15 258.472ZM1859.53 201.359C1871.37 185.065 1887.62 172.326 1908.31 163.156L1907.5 161.327C1886.53 170.623 1869.99 183.571 1857.92 200.183L1859.53 201.359ZM1908.31 163.156C1929 153.988 1952.53 149.392 1978.93 149.392V147.392C1952.3 147.392 1928.48 152.029 1907.5 161.327L1908.31 163.156ZM1978.93 149.392C2005.81 149.392 2029.21 153.989 2049.18 163.15L2050.02 161.333C2029.74 152.028 2006.03 147.392 1978.93 147.392V149.392ZM2049.18 163.151C2069.28 172.318 2084.87 185.049 2096 201.336L2097.65 200.207C2086.29 183.586 2070.4 170.631 2050.01 161.332L2049.18 163.151ZM2096 201.336C2107.13 217.613 2112.88 236.477 2113.23 257.961L2115.23 257.928C2114.87 236.088 2109.02 216.836 2097.65 200.207L2096 201.336ZM2114.23 256.945H2040.54V258.945H2114.23V256.945ZM2314.56 244.273H2315.56V243.273H2314.56V244.273ZM2314.56 301.091V302.091H2315.56V301.091H2314.56ZM2150.32 301.091H2149.32V302.091H2150.32V301.091ZM2150.32 244.273V243.273H2149.32V244.273H2150.32ZM2187.6 178.932V177.932H2186.6V178.932H2187.6ZM2263.24 178.932H2264.24V177.932H2263.24V178.932ZM2266.44 449.528L2265.56 450.007L2265.57 450.019L2266.44 449.528ZM2275.32 457.518L2274.94 458.445L2274.95 458.449L2275.32 457.518ZM2299.46 458.939L2299.63 459.925L2299.65 459.923L2299.66 459.919L2299.46 458.939ZM2307.63 457.341L2308.61 457.134L2308.41 456.178L2307.45 456.358L2307.63 457.341ZM2319.53 513.626L2319.83 514.581L2320.7 514.31L2320.51 513.42L2319.53 513.626ZM2303.55 517.71L2303.33 516.734L2303.32 516.736L2303.31 516.738L2303.55 517.71ZM2278.51 520.729L2278.48 519.729L2278.47 519.729L2278.51 520.729ZM2230.57 513.449L2230.19 514.375L2230.2 514.376L2230.57 513.449ZM2198.79 487.526L2199.63 486.983L2199.63 486.983L2198.79 487.526ZM2187.6 443.136L2188.6 443.143V443.136H2187.6ZM2313.56 244.273V301.091H2315.56V244.273H2313.56ZM2314.56 300.091H2150.32V302.091H2314.56V300.091ZM2151.32 301.091V244.273H2149.32V301.091H2151.32ZM2150.32 245.273H2314.56V243.273H2150.32V245.273ZM2187.6 179.932H2263.24V177.932H2187.6V179.932ZM2262.24 178.932V433.193H2264.24V178.932H2262.24ZM2262.24 433.193C2262.24 440.258 2263.32 445.894 2265.56 450.007L2267.32 449.05C2265.3 445.351 2264.24 440.096 2264.24 433.193H2262.24ZM2265.57 450.019C2267.8 453.99 2270.93 456.815 2274.94 458.445L2275.69 456.592C2272.13 455.144 2269.34 452.642 2267.31 449.038L2265.57 450.019ZM2274.95 458.449C2279 460.042 2283.62 460.827 2288.81 460.827V458.827C2283.82 458.827 2279.45 458.072 2275.68 456.588L2274.95 458.449ZM2288.81 460.827C2292.42 460.827 2296.02 460.526 2299.63 459.925L2299.3 457.953C2295.8 458.535 2292.31 458.827 2288.81 458.827V460.827ZM2299.66 459.919C2303.21 459.21 2305.93 458.678 2307.82 458.324L2307.45 456.358C2305.55 456.714 2302.82 457.248 2299.27 457.958L2299.66 459.919ZM2306.65 457.548L2318.55 513.833L2320.51 513.42L2308.61 457.134L2306.65 457.548ZM2319.23 512.672C2315.48 513.844 2310.19 515.198 2303.33 516.734L2303.77 518.686C2310.64 517.145 2316 515.777 2319.83 514.581L2319.23 512.672ZM2303.31 516.738C2296.53 518.375 2288.26 519.376 2278.48 519.729L2278.55 521.728C2288.42 521.371 2296.83 520.36 2303.78 518.682L2303.31 516.738ZM2278.47 519.729C2260.35 520.435 2244.52 518.021 2230.95 512.522L2230.2 514.376C2244.09 520.003 2260.21 522.442 2278.55 521.728L2278.47 519.729ZM2230.95 512.523C2217.52 507.033 2207.09 498.52 2199.63 486.983L2197.95 488.068C2205.64 499.969 2216.4 508.738 2230.19 514.375L2230.95 512.523ZM2199.63 486.983C2192.19 475.468 2188.49 460.876 2188.6 443.143L2186.6 443.13C2186.48 461.144 2190.24 476.146 2197.95 488.068L2199.63 486.983ZM2188.6 443.136V178.932H2186.6V443.136H2188.6ZM2538.72 400.878H2537.72L2537.72 400.888L2538.72 400.878ZM2538.72 244.273V243.273H2537.72V244.273H2538.72ZM2614.36 244.273H2615.36V243.273H2614.36V244.273ZM2614.36 517V518H2615.36V517H2614.36ZM2541.74 517H2540.74V518H2541.74V517ZM2541.74 467.462H2542.74V466.462H2541.74V467.462ZM2538.9 467.462V466.462H2538.21L2537.97 467.102L2538.9 467.462ZM2508.18 505.991L2507.62 505.164L2507.62 505.166L2508.18 505.991ZM2408.04 508.122L2408.55 507.264L2408.55 507.264L2408.04 508.122ZM2375.55 472.788L2374.65 473.238L2374.66 473.244L2375.55 472.788ZM2363.83 417.923H2362.83L2362.83 417.929L2363.83 417.923ZM2363.83 244.273V243.273H2362.83V244.273H2363.83ZM2439.47 244.273H2440.47V243.273H2439.47V244.273ZM2439.47 404.429H2438.47L2438.47 404.436L2439.47 404.429ZM2452.43 442.604L2453.17 441.93L2453.17 441.93L2452.43 442.604ZM2512.27 450.416L2512.73 451.303L2512.74 451.297L2512.27 450.416ZM2531.44 431.595L2530.59 431.081L2530.58 431.09L2531.44 431.595ZM2539.72 400.878V244.273H2537.72V400.878H2539.72ZM2538.72 245.273H2614.36V243.273H2538.72V245.273ZM2613.36 244.273V517H2615.36V244.273H2613.36ZM2614.36 516H2541.74V518H2614.36V516ZM2542.74 517V467.462H2540.74V517H2542.74ZM2541.74 466.462H2538.9V468.462H2541.74V466.462ZM2537.97 467.102C2531.89 482.89 2521.78 495.57 2507.62 505.164L2508.74 506.819C2523.23 497 2533.6 483.994 2539.83 467.821L2537.97 467.102ZM2507.62 505.166C2493.61 514.738 2476.47 519.551 2456.16 519.551V521.551C2476.8 521.551 2494.35 516.657 2508.75 506.817L2507.62 505.166ZM2456.16 519.551C2438.09 519.551 2422.23 515.446 2408.55 507.264L2407.53 508.98C2421.55 517.371 2437.77 521.551 2456.16 521.551V519.551ZM2408.55 507.264C2394.88 499.08 2384.17 487.447 2376.44 472.333L2374.66 473.244C2382.55 488.67 2393.51 500.592 2407.53 508.98L2408.55 507.264ZM2376.44 472.338C2368.83 457.236 2364.95 439.107 2364.83 417.918L2362.83 417.929C2362.95 439.353 2366.88 457.801 2374.65 473.238L2376.44 472.338ZM2364.83 417.923V244.273H2362.83V417.923H2364.83ZM2363.83 245.273H2439.47V243.273H2363.83V245.273ZM2438.47 244.273V404.429H2440.47V244.273H2438.47ZM2438.47 404.436C2438.59 420.712 2442.96 433.698 2451.69 443.277L2453.17 441.93C2444.85 432.807 2440.59 420.343 2440.47 404.422L2438.47 404.436ZM2451.69 443.277C2460.43 452.865 2472.14 457.631 2486.7 457.631V455.631C2472.62 455.631 2461.48 451.045 2453.17 441.93L2451.69 443.277ZM2486.7 457.631C2495.97 457.631 2504.65 455.522 2512.73 451.303L2511.8 449.53C2504.02 453.597 2495.65 455.631 2486.7 455.631V457.631ZM2512.74 451.297C2520.84 446.943 2527.37 440.534 2532.31 432.101L2530.58 431.09C2525.81 439.228 2519.55 445.367 2511.79 449.535L2512.74 451.297ZM2532.3 432.11C2537.39 423.629 2539.84 413.197 2539.72 400.868L2537.72 400.888C2537.84 412.943 2535.44 422.989 2530.59 431.081L2532.3 432.11ZM2719.08 505.459L2718.53 506.299L2718.54 506.303L2719.08 505.459ZM2679.3 458.051L2678.4 458.472L2678.4 458.478L2679.3 458.051ZM2679.84 303.044L2680.74 303.481L2680.74 303.479L2679.84 303.044ZM2719.96 256.347L2720.49 257.198L2720.49 257.197L2719.96 256.347ZM2813.36 248.534L2812.9 249.424L2812.92 249.431L2813.36 248.534ZM2838.22 267.71L2837.44 268.342L2837.45 268.349L2837.45 268.355L2838.22 267.71ZM2852.78 290.082L2851.86 290.494L2852.13 291.082H2852.78V290.082ZM2855.08 290.082V291.082H2856.08V290.082H2855.08ZM2855.08 153.364V152.364H2854.08V153.364H2855.08ZM2930.55 153.364H2931.55V152.364H2930.55V153.364ZM2930.55 517V518H2931.55V517H2930.55ZM2855.97 517H2854.97V518H2855.97V517ZM2855.97 473.321H2856.97V472.321H2855.97V473.321ZM2852.78 473.321V472.321H2852.14L2851.87 472.897L2852.78 473.321ZM2837.68 495.871L2836.93 495.213L2836.93 495.214L2837.68 495.871ZM2812.65 514.159L2812.22 513.254L2812.22 513.256L2812.65 514.159ZM2830.23 451.304L2830.85 452.089L2830.85 452.088L2830.23 451.304ZM2849.76 423.072L2848.82 422.715L2848.82 422.723L2849.76 423.072ZM2849.94 338.378L2850.87 338.026L2850.87 338.026L2849.94 338.378ZM2767.9 311.034L2767.28 310.25L2767.28 310.25L2767.9 311.034ZM2748.55 422.717L2747.61 423.055L2747.61 423.066L2748.55 422.717ZM2767.9 451.126L2767.27 451.901L2767.28 451.906L2767.28 451.91L2767.9 451.126ZM2775.36 520.439C2754.83 520.439 2736.25 515.162 2719.61 504.614L2718.54 506.303C2735.52 517.063 2754.47 522.439 2775.36 522.439V520.439ZM2719.62 504.619C2703.11 493.963 2689.97 478.316 2680.21 457.625L2678.4 458.478C2688.29 479.453 2701.66 495.411 2718.53 506.299L2719.62 504.619ZM2680.21 457.631C2670.58 436.846 2665.74 411.312 2665.74 380.991H2663.74C2663.74 411.514 2668.61 437.353 2678.4 458.471L2680.21 457.631ZM2665.74 380.991C2665.74 349.842 2670.76 324.02 2680.74 303.481L2678.94 302.607C2668.79 323.498 2663.74 349.641 2663.74 380.991H2665.74ZM2680.74 303.479C2690.73 282.786 2703.99 267.379 2720.49 257.198L2719.44 255.496C2702.56 265.911 2689.06 281.635 2678.94 302.609L2680.74 303.479ZM2720.49 257.197C2737.14 246.879 2755.36 241.722 2775.18 241.722V239.722C2755 239.722 2736.41 244.981 2719.44 255.497L2720.49 257.197ZM2775.18 241.722C2790.35 241.722 2802.9 244.308 2812.9 249.424L2813.81 247.644C2803.45 242.343 2790.56 239.722 2775.18 239.722V241.722ZM2812.92 249.431C2823.11 254.467 2831.27 260.775 2837.44 268.342L2838.99 267.078C2832.61 259.257 2824.21 252.781 2813.8 247.638L2812.92 249.431ZM2837.45 268.355C2843.8 275.876 2848.6 283.256 2851.86 290.494L2853.69 289.671C2850.33 282.231 2845.42 274.696 2838.98 267.065L2837.45 268.355ZM2852.78 291.082H2855.08V289.082H2852.78V291.082ZM2856.08 290.082V153.364H2854.08V290.082H2856.08ZM2855.08 154.364H2930.55V152.364H2855.08V154.364ZM2929.55 153.364V517H2931.55V153.364H2929.55ZM2930.55 516H2855.97V518H2930.55V516ZM2856.97 517V473.321H2854.97V517H2856.97ZM2855.97 472.321H2852.78V474.321H2855.97V472.321ZM2851.87 472.897C2848.37 480.374 2843.39 487.813 2836.93 495.213L2838.44 496.528C2845 489.013 2850.08 481.419 2853.68 473.745L2851.87 472.897ZM2836.93 495.214C2830.64 502.432 2822.42 508.45 2812.22 513.255L2813.07 515.064C2823.48 510.161 2831.94 503.987 2838.44 496.528L2836.93 495.214ZM2812.22 513.256C2802.21 518.029 2789.93 520.439 2775.36 520.439V522.439C2790.15 522.439 2802.73 519.995 2813.08 515.062L2812.22 513.256ZM2799.33 462.247C2811.72 462.247 2822.24 458.876 2830.85 452.089L2829.61 450.519C2821.4 456.989 2811.33 460.247 2799.33 460.247V462.247ZM2830.85 452.088C2839.54 445.208 2846.14 435.635 2850.69 423.422L2848.82 422.723C2844.37 434.658 2837.96 443.906 2829.61 450.52L2830.85 452.088ZM2850.69 423.43C2855.36 411.217 2857.68 396.945 2857.68 380.636H2855.68C2855.68 396.761 2853.39 410.78 2848.82 422.715L2850.69 423.43ZM2857.68 380.636C2857.68 364.33 2855.42 350.12 2850.87 338.026L2849 338.73C2853.45 350.547 2855.68 364.509 2855.68 380.636H2857.68ZM2850.87 338.026C2846.32 325.929 2839.71 316.529 2831.01 309.884L2829.8 311.474C2838.14 317.85 2844.55 326.916 2849 338.73L2850.87 338.026ZM2831.01 309.884C2822.29 303.223 2811.71 299.913 2799.33 299.913V301.913C2811.34 301.913 2821.47 305.114 2829.8 311.474L2831.01 309.884ZM2799.33 299.913C2786.71 299.913 2776.01 303.343 2767.28 310.25L2768.52 311.818C2776.85 305.231 2787.09 301.913 2799.33 301.913V299.913ZM2767.28 310.25C2758.59 317.13 2752.04 326.645 2747.61 338.744L2749.49 339.432C2753.82 327.62 2760.17 318.432 2768.52 311.818L2767.28 310.25ZM2747.61 338.744C2743.18 350.832 2740.98 364.802 2740.98 380.636H2742.98C2742.98 364.984 2745.16 351.255 2749.49 339.432L2747.61 338.744ZM2740.98 380.636C2740.98 396.588 2743.18 410.733 2747.61 423.055L2749.49 422.379C2745.16 410.317 2742.98 396.408 2742.98 380.636H2740.98ZM2747.61 423.066C2752.16 435.275 2758.71 444.904 2767.27 451.901L2768.54 450.352C2760.29 443.618 2753.94 434.307 2749.49 422.368L2747.61 423.066ZM2767.28 451.91C2776.01 458.817 2786.71 462.247 2799.33 462.247V460.247C2787.09 460.247 2776.85 456.93 2768.52 450.342L2767.28 451.91ZM3044.58 505.281L3044.09 506.15L3044.09 506.153L3044.58 505.281ZM2998.06 456.631L2997.17 457.09L2997.17 457.092L2998.06 456.631ZM2998.06 308.016L2997.17 307.559L2997.17 307.559L2998.06 308.016ZM3044.05 258.477L3043.54 257.618L3043.54 257.619L3044.05 258.477ZM3164.26 249.422L3163.9 250.359L3163.91 250.362L3164.26 249.422ZM3205.09 275.168L3204.39 275.878L3204.39 275.882L3205.09 275.168ZM3232.44 318.491L3231.5 318.842L3231.5 318.844L3232.44 318.491ZM3242.2 399.99V400.99H3243.2V399.99H3242.2ZM3011.91 399.99H3010.91V400.99H3011.91V399.99ZM3011.91 353.115V352.115H3010.91V353.115H3011.91ZM3171 353.115V354.115H3172V353.115H3171ZM3163.9 324.173L3163.03 324.664L3163.03 324.664L3163.9 324.173ZM3144.19 304.464L3143.69 305.327L3143.69 305.332L3143.7 305.336L3144.19 304.464ZM3084.71 305.175L3085.22 306.034L3085.22 306.032L3084.71 305.175ZM3064.11 326.304L3064.98 326.798L3064.99 326.793L3064.11 326.304ZM3056.48 355.601L3055.48 355.59V355.601H3056.48ZM3063.94 435.146L3063.04 435.598L3063.05 435.606L3063.94 435.146ZM3141.35 462.312L3141.03 461.365L3141.03 461.365L3141.35 462.312ZM3159.28 451.659L3158.59 450.935L3158.59 450.935L3159.28 451.659ZM3170.65 434.259L3170.71 433.261L3169.97 433.212L3169.71 433.904L3170.65 434.259ZM3240.6 438.875L3241.58 439.082L3241.82 437.953L3240.67 437.877L3240.6 438.875ZM3218.77 482.909L3218.01 482.25L3218.01 482.25L3218.77 482.909ZM3176.51 512.028L3176.88 512.957L3176.88 512.956L3176.51 512.028ZM3117.03 521.327C3089.11 521.327 3065.14 515.673 3045.07 504.409L3044.09 506.153C3064.51 517.617 3088.84 523.327 3117.03 523.327V521.327ZM3045.08 504.413C3025.12 493.028 3009.75 476.954 2998.95 456.169L2997.17 457.092C3008.15 478.211 3023.79 494.571 3044.09 506.15L3045.08 504.413ZM2998.95 456.172C2988.15 435.271 2982.73 410.517 2982.73 381.879H2980.73C2980.73 410.77 2986.2 435.851 2997.17 457.09L2998.95 456.172ZM2982.73 381.879C2982.73 353.956 2988.15 329.497 2998.95 308.473L2997.17 307.559C2986.2 328.911 2980.73 353.694 2980.73 381.879H2982.73ZM2998.95 308.473C3009.76 287.444 3024.96 271.073 3044.56 259.335L3043.54 257.619C3023.6 269.556 3008.15 286.21 2997.17 307.559L2998.95 308.473ZM3044.56 259.337C3064.27 247.605 3087.41 241.722 3114.01 241.722V239.722C3087.1 239.722 3063.6 245.675 3043.54 257.618L3044.56 259.337ZM3114.01 241.722C3131.89 241.722 3148.52 244.604 3163.9 250.358L3164.61 248.485C3148.98 242.64 3132.11 239.722 3114.01 239.722V241.722ZM3163.91 250.362C3179.41 255.995 3192.89 264.5 3204.39 275.878L3205.8 274.457C3194.09 262.871 3180.36 254.212 3164.6 248.482L3163.91 250.362ZM3204.39 275.882C3215.99 287.249 3225.03 301.56 3231.5 318.842L3233.37 318.141C3226.82 300.622 3217.63 286.051 3205.79 274.453L3204.39 275.882ZM3231.5 318.844C3237.96 335.989 3241.2 356.106 3241.2 379.216H3243.2C3243.2 355.924 3239.94 335.559 3233.37 318.139L3231.5 318.844ZM3241.2 379.216V399.99H3243.2V379.216H3241.2ZM3242.2 398.99H3011.91V400.99H3242.2V398.99ZM3012.91 399.99V353.115H3010.91V399.99H3012.91ZM3011.91 354.115H3171V352.115H3011.91V354.115ZM3172 353.115C3172 342.075 3169.6 332.255 3164.77 323.682L3163.03 324.664C3167.67 332.9 3170 342.374 3170 353.115H3172ZM3164.77 323.682C3159.95 315.119 3153.25 308.418 3144.68 303.593L3143.7 305.336C3151.95 309.981 3158.38 316.419 3163.03 324.664L3164.77 323.682ZM3144.7 303.602C3136.24 298.646 3126.41 296.185 3115.25 296.185V298.185C3126.11 298.185 3135.57 300.576 3143.69 305.327L3144.7 303.602ZM3115.25 296.185C3103.61 296.185 3093.25 298.887 3084.2 304.317L3085.22 306.032C3093.93 300.809 3103.93 298.185 3115.25 298.185V296.185ZM3084.2 304.315C3075.29 309.613 3068.3 316.784 3063.24 325.815L3064.99 326.793C3069.87 318.068 3076.61 311.153 3085.22 306.034L3084.2 304.315ZM3063.24 325.81C3058.18 334.727 3055.6 344.661 3055.48 355.59L3057.48 355.612C3057.59 344.997 3060.1 335.4 3064.98 326.798L3063.24 325.81ZM3055.48 355.601V400.168H3057.48V355.601H3055.48ZM3055.48 400.168C3055.48 413.784 3057.99 425.605 3063.04 435.598L3064.83 434.695C3059.94 425.038 3057.48 413.54 3057.48 400.168H3055.48ZM3063.05 435.606C3068.22 445.594 3075.52 453.314 3084.92 458.74L3085.92 457.007C3076.86 451.78 3069.83 444.348 3064.82 434.686L3063.05 435.606ZM3084.92 458.74C3094.33 464.169 3105.46 466.864 3118.27 466.864V464.864C3105.74 464.864 3094.97 462.231 3085.92 457.007L3084.92 458.74ZM3118.27 466.864C3126.77 466.864 3134.57 465.667 3141.67 463.26L3141.03 461.365C3134.16 463.693 3126.58 464.864 3118.27 464.864V466.864ZM3141.67 463.26C3148.78 460.849 3154.89 457.226 3159.97 452.383L3158.59 450.935C3153.74 455.562 3147.89 459.041 3141.03 461.365L3141.67 463.26ZM3159.97 452.383C3165.06 447.538 3168.93 441.609 3171.58 434.613L3169.71 433.904C3167.16 440.639 3163.45 446.31 3158.59 450.935L3159.97 452.383ZM3170.58 435.256L3240.54 439.873L3240.67 437.877L3170.71 433.261L3170.58 435.256ZM3239.63 438.668C3236.11 455.314 3228.91 469.835 3218.01 482.25L3219.52 483.569C3230.64 470.888 3238 456.053 3241.58 439.082L3239.63 438.668ZM3218.01 482.25C3207.24 494.547 3193.29 504.168 3176.13 511.101L3176.88 512.956C3194.29 505.921 3208.51 496.129 3219.52 483.568L3218.01 482.25ZM3176.14 511.1C3159.11 517.909 3139.42 521.327 3117.03 521.327V523.327C3139.62 523.327 3159.57 519.879 3176.88 512.957L3176.14 511.1ZM3367.2 359.33L3366.2 359.319V359.33H3367.2ZM3367.2 517V518H3368.2V517H3367.2ZM3291.56 517H3290.56V518H3291.56V517ZM3291.56 244.273V243.273H3290.56V244.273H3291.56ZM3363.65 244.273H3364.65V243.273H3363.65V244.273ZM3363.65 292.391H3362.65V293.391H3363.65V292.391ZM3366.85 292.391V293.391H3367.54L3367.78 292.746L3366.85 292.391ZM3397.21 254.749L3397.75 255.587L3397.76 255.584L3397.21 254.749ZM3498.42 253.151L3498.92 252.289L3498.42 253.151ZM3531.27 288.662L3530.37 289.115L3530.38 289.117L3531.27 288.662ZM3542.98 517V518H3543.98V517H3542.98ZM3467.34 517H3466.34V518H3467.34V517ZM3467.34 356.844L3466.34 356.837V356.844H3467.34ZM3454.56 317.781L3453.82 318.455L3453.83 318.46L3454.56 317.781ZM3391.88 310.146L3391.39 309.274L3391.39 309.277L3391.88 310.146ZM3373.77 329.322L3372.89 328.86L3372.88 328.865L3373.77 329.322ZM3366.2 359.33V517H3368.2V359.33H3366.2ZM3367.2 516H3291.56V518H3367.2V516ZM3292.56 517V244.273H3290.56V517H3292.56ZM3291.56 245.273H3363.65V243.273H3291.56V245.273ZM3362.65 244.273V292.391H3364.65V244.273H3362.65ZM3363.65 293.391H3366.85V291.391H3363.65V293.391ZM3367.78 292.746C3373.74 277.082 3383.73 264.704 3397.75 255.587L3396.66 253.91C3382.28 263.259 3372.03 275.975 3365.91 292.035L3367.78 292.746ZM3397.76 255.584C3411.77 246.359 3428.8 241.722 3448.88 241.722V239.722C3428.48 239.722 3411.06 244.435 3396.66 253.913L3397.76 255.584ZM3448.88 241.722C3467.67 241.722 3484 245.83 3497.91 254.012L3498.92 252.289C3484.66 243.899 3467.97 239.722 3448.88 239.722V241.722ZM3497.91 254.012C3511.82 262.196 3522.64 273.887 3530.37 289.115L3532.16 288.209C3524.26 272.661 3513.18 260.677 3498.92 252.289L3497.91 254.012ZM3530.38 289.117C3538.1 304.217 3541.98 322.283 3541.98 343.349H3543.98C3543.98 322.039 3540.06 303.647 3532.16 288.206L3530.38 289.117ZM3541.98 343.349V517H3543.98V343.349H3541.98ZM3542.98 516H3467.34V518H3542.98V516ZM3468.34 517V356.844H3466.34V517H3468.34ZM3468.34 356.851C3468.46 339.988 3464.16 326.693 3455.3 317.103L3453.83 318.46C3462.25 327.573 3466.46 340.319 3466.34 356.837L3468.34 356.851ZM3455.3 317.107C3446.43 307.392 3434.25 302.577 3418.87 302.577V304.577C3433.8 304.577 3445.41 309.231 3453.82 318.455L3455.3 317.107ZM3418.87 302.577C3408.54 302.577 3399.38 304.8 3391.39 309.274L3392.37 311.019C3400.02 306.733 3408.84 304.577 3418.87 304.577V302.577ZM3391.39 309.277C3383.52 313.759 3377.35 320.298 3372.89 328.86L3374.66 329.785C3378.96 321.538 3384.86 315.293 3392.38 311.015L3391.39 309.277ZM3372.88 328.865C3368.53 337.321 3366.32 347.484 3366.2 359.319L3368.2 359.34C3368.32 347.737 3370.49 337.896 3374.66 329.78L3372.88 328.865ZM3747.66 244.273H3748.66V243.273H3747.66V244.273ZM3747.66 301.091V302.091H3748.66V301.091H3747.66ZM3583.42 301.091H3582.42V302.091H3583.42V301.091ZM3583.42 244.273V243.273H3582.42V244.273H3583.42ZM3620.71 178.932V177.932H3619.71V178.932H3620.71ZM3696.35 178.932H3697.35V177.932H3696.35V178.932ZM3699.54 449.528L3698.67 450.007L3698.67 450.019L3699.54 449.528ZM3708.42 457.518L3708.05 458.445L3708.06 458.449L3708.42 457.518ZM3732.57 458.939L3732.73 459.925L3732.75 459.923L3732.77 459.919L3732.57 458.939ZM3740.74 457.341L3741.72 457.134L3741.51 456.178L3740.55 456.358L3740.74 457.341ZM3752.63 513.626L3752.93 514.581L3753.8 514.31L3753.61 513.42L3752.63 513.626ZM3736.65 517.71L3736.44 516.734L3736.43 516.736L3736.42 516.738L3736.65 517.71ZM3711.62 520.729L3711.58 519.729L3711.58 519.729L3711.62 520.729ZM3663.68 513.449L3663.3 514.375L3663.3 514.376L3663.68 513.449ZM3631.9 487.526L3632.74 486.983L3632.74 486.983L3631.9 487.526ZM3620.71 443.136L3621.71 443.143V443.136H3620.71ZM3746.66 244.273V301.091H3748.66V244.273H3746.66ZM3747.66 300.091H3583.42V302.091H3747.66V300.091ZM3584.42 301.091V244.273H3582.42V301.091H3584.42ZM3583.42 245.273H3747.66V243.273H3583.42V245.273ZM3620.71 179.932H3696.35V177.932H3620.71V179.932ZM3695.35 178.932V433.193H3697.35V178.932H3695.35ZM3695.35 433.193C3695.35 440.258 3696.42 445.894 3698.67 450.007L3700.42 449.05C3698.41 445.351 3697.35 440.096 3697.35 433.193H3695.35ZM3698.67 450.019C3700.91 453.99 3704.03 456.815 3708.05 458.445L3708.8 456.592C3705.23 455.144 3702.44 452.642 3700.42 449.038L3698.67 450.019ZM3708.06 458.449C3712.1 460.042 3716.73 460.827 3721.92 460.827V458.827C3716.93 458.827 3712.56 458.072 3708.79 456.588L3708.06 458.449ZM3721.92 460.827C3725.52 460.827 3729.13 460.526 3732.73 459.925L3732.41 457.953C3728.91 458.535 3725.41 458.827 3721.92 458.827V460.827ZM3732.77 459.919C3736.32 459.21 3739.03 458.678 3740.92 458.324L3740.55 456.358C3738.65 456.714 3735.93 457.248 3732.37 457.958L3732.77 459.919ZM3739.76 457.548L3751.66 513.833L3753.61 513.42L3741.72 457.134L3739.76 457.548ZM3752.34 512.672C3748.59 513.844 3743.29 515.198 3736.44 516.734L3736.87 518.686C3743.75 517.145 3749.11 515.777 3752.93 514.581L3752.34 512.672ZM3736.42 516.738C3729.64 518.375 3721.36 519.376 3711.58 519.729L3711.65 521.728C3721.52 521.371 3729.94 520.36 3736.89 518.682L3736.42 516.738ZM3711.58 519.729C3693.46 520.435 3677.63 518.021 3664.05 512.522L3663.3 514.376C3677.19 520.003 3693.32 522.442 3711.66 521.728L3711.58 519.729ZM3664.06 512.523C3650.62 507.033 3640.19 498.52 3632.74 486.983L3631.06 488.068C3638.75 499.969 3649.51 508.738 3663.3 514.375L3664.06 512.523ZM3632.74 486.983C3625.29 475.468 3621.59 460.876 3621.71 443.143L3619.71 443.13C3619.59 461.144 3623.35 476.146 3631.06 488.068L3632.74 486.983ZM3621.71 443.136V178.932H3619.71V443.136H3621.71Z" fill="white" mask="url(#path-1-outside-1_144_43)"/>
</g>
<g filter="url(#filter1_d_144_43)">
<path d="M276.44 58.727C205.929 90.4692 148.055 117.45 148.055 118.64C148.055 121.021 410.385 238.07 415.945 238.07C421.758 238.07 681.308 121.021 681.308 118.64C681.308 114.276 422.263 -0.789552 413.418 0.00400281C408.616 0.00400281 346.951 26.5881 276.44 58.727ZM430.856 100.389C434.647 103.563 439.196 109.118 441.218 112.689C443.998 118.244 453.348 118.64 525.628 116.26C570.108 114.673 606.248 114.673 605.49 115.863C604.732 117.053 568.339 120.227 524.617 123.005C455.623 126.973 444.25 128.56 439.954 134.511C426.307 153.16 411.396 155.541 402.045 140.463C398.507 135.305 395.727 126.973 395.727 122.608C395.727 117.847 398.507 109.911 402.045 104.753C409.121 93.2466 419.989 91.6595 430.856 100.389Z" fill="white"/>
<path d="M406.341 111.499C393.957 130.941 417.714 148.796 431.361 130.544L437.426 122.609L431.361 114.673C424.79 105.944 411.143 103.96 406.341 111.499Z" fill="white"/>
<path d="M128.847 66.2662C109.387 90.4696 94.9819 124.592 94.9819 146.415C94.9819 154.351 95.7401 153.954 106.355 142.447C120.76 126.973 133.902 99.5955 139.209 74.5985C141.736 63.4888 143 53.9661 142.242 52.7758C141.736 51.5855 135.671 57.9339 128.847 66.2662Z" fill="white"/>
<path d="M688.889 54.7592C688.889 65.0754 699.251 99.9918 706.58 114.673C711.129 123.402 719.722 136.098 725.787 142.844C735.391 153.16 736.907 153.557 736.907 147.605C736.655 133.718 730.084 111.498 720.985 94.0401C711.129 75.3916 688.889 48.0139 688.889 54.7592Z" fill="white"/>
<path d="M82.345 71.4245C71.9832 101.58 66.9286 150.78 71.225 176.967C73.4995 190.458 75.7741 188.077 81.8395 167.048C90.1795 138.48 93.2122 113.086 91.1904 88.8827C89.4213 64.2825 86.3886 58.7276 82.345 71.4245Z" fill="white"/>
<path d="M743.984 67.4561C737.413 94.8338 740.698 139.273 751.818 173.396L756.62 188.076L759.653 176.173C764.454 156.731 761.422 115.069 752.829 86.5014C747.774 69.0432 744.995 63.0916 743.984 67.4561Z" fill="white"/>
<path d="M49.2381 145.225C42.6672 180.141 46.4581 249.577 54.5454 249.577C58.0835 249.577 62.3799 224.977 63.8962 197.599C64.9072 178.157 64.149 165.46 60.8635 148.796C58.3363 136.496 55.5563 126.576 54.5454 126.576C53.5345 126.576 51.0072 134.909 49.2381 145.225Z" fill="white"/>
<path d="M773.3 140.463C765.718 166.651 768.751 249.577 777.344 249.577C778.607 249.577 781.64 239.658 783.915 227.358C788.464 202.757 787.453 172.999 781.387 141.654L778.102 124.592L773.3 140.463Z" fill="white"/>
<path d="M112.673 148.796C96.498 163.08 80.0708 189.267 74.2581 209.106C71.4781 218.629 69.9617 227.358 70.7199 228.548C73.4999 232.913 101.3 202.757 110.651 185.299C120.002 168.238 129.605 138.48 126.067 138.48C124.803 138.48 118.991 143.241 112.673 148.796Z" fill="white"/>
<path d="M706.833 149.192C711.635 170.221 727.051 198.392 742.468 214.264C751.06 222.596 758.389 228.944 759.147 228.151C761.927 223.389 755.862 201.17 747.522 186.092C739.182 170.618 711.382 138.479 706.328 138.479C705.317 138.479 705.317 143.24 706.833 149.192Z" fill="white"/>
<path d="M641.377 162.682C641.124 176.966 639.608 186.886 637.081 190.06C632.531 196.011 632.279 206.724 636.322 213.073C638.85 217.041 638.85 218.628 636.322 221.405C634.553 222.992 630.257 251.163 626.213 286.873C619.642 348.374 619.642 349.564 624.444 355.119C630.762 362.261 653.761 362.261 660.079 355.119C664.88 349.564 664.88 348.374 658.057 286.873C654.013 250.37 649.97 223.389 647.948 221.405C645.421 218.628 645.421 217.041 647.948 213.073C651.991 206.724 651.739 196.011 647.19 190.06C645.168 187.282 643.146 176.173 642.641 163.079L641.882 140.463L641.377 162.682Z" fill="white"/>
<path d="M17.6472 214.264C18.4054 227.754 22.1963 248.784 25.7344 261.48C32.0526 283.7 45.4471 309.094 48.2271 304.332C51.0071 299.968 44.6889 252.751 38.6235 232.516C32.8108 213.47 21.1853 190.061 17.3944 190.061C16.6363 190.061 16.6363 201.17 17.6472 214.264Z" fill="white"/>
<path d="M805.902 202.757C795.793 219.422 788.464 245.212 785.178 275.367C782.651 301.555 782.904 303.142 788.717 299.968C799.078 293.619 817.275 222.993 814.747 197.996C813.989 190.06 813.484 190.06 805.902 202.757Z" fill="white"/>
<path d="M297.163 309.49V413.446L308.283 430.507C320.414 448.759 338.358 461.059 366.663 470.581C389.156 478.12 458.403 475.343 479.126 466.217C499.344 457.091 523.353 437.649 530.683 423.762L537.253 411.462V308.3C537.253 211.883 537.001 205.137 532.957 207.121C530.43 207.915 503.135 221.009 472.05 236.086L415.945 263.067L360.85 235.689C330.776 221.009 303.987 207.915 301.712 206.725C297.416 205.137 297.163 211.883 297.163 309.49Z" fill="white"/>
<path d="M76.2796 245.609C65.1597 266.242 56.3142 300.365 55.0506 325.758C53.787 353.533 56.3142 354.723 66.9287 332.107C78.3014 307.903 85.3778 276.161 84.3669 251.958L83.6087 232.119L76.2796 245.609Z" fill="white"/>
<path d="M747.016 252.354C747.016 276.954 753.082 304.729 764.454 330.123C775.574 355.516 778.354 354.326 776.585 324.568C775.069 298.777 766.224 266.638 754.345 244.815L747.269 231.722L747.016 252.354Z" fill="white"/>
<path d="M15.1202 291.635C17.142 309.49 29.5256 351.152 36.0965 363.055C38.6237 367.42 43.931 374.562 47.9746 378.529L55.3037 386.068L53.5346 368.61C50.2492 336.471 32.811 293.222 18.1529 280.525C13.8565 276.954 13.6038 277.748 15.1202 291.635Z" fill="white"/>
<path d="M804.386 292.825C792.76 309.887 780.629 345.597 778.102 370.991C776.586 384.481 776.838 385.275 781.64 381.307C789.727 374.562 802.616 349.168 807.924 330.519C813.736 309.093 818.538 281.319 816.769 278.541C816.264 277.351 810.704 284.096 804.386 292.825Z" fill="white"/>
<path d="M70.4672 339.645C69.2035 345.993 68.4454 367.816 68.6981 388.449C68.6981 421.778 69.709 428.92 75.7744 447.568C82.3453 467.407 83.1035 468.598 85.8835 461.456C87.3999 457.091 88.6635 436.855 88.6635 414.239C88.6635 379.323 87.9053 371.784 81.8399 351.548C78.049 339.248 74.5108 328.932 73.7526 328.932C72.9944 328.932 71.4781 333.693 70.4672 339.645Z" fill="white"/>
<path d="M750.302 350.755C743.984 372.181 743.226 378.927 743.226 414.24C743.226 436.062 744.489 457.092 746.006 461.456C748.533 467.805 749.796 466.218 756.115 445.585C762.686 424.556 763.444 418.604 762.938 384.481C762.938 363.849 761.675 342.423 760.158 336.868C757.631 327.346 757.378 327.742 750.302 350.755Z" fill="white"/>
<path d="M4 363.85C4 370.595 18.4054 398.766 30.5363 415.431C41.909 431.302 60.358 443.999 63.6435 438.841C65.918 435.27 56.0617 412.256 45.1944 395.592C32.3054 376.15 4 354.327 4 363.85Z" fill="white"/>
<path d="M808.934 371.784C794.782 382.497 780.629 402.336 770.773 425.746C764.96 440.427 767.74 442.411 781.387 434.078C795.287 425.746 806.912 410.668 819.043 384.481C832.185 356.31 831.427 355.12 808.934 371.784Z" fill="white"/>
<path d="M96.245 448.362C99.2778 470.979 109.387 506.292 117.98 525.337C126.067 542.795 141.736 562.238 144.516 557.873C145.274 556.683 144.01 544.779 141.483 531.289C134.66 492.008 117.98 457.092 97.7614 438.443C95.2341 435.666 94.7287 437.649 96.245 448.362Z" fill="white"/>
<path d="M723.513 450.347C717.195 458.282 708.349 472.963 704.306 483.279C697.482 499.547 686.362 544.78 686.362 555.096C686.362 570.57 712.14 533.273 721.744 503.515C728.567 482.089 737.666 440.03 736.149 437.253C735.644 436.459 729.831 442.411 723.513 450.347Z" fill="white"/>
<path d="M31.5471 450.743C36.6016 465.821 65.9179 504.705 79.0597 514.228C86.8942 519.782 95.7397 523.353 100.541 522.56L108.881 521.37L93.9706 496.373C78.3015 470.185 56.8198 450.743 38.3707 445.585C29.2726 443.204 29.0198 443.601 31.5471 450.743Z" fill="white"/>
<path d="M783.157 449.949C766.224 457.885 751.818 472.962 736.908 498.356L723.008 521.369L731.348 522.56C747.269 524.94 782.146 489.627 797.815 455.504C802.616 444.791 802.616 443.998 798.32 444.394C795.793 444.394 788.969 446.775 783.157 449.949Z" fill="white"/>
<path d="M263.803 530.099C251.672 542.002 244.343 551.922 244.09 555.89C244.09 562.635 253.441 563.032 407.352 563.032C515.013 563.032 572.13 564.619 575.415 566.999C581.48 572.157 581.733 587.632 575.668 595.964C571.371 601.916 555.955 602.709 407.604 602.709H244.09V616.596V630.484H415.944C562.526 630.484 587.799 629.69 587.799 624.929C587.799 621.755 586.535 618.58 585.019 617.787C583.25 616.993 584.26 610.248 587.546 599.932C595.128 577.315 592.853 568.19 572.635 537.638L555.45 511.45H419.23H283.263L263.803 530.099Z" fill="white"/>
<path d="M153.108 530.495C161.701 554.302 175.096 573.347 196.325 590.805L215.026 606.28L190.765 606.676C164.987 606.676 150.834 612.231 137.439 626.912C130.616 634.848 130.363 636.038 134.154 639.609C141.736 646.354 185.963 643.973 198.599 636.038C221.597 622.151 226.652 604.692 215.026 578.108C204.917 554.699 175.096 523.75 155.888 517.401L147.548 514.624L153.108 530.495Z" fill="white"/>
<path d="M665.891 522.957C650.727 532.479 625.707 559.857 618.378 575.331C609.786 593.583 608.775 610.645 616.104 620.961C626.971 636.435 642.135 642.783 668.418 642.783C706.327 642.783 709.36 637.625 682.824 618.183C669.176 607.867 664.627 606.677 642.135 606.677L616.862 606.28L635.564 590.806C656.54 573.347 670.187 554.302 678.527 530.892C685.098 513.037 683.582 512.244 665.891 522.957Z" fill="white"/>
<path d="M49.491 526.13C37.6129 529.701 39.1293 534.066 56.3147 546.366C79.3128 562.634 101.3 569.379 116.716 564.618C123.287 562.634 129.1 559.063 129.605 556.682C130.616 551.524 106.102 533.272 89.9273 527.718C78.5546 523.353 61.1165 522.956 49.491 526.13Z" fill="white"/>
<path d="M742.467 527.321C729.578 531.685 701.526 550.731 701.526 555.492C701.526 563.428 723.007 568.189 739.687 563.824C759.653 558.27 792.002 536.844 788.211 530.892C784.673 525.337 755.356 522.956 742.467 527.321Z" fill="white"/>
<path d="M108.882 580.489C103.322 583.266 95.4872 588.424 91.1909 591.599L83.8618 597.947L93.7182 602.708C99.2781 605.089 114.189 608.263 126.573 609.057C146.285 610.644 151.34 609.85 163.218 601.915C170.8 596.757 176.865 591.202 176.612 588.821C175.349 576.918 127.836 570.966 108.882 580.489Z" fill="white"/>
<path d="M667.913 580.489C661.342 583.266 655.277 586.837 654.266 588.028C651.486 592.789 676.758 607.47 691.164 609.454C706.833 611.834 740.951 604.296 743.478 598.344C744.237 596.36 739.435 590.805 732.864 586.441C717.7 575.728 685.098 572.553 667.913 580.489Z" fill="white"/>
<path d="M204.665 652.306C185.71 674.526 180.909 684.842 187.227 688.81C195.567 693.571 226.652 647.942 223.367 635.245C223.114 633.261 214.521 640.8 204.665 652.306Z" fill="white"/>
<path d="M609.28 638.816C610.291 643.974 613.071 652.703 615.346 657.861C619.895 668.971 637.586 690 642.64 690C649.464 690 645.673 674.526 636.575 663.813C631.268 657.861 622.675 647.545 617.115 641.196C607.764 629.69 607.511 629.69 609.28 638.816Z" fill="white"/>
<path d="M244.09 654.29C244.09 662.225 245.859 662.225 415.944 662.225C586.029 662.225 587.799 662.225 587.799 654.29C587.799 646.354 586.029 646.354 415.944 646.354C245.859 646.354 244.09 646.354 244.09 654.29Z" fill="white"/>
</g>
<defs>
<filter id="filter0_dd_144_43" x="1082.86" y="136.392" width="2697.78" height="429.935" filterUnits="userSpaceOnUse" color-interpolation-filters="sRGB">
<feFlood flood-opacity="0" result="BackgroundImageFix"/>
<feColorMatrix in="SourceAlpha" type="matrix" values="0 0 0 0 0 0 0 0 0 0 0 0 0 0 0 0 0 0 127 0" result="hardAlpha"/>
<feMorphology radius="4" operator="erode" in="SourceAlpha" result="effect1_dropShadow_144_43"/>
<feOffset dy="4"/>
<feGaussianBlur stdDeviation="2"/>
<feComposite in2="hardAlpha" operator="out"/>
<feColorMatrix type="matrix" values="0 0 0 0 0.0470588 0 0 0 0 0.0470588 0 0 0 0 0.0509804 0 0 0 0.05 0"/>
<feBlend mode="normal" in2="BackgroundImageFix" result="effect1_dropShadow_144_43"/>
<feColorMatrix in="SourceAlpha" type="matrix" values="0 0 0 0 0 0 0 0 0 0 0 0 0 0 0 0 0 0 127 0" result="hardAlpha"/>
<feMorphology radius="4" operator="erode" in="SourceAlpha" result="effect2_dropShadow_144_43"/>
<feOffset dy="16"/>
<feGaussianBlur stdDeviation="16"/>
<feComposite in2="hardAlpha" operator="out"/>
<feColorMatrix type="matrix" values="0 0 0 0 0.0470588 0 0 0 0 0.0470588 0 0 0 0 0.0509804 0 0 0 0.1 0"/>
<feBlend mode="normal" in2="effect1_dropShadow_144_43" result="effect2_dropShadow_144_43"/>
<feBlend mode="normal" in="SourceGraphic" in2="effect2_dropShadow_144_43" result="shape"/>
</filter>
<filter id="filter1_d_144_43" x="0" y="0" width="831.666" height="698" filterUnits="userSpaceOnUse" color-interpolation-filters="sRGB">
<feFlood flood-opacity="0" result="BackgroundImageFix"/>
<feColorMatrix in="SourceAlpha" type="matrix" values="0 0 0 0 0 0 0 0 0 0 0 0 0 0 0 0 0 0 127 0" result="hardAlpha"/>
<feOffset dy="4"/>
<feGaussianBlur stdDeviation="2"/>
<feComposite in2="hardAlpha" operator="out"/>
<feColorMatrix type="matrix" values="0 0 0 0 0 0 0 0 0 0 0 0 0 0 0 0 0 0 0.25 0"/>
<feBlend mode="normal" in2="BackgroundImageFix" result="effect1_dropShadow_144_43"/>
<feBlend mode="normal" in="SourceGraphic" in2="effect1_dropShadow_144_43" result="shape"/>
</filter>
</defs>
</svg>
